%TF.GenerationSoftware,KiCad,Pcbnew,9.0.7*%
%TF.CreationDate,2026-02-16T22:56:35-08:00*%
%TF.ProjectId,board,626f6172-642e-46b6-9963-61645f706362,rev?*%
%TF.SameCoordinates,Original*%
%TF.FileFunction,Soldermask,Bot*%
%TF.FilePolarity,Negative*%
%FSLAX46Y46*%
G04 Gerber Fmt 4.6, Leading zero omitted, Abs format (unit mm)*
G04 Created by KiCad (PCBNEW 9.0.7) date 2026-02-16 22:56:35*
%MOMM*%
%LPD*%
G01*
G04 APERTURE LIST*
G04 Aperture macros list*
%AMRoundRect*
0 Rectangle with rounded corners*
0 $1 Rounding radius*
0 $2 $3 $4 $5 $6 $7 $8 $9 X,Y pos of 4 corners*
0 Add a 4 corners polygon primitive as box body*
4,1,4,$2,$3,$4,$5,$6,$7,$8,$9,$2,$3,0*
0 Add four circle primitives for the rounded corners*
1,1,$1+$1,$2,$3*
1,1,$1+$1,$4,$5*
1,1,$1+$1,$6,$7*
1,1,$1+$1,$8,$9*
0 Add four rect primitives between the rounded corners*
20,1,$1+$1,$2,$3,$4,$5,0*
20,1,$1+$1,$4,$5,$6,$7,0*
20,1,$1+$1,$6,$7,$8,$9,0*
20,1,$1+$1,$8,$9,$2,$3,0*%
G04 Aperture macros list end*
%ADD10R,1.700000X1.700000*%
%ADD11C,1.700000*%
%ADD12C,1.600000*%
%ADD13R,1.422400X1.422400*%
%ADD14C,1.422400*%
%ADD15C,0.800000*%
%ADD16C,5.000000*%
%ADD17C,2.000000*%
%ADD18RoundRect,0.250000X-0.550000X-0.550000X0.550000X-0.550000X0.550000X0.550000X-0.550000X0.550000X0*%
%ADD19RoundRect,0.250000X0.550000X-0.550000X0.550000X0.550000X-0.550000X0.550000X-0.550000X-0.550000X0*%
%ADD20RoundRect,0.102000X-0.530500X-0.530500X0.530500X-0.530500X0.530500X0.530500X-0.530500X0.530500X0*%
%ADD21C,1.265000*%
%ADD22C,3.176000*%
%ADD23RoundRect,0.250000X-0.550000X0.550000X-0.550000X-0.550000X0.550000X-0.550000X0.550000X0.550000X0*%
%ADD24R,1.800000X1.800000*%
%ADD25C,1.800000*%
%ADD26R,1.600000X1.600000*%
%ADD27RoundRect,0.102000X0.754000X0.754000X-0.754000X0.754000X-0.754000X-0.754000X0.754000X-0.754000X0*%
%ADD28C,1.712000*%
%ADD29C,4.420000*%
%ADD30R,2.000000X2.000000*%
%ADD31R,1.320800X1.320800*%
%ADD32C,1.320800*%
%ADD33C,1.500000*%
%ADD34C,1.371600*%
%ADD35R,2.169160X3.200400*%
%ADD36R,3.200400X1.998980*%
%ADD37C,1.300000*%
%ADD38O,2.504000X1.354000*%
%ADD39O,1.354000X2.504000*%
%ADD40O,3.900000X1.950000*%
%ADD41O,1.700000X3.400000*%
G04 APERTURE END LIST*
D10*
%TO.C,J5*%
X350025000Y-147865000D03*
D11*
X350025000Y-145325000D03*
%TD*%
D12*
%TO.C,C12*%
X262755000Y-207095000D03*
X262755000Y-212095000D03*
%TD*%
%TO.C,R12*%
X352175000Y-120945000D03*
X352175000Y-131105000D03*
%TD*%
%TO.C,C4*%
X111450000Y-186375000D03*
X111450000Y-191375000D03*
%TD*%
%TO.C,R21*%
X348245000Y-120945000D03*
X348245000Y-131105000D03*
%TD*%
D13*
%TO.C,U12*%
X171975000Y-176585000D03*
D14*
X171975000Y-179125000D03*
X169435000Y-176585000D03*
X169435000Y-179125000D03*
X166895000Y-176585000D03*
X166895000Y-179125000D03*
X164355000Y-176585000D03*
X164355000Y-179125000D03*
X161815000Y-176585000D03*
X161815000Y-179125000D03*
X159275000Y-176585000D03*
X156735000Y-179125000D03*
X159275000Y-179125000D03*
X156735000Y-181665000D03*
X159275000Y-181665000D03*
X156735000Y-184205000D03*
X159275000Y-184205000D03*
X156735000Y-186745000D03*
X159275000Y-186745000D03*
X156735000Y-189285000D03*
X159275000Y-189285000D03*
X156735000Y-191825000D03*
X159275000Y-191825000D03*
X156735000Y-194365000D03*
X159275000Y-194365000D03*
X156735000Y-196905000D03*
X159275000Y-196905000D03*
X156735000Y-199445000D03*
X159275000Y-199445000D03*
X156735000Y-201985000D03*
X159275000Y-201985000D03*
X156735000Y-204525000D03*
X159275000Y-207065000D03*
X159275000Y-204525000D03*
X161815000Y-207065000D03*
X161815000Y-204525000D03*
X164355000Y-207065000D03*
X164355000Y-204525000D03*
X166895000Y-207065000D03*
X166895000Y-204525000D03*
X169435000Y-207065000D03*
X169435000Y-204525000D03*
X171975000Y-207065000D03*
X171975000Y-204525000D03*
X174515000Y-207065000D03*
X174515000Y-204525000D03*
X177055000Y-207065000D03*
X177055000Y-204525000D03*
X179595000Y-207065000D03*
X179595000Y-204525000D03*
X182135000Y-207065000D03*
X182135000Y-204525000D03*
X184675000Y-207065000D03*
X187215000Y-204525000D03*
X184675000Y-204525000D03*
X187215000Y-201985000D03*
X184675000Y-201985000D03*
X187215000Y-199445000D03*
X184675000Y-199445000D03*
X187215000Y-196905000D03*
X184675000Y-196905000D03*
X187215000Y-194365000D03*
X184675000Y-194365000D03*
X187215000Y-191825000D03*
X184675000Y-191825000D03*
X187215000Y-189285000D03*
X184675000Y-189285000D03*
X187215000Y-186745000D03*
X184675000Y-186745000D03*
X187215000Y-184205000D03*
X184675000Y-184205000D03*
X187215000Y-181665000D03*
X184675000Y-181665000D03*
X187215000Y-179125000D03*
X184675000Y-176585000D03*
X184675000Y-179125000D03*
X182135000Y-176585000D03*
X182135000Y-179125000D03*
X179595000Y-176585000D03*
X179595000Y-179125000D03*
X177055000Y-176585000D03*
X177055000Y-179125000D03*
X174515000Y-176585000D03*
X174515000Y-179125000D03*
%TD*%
D15*
%TO.C,H1*%
X103625000Y-105500000D03*
X104174175Y-104174175D03*
X104174175Y-106825825D03*
X105500000Y-103625000D03*
D16*
X105500000Y-105500000D03*
D15*
X105500000Y-107375000D03*
X106825825Y-104174175D03*
X106825825Y-106825825D03*
X107375000Y-105500000D03*
%TD*%
D17*
%TO.C,TP15*%
X242721429Y-274075000D03*
%TD*%
D18*
%TO.C,U8*%
X266692500Y-147495000D03*
D12*
X266692500Y-150035000D03*
X266692500Y-152575000D03*
X266692500Y-155115000D03*
X266692500Y-157655000D03*
X266692500Y-160195000D03*
X266692500Y-162735000D03*
X266692500Y-165275000D03*
X266692500Y-167815000D03*
X266692500Y-170355000D03*
X266692500Y-172895000D03*
X266692500Y-175435000D03*
X266692500Y-177975000D03*
X266692500Y-180515000D03*
X266692500Y-183055000D03*
X266692500Y-185595000D03*
X281932500Y-185595000D03*
X281932500Y-183055000D03*
X281932500Y-180515000D03*
X281932500Y-177975000D03*
X281932500Y-175435000D03*
X281932500Y-172895000D03*
X281932500Y-170355000D03*
X281932500Y-167815000D03*
X281932500Y-165275000D03*
X281932500Y-162735000D03*
X281932500Y-160195000D03*
X281932500Y-157655000D03*
X281932500Y-155115000D03*
X281932500Y-152575000D03*
X281932500Y-150035000D03*
X281932500Y-147495000D03*
%TD*%
D19*
%TO.C,U16*%
X220990000Y-136815000D03*
D12*
X223530000Y-136815000D03*
X226070000Y-136815000D03*
X228610000Y-136815000D03*
X231150000Y-136815000D03*
X233690000Y-136815000D03*
X236230000Y-136815000D03*
X238770000Y-136815000D03*
X241310000Y-136815000D03*
X243850000Y-136815000D03*
X246390000Y-136815000D03*
X248930000Y-136815000D03*
X251470000Y-136815000D03*
X254010000Y-136815000D03*
X256550000Y-136815000D03*
X259090000Y-136815000D03*
X261630000Y-136815000D03*
X264170000Y-136815000D03*
X266710000Y-136815000D03*
X269250000Y-136815000D03*
X269250000Y-121575000D03*
X266710000Y-121575000D03*
X264170000Y-121575000D03*
X261630000Y-121575000D03*
X259090000Y-121575000D03*
X256550000Y-121575000D03*
X254010000Y-121575000D03*
X251470000Y-121575000D03*
X248930000Y-121575000D03*
X246390000Y-121575000D03*
X243850000Y-121575000D03*
X241310000Y-121575000D03*
X238770000Y-121575000D03*
X236230000Y-121575000D03*
X233690000Y-121575000D03*
X231150000Y-121575000D03*
X228610000Y-121575000D03*
X226070000Y-121575000D03*
X223530000Y-121575000D03*
X220990000Y-121575000D03*
%TD*%
D20*
%TO.C,J8*%
X149898000Y-250669000D03*
D21*
X151168000Y-250669000D03*
X152438000Y-250669000D03*
X153708000Y-250669000D03*
X154978000Y-250669000D03*
X156248000Y-250669000D03*
X157518000Y-250669000D03*
X158788000Y-250669000D03*
X160058000Y-250669000D03*
X161328000Y-250669000D03*
X162598000Y-250669000D03*
X163868000Y-250669000D03*
X165138000Y-250669000D03*
X166408000Y-250669000D03*
X167678000Y-250669000D03*
X168948000Y-250669000D03*
X170218000Y-250669000D03*
X171488000Y-250669000D03*
X172758000Y-250669000D03*
X174028000Y-250669000D03*
X175298000Y-250669000D03*
X176568000Y-250669000D03*
X177838000Y-250669000D03*
X179108000Y-250669000D03*
X180378000Y-250669000D03*
X149898000Y-253844000D03*
X151168000Y-253844000D03*
X152438000Y-253844000D03*
X153708000Y-253844000D03*
X154978000Y-253844000D03*
X156248000Y-253844000D03*
X157518000Y-253844000D03*
X158788000Y-253844000D03*
X160058000Y-253844000D03*
X161328000Y-253844000D03*
X162598000Y-253844000D03*
X163868000Y-253844000D03*
X165138000Y-253844000D03*
X166408000Y-253844000D03*
X167678000Y-253844000D03*
X168948000Y-253844000D03*
X170218000Y-253844000D03*
X171488000Y-253844000D03*
X172758000Y-253844000D03*
X174028000Y-253844000D03*
X175298000Y-253844000D03*
X176568000Y-253844000D03*
X177838000Y-253844000D03*
X179108000Y-253844000D03*
X180378000Y-253844000D03*
D22*
X143751000Y-258543000D03*
X186525000Y-258543000D03*
X143751000Y-279625000D03*
X186525000Y-279625000D03*
%TD*%
D12*
%TO.C,C14*%
X285855000Y-207245000D03*
X285855000Y-212245000D03*
%TD*%
D18*
%TO.C,U2*%
X197775000Y-152575000D03*
D12*
X197775000Y-155115000D03*
X197775000Y-157655000D03*
X197775000Y-160195000D03*
X197775000Y-162735000D03*
X197775000Y-165275000D03*
X197775000Y-167815000D03*
X197775000Y-170355000D03*
X197775000Y-172895000D03*
X197775000Y-175435000D03*
X197775000Y-177975000D03*
X197775000Y-180515000D03*
X197775000Y-183055000D03*
X197775000Y-185595000D03*
X213015000Y-185595000D03*
X213015000Y-183055000D03*
X213015000Y-180515000D03*
X213015000Y-177975000D03*
X213015000Y-175435000D03*
X213015000Y-172895000D03*
X213015000Y-170355000D03*
X213015000Y-167815000D03*
X213015000Y-165275000D03*
X213015000Y-162735000D03*
X213015000Y-160195000D03*
X213015000Y-157655000D03*
X213015000Y-155115000D03*
X213015000Y-152575000D03*
%TD*%
%TO.C,R40*%
X344315000Y-131105000D03*
X344315000Y-120945000D03*
%TD*%
D17*
%TO.C,TP14*%
X233700000Y-274075000D03*
%TD*%
D18*
%TO.C,U5*%
X220687500Y-207565000D03*
D12*
X220687500Y-210105000D03*
X220687500Y-212645000D03*
X220687500Y-215185000D03*
X220687500Y-217725000D03*
X220687500Y-220265000D03*
X220687500Y-222805000D03*
X220687500Y-225345000D03*
X220687500Y-227885000D03*
X220687500Y-230425000D03*
X220687500Y-232965000D03*
X220687500Y-235505000D03*
X220687500Y-238045000D03*
X220687500Y-240585000D03*
X220687500Y-243125000D03*
X220687500Y-245665000D03*
X235927500Y-245665000D03*
X235927500Y-243125000D03*
X235927500Y-240585000D03*
X235927500Y-238045000D03*
X235927500Y-235505000D03*
X235927500Y-232965000D03*
X235927500Y-230425000D03*
X235927500Y-227885000D03*
X235927500Y-225345000D03*
X235927500Y-222805000D03*
X235927500Y-220265000D03*
X235927500Y-217725000D03*
X235927500Y-215185000D03*
X235927500Y-212645000D03*
X235927500Y-210105000D03*
X235927500Y-207565000D03*
%TD*%
%TO.C,R19*%
X176945000Y-162675000D03*
X187105000Y-162675000D03*
%TD*%
%TO.C,C18*%
X317830000Y-254420000D03*
X322830000Y-254420000D03*
%TD*%
D13*
%TO.C,U13*%
X335280000Y-218130000D03*
D14*
X335280000Y-220670000D03*
X332740000Y-218130000D03*
X332740000Y-220670000D03*
X330200000Y-218130000D03*
X330200000Y-220670000D03*
X327660000Y-218130000D03*
X327660000Y-220670000D03*
X325120000Y-218130000D03*
X325120000Y-220670000D03*
X322580000Y-218130000D03*
X320040000Y-220670000D03*
X322580000Y-220670000D03*
X320040000Y-223210000D03*
X322580000Y-223210000D03*
X320040000Y-225750000D03*
X322580000Y-225750000D03*
X320040000Y-228290000D03*
X322580000Y-228290000D03*
X320040000Y-230830000D03*
X322580000Y-230830000D03*
X320040000Y-233370000D03*
X322580000Y-233370000D03*
X320040000Y-235910000D03*
X322580000Y-235910000D03*
X320040000Y-238450000D03*
X322580000Y-238450000D03*
X320040000Y-240990000D03*
X322580000Y-240990000D03*
X320040000Y-243530000D03*
X322580000Y-243530000D03*
X320040000Y-246070000D03*
X322580000Y-248610000D03*
X322580000Y-246070000D03*
X325120000Y-248610000D03*
X325120000Y-246070000D03*
X327660000Y-248610000D03*
X327660000Y-246070000D03*
X330200000Y-248610000D03*
X330200000Y-246070000D03*
X332740000Y-248610000D03*
X332740000Y-246070000D03*
X335280000Y-248610000D03*
X335280000Y-246070000D03*
X337820000Y-248610000D03*
X337820000Y-246070000D03*
X340360000Y-248610000D03*
X340360000Y-246070000D03*
X342900000Y-248610000D03*
X342900000Y-246070000D03*
X345440000Y-248610000D03*
X345440000Y-246070000D03*
X347980000Y-248610000D03*
X350520000Y-246070000D03*
X347980000Y-246070000D03*
X350520000Y-243530000D03*
X347980000Y-243530000D03*
X350520000Y-240990000D03*
X347980000Y-240990000D03*
X350520000Y-238450000D03*
X347980000Y-238450000D03*
X350520000Y-235910000D03*
X347980000Y-235910000D03*
X350520000Y-233370000D03*
X347980000Y-233370000D03*
X350520000Y-230830000D03*
X347980000Y-230830000D03*
X350520000Y-228290000D03*
X347980000Y-228290000D03*
X350520000Y-225750000D03*
X347980000Y-225750000D03*
X350520000Y-223210000D03*
X347980000Y-223210000D03*
X350520000Y-220670000D03*
X347980000Y-218130000D03*
X347980000Y-220670000D03*
X345440000Y-218130000D03*
X345440000Y-220670000D03*
X342900000Y-218130000D03*
X342900000Y-220670000D03*
X340360000Y-218130000D03*
X340360000Y-220670000D03*
X337820000Y-218130000D03*
X337820000Y-220670000D03*
%TD*%
D12*
%TO.C,R23*%
X324645000Y-120945000D03*
X324645000Y-131105000D03*
%TD*%
D11*
%TO.C,SW1*%
X314420000Y-278125000D03*
X307920000Y-278125000D03*
X314420000Y-273625000D03*
X307920000Y-273625000D03*
%TD*%
D12*
%TO.C,R6*%
X105300000Y-209910000D03*
X105300000Y-199750000D03*
%TD*%
%TO.C,R15*%
X294495000Y-105400000D03*
X304655000Y-105400000D03*
%TD*%
D18*
%TO.C,C1*%
X122950000Y-116600000D03*
D12*
X125450000Y-116600000D03*
%TD*%
D18*
%TO.C,U10*%
X289665000Y-147495000D03*
D12*
X289665000Y-150035000D03*
X289665000Y-152575000D03*
X289665000Y-155115000D03*
X289665000Y-157655000D03*
X289665000Y-160195000D03*
X289665000Y-162735000D03*
X289665000Y-165275000D03*
X289665000Y-167815000D03*
X289665000Y-170355000D03*
X289665000Y-172895000D03*
X289665000Y-175435000D03*
X289665000Y-177975000D03*
X289665000Y-180515000D03*
X289665000Y-183055000D03*
X289665000Y-185595000D03*
X304905000Y-185595000D03*
X304905000Y-183055000D03*
X304905000Y-180515000D03*
X304905000Y-177975000D03*
X304905000Y-175435000D03*
X304905000Y-172895000D03*
X304905000Y-170355000D03*
X304905000Y-167815000D03*
X304905000Y-165275000D03*
X304905000Y-162735000D03*
X304905000Y-160195000D03*
X304905000Y-157655000D03*
X304905000Y-155115000D03*
X304905000Y-152575000D03*
X304905000Y-150035000D03*
X304905000Y-147495000D03*
%TD*%
D15*
%TO.C,H3*%
X353225000Y-280075000D03*
X353774175Y-278749175D03*
X353774175Y-281400825D03*
X355100000Y-278200000D03*
D16*
X355100000Y-280075000D03*
D15*
X355100000Y-281950000D03*
X356425825Y-278749175D03*
X356425825Y-281400825D03*
X356975000Y-280075000D03*
%TD*%
D12*
%TO.C,C8*%
X309005000Y-207095000D03*
X309005000Y-212095000D03*
%TD*%
D23*
%TO.C,U23*%
X173895000Y-137175000D03*
D12*
X171355000Y-137175000D03*
X168815000Y-137175000D03*
X166275000Y-137175000D03*
X163735000Y-137175000D03*
X161195000Y-137175000D03*
X158655000Y-137175000D03*
X156115000Y-137175000D03*
X153575000Y-137175000D03*
X151035000Y-137175000D03*
X151035000Y-144795000D03*
X153575000Y-144795000D03*
X156115000Y-144795000D03*
X158655000Y-144795000D03*
X161195000Y-144795000D03*
X163735000Y-144795000D03*
X166275000Y-144795000D03*
X168815000Y-144795000D03*
X171355000Y-144795000D03*
X173895000Y-144795000D03*
%TD*%
D24*
%TO.C,D1*%
X294515000Y-275875000D03*
D25*
X291975000Y-275875000D03*
%TD*%
D26*
%TO.C,Y1*%
X337650000Y-160300000D03*
D12*
X337650000Y-152680000D03*
X330030000Y-152680000D03*
X330030000Y-160300000D03*
%TD*%
D19*
%TO.C,C35*%
X289825000Y-121050000D03*
D12*
X289825000Y-118550000D03*
%TD*%
%TO.C,R56*%
X177070000Y-168850000D03*
X187230000Y-168850000D03*
%TD*%
D10*
%TO.C,TP1*%
X251742857Y-273805000D03*
%TD*%
D18*
%TO.C,U6*%
X243720000Y-147495000D03*
D12*
X243720000Y-150035000D03*
X243720000Y-152575000D03*
X243720000Y-155115000D03*
X243720000Y-157655000D03*
X243720000Y-160195000D03*
X243720000Y-162735000D03*
X243720000Y-165275000D03*
X243720000Y-167815000D03*
X243720000Y-170355000D03*
X243720000Y-172895000D03*
X243720000Y-175435000D03*
X243720000Y-177975000D03*
X243720000Y-180515000D03*
X243720000Y-183055000D03*
X243720000Y-185595000D03*
X258960000Y-185595000D03*
X258960000Y-183055000D03*
X258960000Y-180515000D03*
X258960000Y-177975000D03*
X258960000Y-175435000D03*
X258960000Y-172895000D03*
X258960000Y-170355000D03*
X258960000Y-167815000D03*
X258960000Y-165275000D03*
X258960000Y-162735000D03*
X258960000Y-160195000D03*
X258960000Y-157655000D03*
X258960000Y-155115000D03*
X258960000Y-152575000D03*
X258960000Y-150035000D03*
X258960000Y-147495000D03*
%TD*%
%TO.C,C2*%
X180755000Y-226240000D03*
X180755000Y-231240000D03*
%TD*%
D17*
%TO.C,TP9*%
X256253571Y-262425000D03*
%TD*%
%TO.C,TP11*%
X206635714Y-274075000D03*
%TD*%
D12*
%TO.C,R4*%
X105300000Y-151150000D03*
X105300000Y-161310000D03*
%TD*%
%TO.C,C27*%
X323550000Y-143400000D03*
X323550000Y-138400000D03*
%TD*%
%TO.C,C21*%
X280380000Y-118475000D03*
X277880000Y-118475000D03*
%TD*%
D27*
%TO.C,J10*%
X326511750Y-113977500D03*
D28*
X328791750Y-113977500D03*
X331071750Y-113977500D03*
X333351750Y-113977500D03*
X335631750Y-113977500D03*
X325371750Y-111437500D03*
X327651750Y-111437500D03*
X329931750Y-111437500D03*
X332211750Y-111437500D03*
X334491750Y-111437500D03*
X326511750Y-108897500D03*
X328791750Y-108897500D03*
X331071750Y-108897500D03*
X333351750Y-108897500D03*
X335631750Y-108897500D03*
D29*
X343311750Y-111437500D03*
X318321750Y-111437500D03*
%TD*%
D12*
%TO.C,R2*%
X306700000Y-258195000D03*
X306700000Y-268355000D03*
%TD*%
D26*
%TO.C,Y3*%
X337725000Y-144525000D03*
D12*
X337725000Y-136905000D03*
X330105000Y-136905000D03*
X330105000Y-144525000D03*
%TD*%
D10*
%TO.C,J1*%
X166565000Y-155850000D03*
D11*
X164025000Y-155850000D03*
X161485000Y-155850000D03*
X158945000Y-155850000D03*
X156405000Y-155850000D03*
%TD*%
D12*
%TO.C,C7*%
X212855000Y-207885000D03*
X207855000Y-207885000D03*
%TD*%
D30*
%TO.C,LS1*%
X111250000Y-127075000D03*
D17*
X117750000Y-127075000D03*
%TD*%
D12*
%TO.C,R1*%
X293275000Y-268260000D03*
X293275000Y-258100000D03*
%TD*%
D17*
%TO.C,TP4*%
X211146429Y-262400000D03*
%TD*%
D12*
%TO.C,C5*%
X146155000Y-188990000D03*
X146155000Y-183990000D03*
%TD*%
D10*
%TO.C,J3*%
X119725000Y-105650000D03*
D11*
X122265000Y-105650000D03*
X124805000Y-105650000D03*
X127345000Y-105650000D03*
X129885000Y-105650000D03*
X132425000Y-105650000D03*
X134965000Y-105650000D03*
X137505000Y-105650000D03*
%TD*%
D17*
%TO.C,TP8*%
X247232143Y-262425000D03*
%TD*%
D12*
%TO.C,R53*%
X180660000Y-118625000D03*
X170500000Y-118625000D03*
%TD*%
D18*
%TO.C,U7*%
X243660000Y-207565000D03*
D12*
X243660000Y-210105000D03*
X243660000Y-212645000D03*
X243660000Y-215185000D03*
X243660000Y-217725000D03*
X243660000Y-220265000D03*
X243660000Y-222805000D03*
X243660000Y-225345000D03*
X243660000Y-227885000D03*
X243660000Y-230425000D03*
X243660000Y-232965000D03*
X243660000Y-235505000D03*
X243660000Y-238045000D03*
X243660000Y-240585000D03*
X243660000Y-243125000D03*
X243660000Y-245665000D03*
X258900000Y-245665000D03*
X258900000Y-243125000D03*
X258900000Y-240585000D03*
X258900000Y-238045000D03*
X258900000Y-235505000D03*
X258900000Y-232965000D03*
X258900000Y-230425000D03*
X258900000Y-227885000D03*
X258900000Y-225345000D03*
X258900000Y-222805000D03*
X258900000Y-220265000D03*
X258900000Y-217725000D03*
X258900000Y-215185000D03*
X258900000Y-212645000D03*
X258900000Y-210105000D03*
X258900000Y-207565000D03*
%TD*%
D24*
%TO.C,D2*%
X278565000Y-275875000D03*
D25*
X276025000Y-275875000D03*
%TD*%
D18*
%TO.C,C26*%
X162894888Y-121950000D03*
D12*
X165394888Y-121950000D03*
%TD*%
D15*
%TO.C,H4*%
X103625000Y-280075000D03*
X104174175Y-278749175D03*
X104174175Y-281400825D03*
X105500000Y-278200000D03*
D16*
X105500000Y-280075000D03*
D15*
X105500000Y-281950000D03*
X106825825Y-278749175D03*
X106825825Y-281400825D03*
X107375000Y-280075000D03*
%TD*%
D12*
%TO.C,R20*%
X320715000Y-120945000D03*
X320715000Y-131105000D03*
%TD*%
%TO.C,R59*%
X109300000Y-135875000D03*
X119460000Y-135875000D03*
%TD*%
%TO.C,R52*%
X151400000Y-127530000D03*
X151400000Y-117370000D03*
%TD*%
D31*
%TO.C,R60*%
X150719000Y-132200000D03*
D32*
X153335200Y-132200000D03*
X155951400Y-132200000D03*
X158567600Y-132200000D03*
X161183800Y-132200000D03*
X163800000Y-132200000D03*
X166416200Y-132200000D03*
X169032400Y-132200000D03*
X171648600Y-132200000D03*
X174264800Y-132200000D03*
%TD*%
D12*
%TO.C,C15*%
X308865000Y-147145000D03*
X308865000Y-152145000D03*
%TD*%
%TO.C,C16*%
X323825000Y-159025000D03*
X323825000Y-154025000D03*
%TD*%
D18*
%TO.C,U9*%
X266632500Y-207565000D03*
D12*
X266632500Y-210105000D03*
X266632500Y-212645000D03*
X266632500Y-215185000D03*
X266632500Y-217725000D03*
X266632500Y-220265000D03*
X266632500Y-222805000D03*
X266632500Y-225345000D03*
X266632500Y-227885000D03*
X266632500Y-230425000D03*
X266632500Y-232965000D03*
X266632500Y-235505000D03*
X266632500Y-238045000D03*
X266632500Y-240585000D03*
X266632500Y-243125000D03*
X266632500Y-245665000D03*
X281872500Y-245665000D03*
X281872500Y-243125000D03*
X281872500Y-240585000D03*
X281872500Y-238045000D03*
X281872500Y-235505000D03*
X281872500Y-232965000D03*
X281872500Y-230425000D03*
X281872500Y-227885000D03*
X281872500Y-225345000D03*
X281872500Y-222805000D03*
X281872500Y-220265000D03*
X281872500Y-217725000D03*
X281872500Y-215185000D03*
X281872500Y-212645000D03*
X281872500Y-210105000D03*
X281872500Y-207565000D03*
%TD*%
%TO.C,C23*%
X244880000Y-118025000D03*
X249880000Y-118025000D03*
%TD*%
%TO.C,R57*%
X182550000Y-102970000D03*
X182550000Y-113130000D03*
%TD*%
%TO.C,C10*%
X239865000Y-147145000D03*
X239865000Y-152145000D03*
%TD*%
%TO.C,C30*%
X329400000Y-207695000D03*
X324400000Y-207695000D03*
%TD*%
D33*
%TO.C,Y2*%
X278830000Y-129575000D03*
X278830000Y-124575000D03*
%TD*%
D12*
%TO.C,R58*%
X160125000Y-103345000D03*
X160125000Y-113505000D03*
%TD*%
D10*
%TO.C,J9*%
X199945000Y-111150000D03*
D11*
X202485000Y-111150000D03*
X205025000Y-111150000D03*
X207565000Y-111150000D03*
X210105000Y-111150000D03*
X212645000Y-111150000D03*
%TD*%
D34*
%TO.C,J2*%
X233210000Y-109080000D03*
X233210000Y-106540000D03*
X235242000Y-106540000D03*
X237401000Y-106540000D03*
X239560000Y-106540000D03*
X239560000Y-109080000D03*
D35*
X243370000Y-104000000D03*
D36*
X236385000Y-103492000D03*
D35*
X229400000Y-104000000D03*
%TD*%
D12*
%TO.C,C36*%
X173225000Y-125400000D03*
X178225000Y-125400000D03*
%TD*%
%TO.C,C13*%
X285765000Y-147145000D03*
X285765000Y-152145000D03*
%TD*%
D17*
%TO.C,TP13*%
X224678571Y-274075000D03*
%TD*%
D12*
%TO.C,R26*%
X336450000Y-120990000D03*
X336450000Y-131150000D03*
%TD*%
D23*
%TO.C,C3*%
X315575000Y-262644888D03*
D12*
X315575000Y-265144888D03*
%TD*%
D17*
%TO.C,TP10*%
X265275000Y-262425000D03*
%TD*%
D12*
%TO.C,R5*%
X277400000Y-268260000D03*
X277400000Y-258100000D03*
%TD*%
D17*
%TO.C,TP12*%
X215657143Y-274075000D03*
%TD*%
D12*
%TO.C,R22*%
X340380000Y-120990000D03*
X340380000Y-131150000D03*
%TD*%
D15*
%TO.C,H9*%
X243015000Y-196470000D03*
X243564175Y-195144175D03*
X243564175Y-197795825D03*
X244890000Y-194595000D03*
D16*
X244890000Y-196470000D03*
D15*
X244890000Y-198345000D03*
X246215825Y-195144175D03*
X246215825Y-197795825D03*
X246765000Y-196470000D03*
%TD*%
D18*
%TO.C,U11*%
X289605000Y-207565000D03*
D12*
X289605000Y-210105000D03*
X289605000Y-212645000D03*
X289605000Y-215185000D03*
X289605000Y-217725000D03*
X289605000Y-220265000D03*
X289605000Y-222805000D03*
X289605000Y-225345000D03*
X289605000Y-227885000D03*
X289605000Y-230425000D03*
X289605000Y-232965000D03*
X289605000Y-235505000D03*
X289605000Y-238045000D03*
X289605000Y-240585000D03*
X289605000Y-243125000D03*
X289605000Y-245665000D03*
X304845000Y-245665000D03*
X304845000Y-243125000D03*
X304845000Y-240585000D03*
X304845000Y-238045000D03*
X304845000Y-235505000D03*
X304845000Y-232965000D03*
X304845000Y-230425000D03*
X304845000Y-227885000D03*
X304845000Y-225345000D03*
X304845000Y-222805000D03*
X304845000Y-220265000D03*
X304845000Y-217725000D03*
X304845000Y-215185000D03*
X304845000Y-212645000D03*
X304845000Y-210105000D03*
X304845000Y-207565000D03*
%TD*%
%TO.C,C9*%
X240005000Y-207445000D03*
X240005000Y-212445000D03*
%TD*%
D15*
%TO.C,H2*%
X353225000Y-105500000D03*
X353774175Y-104174175D03*
X353774175Y-106825825D03*
X355100000Y-103625000D03*
D16*
X355100000Y-105500000D03*
D15*
X355100000Y-107375000D03*
X356425825Y-104174175D03*
X356425825Y-106825825D03*
X356975000Y-105500000D03*
%TD*%
D12*
%TO.C,R41*%
X328590000Y-131150000D03*
X328590000Y-120990000D03*
%TD*%
%TO.C,R14*%
X300215000Y-125515000D03*
X300215000Y-115355000D03*
%TD*%
%TO.C,R9*%
X212300000Y-124120000D03*
X212300000Y-134280000D03*
%TD*%
%TO.C,C24*%
X131075000Y-121800000D03*
X131075000Y-126800000D03*
%TD*%
D10*
%TO.C,TP2*%
X260764286Y-273805000D03*
%TD*%
D12*
%TO.C,C6*%
X212815000Y-147395000D03*
X207815000Y-147395000D03*
%TD*%
%TO.C,C11*%
X262815000Y-147145000D03*
X262815000Y-152145000D03*
%TD*%
D26*
%TO.C,Y4*%
X167165000Y-232620000D03*
D12*
X174785000Y-232620000D03*
X174785000Y-225000000D03*
X167165000Y-225000000D03*
%TD*%
D18*
%TO.C,U15*%
X137320000Y-118665000D03*
D12*
X137320000Y-121205000D03*
X137320000Y-123745000D03*
X137320000Y-126285000D03*
X144940000Y-126285000D03*
X144940000Y-123745000D03*
X144940000Y-121205000D03*
X144940000Y-118665000D03*
%TD*%
D17*
%TO.C,TP7*%
X238210714Y-262425000D03*
%TD*%
%TO.C,TP5*%
X220167857Y-262425000D03*
%TD*%
D12*
%TO.C,C25*%
X156900000Y-121025000D03*
X156900000Y-123525000D03*
%TD*%
%TO.C,R3*%
X105300000Y-164650000D03*
X105300000Y-174810000D03*
%TD*%
D17*
%TO.C,TP3*%
X202125000Y-262425000D03*
%TD*%
D12*
%TO.C,R16*%
X294495000Y-109450000D03*
X304655000Y-109450000D03*
%TD*%
D17*
%TO.C,TP6*%
X229189286Y-262425000D03*
%TD*%
D12*
%TO.C,R42*%
X312855000Y-131105000D03*
X312855000Y-120945000D03*
%TD*%
D13*
%TO.C,U17*%
X335540000Y-169505000D03*
D14*
X335540000Y-172045000D03*
X333000000Y-169505000D03*
X333000000Y-172045000D03*
X330460000Y-169505000D03*
X330460000Y-172045000D03*
X327920000Y-169505000D03*
X327920000Y-172045000D03*
X325380000Y-169505000D03*
X325380000Y-172045000D03*
X322840000Y-169505000D03*
X320300000Y-172045000D03*
X322840000Y-172045000D03*
X320300000Y-174585000D03*
X322840000Y-174585000D03*
X320300000Y-177125000D03*
X322840000Y-177125000D03*
X320300000Y-179665000D03*
X322840000Y-179665000D03*
X320300000Y-182205000D03*
X322840000Y-182205000D03*
X320300000Y-184745000D03*
X322840000Y-184745000D03*
X320300000Y-187285000D03*
X322840000Y-187285000D03*
X320300000Y-189825000D03*
X322840000Y-189825000D03*
X320300000Y-192365000D03*
X322840000Y-192365000D03*
X320300000Y-194905000D03*
X322840000Y-194905000D03*
X320300000Y-197445000D03*
X322840000Y-199985000D03*
X322840000Y-197445000D03*
X325380000Y-199985000D03*
X325380000Y-197445000D03*
X327920000Y-199985000D03*
X327920000Y-197445000D03*
X330460000Y-199985000D03*
X330460000Y-197445000D03*
X333000000Y-199985000D03*
X333000000Y-197445000D03*
X335540000Y-199985000D03*
X335540000Y-197445000D03*
X338080000Y-199985000D03*
X338080000Y-197445000D03*
X340620000Y-199985000D03*
X340620000Y-197445000D03*
X343160000Y-199985000D03*
X343160000Y-197445000D03*
X345700000Y-199985000D03*
X345700000Y-197445000D03*
X348240000Y-199985000D03*
X350780000Y-197445000D03*
X348240000Y-197445000D03*
X350780000Y-194905000D03*
X348240000Y-194905000D03*
X350780000Y-192365000D03*
X348240000Y-192365000D03*
X350780000Y-189825000D03*
X348240000Y-189825000D03*
X350780000Y-187285000D03*
X348240000Y-187285000D03*
X350780000Y-184745000D03*
X348240000Y-184745000D03*
X350780000Y-182205000D03*
X348240000Y-182205000D03*
X350780000Y-179665000D03*
X348240000Y-179665000D03*
X350780000Y-177125000D03*
X348240000Y-177125000D03*
X350780000Y-174585000D03*
X348240000Y-174585000D03*
X350780000Y-172045000D03*
X348240000Y-169505000D03*
X348240000Y-172045000D03*
X345700000Y-169505000D03*
X345700000Y-172045000D03*
X343160000Y-169505000D03*
X343160000Y-172045000D03*
X340620000Y-169505000D03*
X340620000Y-172045000D03*
X338080000Y-169505000D03*
X338080000Y-172045000D03*
%TD*%
D18*
%TO.C,U1*%
X115165000Y-153510000D03*
D12*
X115165000Y-156050000D03*
X115165000Y-158590000D03*
X115165000Y-161130000D03*
X115165000Y-163670000D03*
X115165000Y-166210000D03*
X115165000Y-168750000D03*
X115165000Y-171290000D03*
X115165000Y-173830000D03*
X115165000Y-176370000D03*
X115165000Y-178910000D03*
X115165000Y-181450000D03*
X115165000Y-183990000D03*
X115165000Y-186530000D03*
X115165000Y-189070000D03*
X115165000Y-191610000D03*
X115165000Y-194150000D03*
X115165000Y-196690000D03*
X115165000Y-199230000D03*
X115165000Y-201770000D03*
X115165000Y-204310000D03*
X115165000Y-206850000D03*
X115165000Y-209390000D03*
X115165000Y-211930000D03*
X115165000Y-214470000D03*
X115165000Y-217010000D03*
X115165000Y-219550000D03*
X115165000Y-222090000D03*
X115165000Y-224630000D03*
X115165000Y-227170000D03*
X115165000Y-229710000D03*
X115165000Y-232250000D03*
X138025000Y-232250000D03*
X138025000Y-229710000D03*
X138025000Y-227170000D03*
X138025000Y-224630000D03*
X138025000Y-222090000D03*
X138025000Y-219550000D03*
X138025000Y-217010000D03*
X138025000Y-214470000D03*
X138025000Y-211930000D03*
X138025000Y-209390000D03*
X138025000Y-206850000D03*
X138025000Y-204310000D03*
X138025000Y-201770000D03*
X138025000Y-199230000D03*
X138025000Y-196690000D03*
X138025000Y-194150000D03*
X138025000Y-191610000D03*
X138025000Y-189070000D03*
X138025000Y-186530000D03*
X138025000Y-183990000D03*
X138025000Y-181450000D03*
X138025000Y-178910000D03*
X138025000Y-176370000D03*
X138025000Y-173830000D03*
X138025000Y-171290000D03*
X138025000Y-168750000D03*
X138025000Y-166210000D03*
X138025000Y-163670000D03*
X138025000Y-161130000D03*
X138025000Y-158590000D03*
X138025000Y-156050000D03*
X138025000Y-153510000D03*
%TD*%
D37*
%TO.C,J7*%
X175650000Y-103525000D03*
X169150000Y-103525000D03*
D38*
X172150000Y-102425000D03*
D39*
X173750000Y-110525000D03*
X168550000Y-107425000D03*
X170550000Y-110525000D03*
%TD*%
D12*
%TO.C,R31*%
X316785000Y-120945000D03*
X316785000Y-131105000D03*
%TD*%
%TO.C,C17*%
X171650000Y-169825000D03*
X166650000Y-169825000D03*
%TD*%
D18*
%TO.C,U4*%
X220747500Y-147495000D03*
D12*
X220747500Y-150035000D03*
X220747500Y-152575000D03*
X220747500Y-155115000D03*
X220747500Y-157655000D03*
X220747500Y-160195000D03*
X220747500Y-162735000D03*
X220747500Y-165275000D03*
X220747500Y-167815000D03*
X220747500Y-170355000D03*
X220747500Y-172895000D03*
X220747500Y-175435000D03*
X220747500Y-177975000D03*
X220747500Y-180515000D03*
X220747500Y-183055000D03*
X220747500Y-185595000D03*
X235987500Y-185595000D03*
X235987500Y-183055000D03*
X235987500Y-180515000D03*
X235987500Y-177975000D03*
X235987500Y-175435000D03*
X235987500Y-172895000D03*
X235987500Y-170355000D03*
X235987500Y-167815000D03*
X235987500Y-165275000D03*
X235987500Y-162735000D03*
X235987500Y-160195000D03*
X235987500Y-157655000D03*
X235987500Y-155115000D03*
X235987500Y-152575000D03*
X235987500Y-150035000D03*
X235987500Y-147495000D03*
%TD*%
%TO.C,R7*%
X222745000Y-117750000D03*
X232905000Y-117750000D03*
%TD*%
D40*
%TO.C,J6*%
X281931000Y-104250000D03*
D41*
X281931000Y-108750000D03*
%TD*%
D12*
%TO.C,R33*%
X160915000Y-223670000D03*
X160915000Y-233830000D03*
%TD*%
%TO.C,R25*%
X332520000Y-120990000D03*
X332520000Y-131150000D03*
%TD*%
D18*
%TO.C,U3*%
X197715000Y-212645000D03*
D12*
X197715000Y-215185000D03*
X197715000Y-217725000D03*
X197715000Y-220265000D03*
X197715000Y-222805000D03*
X197715000Y-225345000D03*
X197715000Y-227885000D03*
X197715000Y-230425000D03*
X197715000Y-232965000D03*
X197715000Y-235505000D03*
X197715000Y-238045000D03*
X197715000Y-240585000D03*
X197715000Y-243125000D03*
X197715000Y-245665000D03*
X212955000Y-245665000D03*
X212955000Y-243125000D03*
X212955000Y-240585000D03*
X212955000Y-238045000D03*
X212955000Y-235505000D03*
X212955000Y-232965000D03*
X212955000Y-230425000D03*
X212955000Y-227885000D03*
X212955000Y-225345000D03*
X212955000Y-222805000D03*
X212955000Y-220265000D03*
X212955000Y-217725000D03*
X212955000Y-215185000D03*
X212955000Y-212645000D03*
%TD*%
%TO.C,C22*%
X277780000Y-135335000D03*
X280280000Y-135335000D03*
%TD*%
D34*
%TO.C,J4*%
X256042000Y-109132000D03*
X256042000Y-106592000D03*
X258074000Y-106592000D03*
X260233000Y-106592000D03*
X262392000Y-106592000D03*
X262392000Y-109132000D03*
D35*
X266202000Y-104052000D03*
D36*
X259217000Y-103544000D03*
D35*
X252232000Y-104052000D03*
%TD*%
M02*
