%TF.GenerationSoftware,KiCad,Pcbnew,9.0.7*%
%TF.CreationDate,2026-02-16T22:56:35-08:00*%
%TF.ProjectId,board,626f6172-642e-46b6-9963-61645f706362,rev?*%
%TF.SameCoordinates,Original*%
%TF.FileFunction,Copper,L4,Bot*%
%TF.FilePolarity,Positive*%
%FSLAX46Y46*%
G04 Gerber Fmt 4.6, Leading zero omitted, Abs format (unit mm)*
G04 Created by KiCad (PCBNEW 9.0.7) date 2026-02-16 22:56:35*
%MOMM*%
%LPD*%
G01*
G04 APERTURE LIST*
G04 Aperture macros list*
%AMRoundRect*
0 Rectangle with rounded corners*
0 $1 Rounding radius*
0 $2 $3 $4 $5 $6 $7 $8 $9 X,Y pos of 4 corners*
0 Add a 4 corners polygon primitive as box body*
4,1,4,$2,$3,$4,$5,$6,$7,$8,$9,$2,$3,0*
0 Add four circle primitives for the rounded corners*
1,1,$1+$1,$2,$3*
1,1,$1+$1,$4,$5*
1,1,$1+$1,$6,$7*
1,1,$1+$1,$8,$9*
0 Add four rect primitives between the rounded corners*
20,1,$1+$1,$2,$3,$4,$5,0*
20,1,$1+$1,$4,$5,$6,$7,0*
20,1,$1+$1,$6,$7,$8,$9,0*
20,1,$1+$1,$8,$9,$2,$3,0*%
G04 Aperture macros list end*
%TA.AperFunction,ComponentPad*%
%ADD10R,1.700000X1.700000*%
%TD*%
%TA.AperFunction,ComponentPad*%
%ADD11C,1.700000*%
%TD*%
%TA.AperFunction,ComponentPad*%
%ADD12C,1.600000*%
%TD*%
%TA.AperFunction,ComponentPad*%
%ADD13R,1.422400X1.422400*%
%TD*%
%TA.AperFunction,ComponentPad*%
%ADD14C,1.422400*%
%TD*%
%TA.AperFunction,ComponentPad*%
%ADD15C,0.800000*%
%TD*%
%TA.AperFunction,ComponentPad*%
%ADD16C,5.000000*%
%TD*%
%TA.AperFunction,ComponentPad*%
%ADD17C,2.000000*%
%TD*%
%TA.AperFunction,ComponentPad*%
%ADD18RoundRect,0.250000X-0.550000X-0.550000X0.550000X-0.550000X0.550000X0.550000X-0.550000X0.550000X0*%
%TD*%
%TA.AperFunction,ComponentPad*%
%ADD19RoundRect,0.250000X0.550000X-0.550000X0.550000X0.550000X-0.550000X0.550000X-0.550000X-0.550000X0*%
%TD*%
%TA.AperFunction,ComponentPad*%
%ADD20R,1.061000X1.061000*%
%TD*%
%TA.AperFunction,ComponentPad*%
%ADD21C,1.061000*%
%TD*%
%TA.AperFunction,ComponentPad*%
%ADD22C,2.972000*%
%TD*%
%TA.AperFunction,ComponentPad*%
%ADD23RoundRect,0.250000X-0.550000X0.550000X-0.550000X-0.550000X0.550000X-0.550000X0.550000X0.550000X0*%
%TD*%
%TA.AperFunction,ComponentPad*%
%ADD24R,1.800000X1.800000*%
%TD*%
%TA.AperFunction,ComponentPad*%
%ADD25C,1.800000*%
%TD*%
%TA.AperFunction,ComponentPad*%
%ADD26R,1.600000X1.600000*%
%TD*%
%TA.AperFunction,ComponentPad*%
%ADD27R,1.508000X1.508000*%
%TD*%
%TA.AperFunction,ComponentPad*%
%ADD28C,1.508000*%
%TD*%
%TA.AperFunction,ComponentPad*%
%ADD29C,4.216000*%
%TD*%
%TA.AperFunction,ComponentPad*%
%ADD30R,2.000000X2.000000*%
%TD*%
%TA.AperFunction,ComponentPad*%
%ADD31R,1.320800X1.320800*%
%TD*%
%TA.AperFunction,ComponentPad*%
%ADD32C,1.320800*%
%TD*%
%TA.AperFunction,ComponentPad*%
%ADD33C,1.500000*%
%TD*%
%TA.AperFunction,ComponentPad*%
%ADD34C,1.371600*%
%TD*%
%TA.AperFunction,ComponentPad*%
%ADD35R,2.169160X3.200400*%
%TD*%
%TA.AperFunction,ComponentPad*%
%ADD36R,3.200400X1.998980*%
%TD*%
%TA.AperFunction,ComponentPad*%
%ADD37O,2.300000X1.150000*%
%TD*%
%TA.AperFunction,ComponentPad*%
%ADD38O,1.150000X2.300000*%
%TD*%
%TA.AperFunction,ComponentPad*%
%ADD39O,3.900000X1.950000*%
%TD*%
%TA.AperFunction,ComponentPad*%
%ADD40O,1.700000X3.400000*%
%TD*%
%TA.AperFunction,ViaPad*%
%ADD41C,0.800000*%
%TD*%
%TA.AperFunction,Conductor*%
%ADD42C,0.250000*%
%TD*%
G04 APERTURE END LIST*
D10*
%TO.P,J5,1,Pin_1*%
%TO.N,OBVID_TDI*%
X350025000Y-147865000D03*
D11*
%TO.P,J5,2,Pin_2*%
%TO.N,JTAG_TDO*%
X350025000Y-145325000D03*
%TD*%
D12*
%TO.P,C12,1*%
%TO.N,+5V*%
X262755000Y-207095000D03*
%TO.P,C12,2*%
%TO.N,GND*%
X262755000Y-212095000D03*
%TD*%
%TO.P,R12,1*%
%TO.N,VGA_BLUE*%
X352175000Y-120945000D03*
%TO.P,R12,2*%
%TO.N,VGA_B0*%
X352175000Y-131105000D03*
%TD*%
%TO.P,C4,1*%
%TO.N,+5V*%
X111450000Y-186375000D03*
%TO.P,C4,2*%
%TO.N,GND*%
X111450000Y-191375000D03*
%TD*%
%TO.P,R21,1*%
%TO.N,VGA_BLUE*%
X348245000Y-120945000D03*
%TO.P,R21,2*%
%TO.N,VGA_B1*%
X348245000Y-131105000D03*
%TD*%
D13*
%TO.P,U12,1,INPUT/GCLR*%
%TO.N,~{OBVID_IRQ}*%
X171975000Y-176585000D03*
D14*
%TO.P,U12,2,INPUT/OE2/GCLK2*%
%TO.N,Net-(U12-INPUT{slash}OE2{slash}GCLK2)*%
X171975000Y-179125000D03*
%TO.P,U12,3,VCCINT*%
%TO.N,+5V*%
X169435000Y-176585000D03*
%TO.P,U12,4,I/O*%
%TO.N,~{ROM_SELECT}*%
X169435000Y-179125000D03*
%TO.P,U12,5,I/O*%
%TO.N,~{RAM_SELECT_1}*%
X166895000Y-176585000D03*
%TO.P,U12,6,I/O*%
%TO.N,~{RAM_SELECT_2}*%
X166895000Y-179125000D03*
%TO.P,U12,7,GND*%
%TO.N,GND*%
X164355000Y-176585000D03*
%TO.P,U12,8,I/O*%
%TO.N,~{RAM_SELECT_3}*%
X164355000Y-179125000D03*
%TO.P,U12,9,I/O*%
%TO.N,~{RAM_SELECT_4}*%
X161815000Y-176585000D03*
%TO.P,U12,10,I/O*%
%TO.N,~{WRITE_LO}*%
X161815000Y-179125000D03*
%TO.P,U12,11,I/O*%
%TO.N,~{WRITE_HI}*%
X159275000Y-176585000D03*
%TO.P,U12,12,I/O/PD1*%
%TO.N,~{IO_SELECT_MOSI}*%
X156735000Y-179125000D03*
%TO.P,U12,13,VCCIO*%
%TO.N,+5V*%
X159275000Y-179125000D03*
%TO.P,U12,14,I/O/TDI*%
%TO.N,JTAG_TDI*%
X156735000Y-181665000D03*
%TO.P,U12,15,I/O*%
%TO.N,~{ENGINE_SELECT}*%
X159275000Y-181665000D03*
%TO.P,U12,16,I/O*%
%TO.N,~{IO_DTACK_MISO}*%
X156735000Y-184205000D03*
%TO.P,U12,17,I/O*%
%TO.N,~{ENGINE_DTACK}*%
X159275000Y-184205000D03*
%TO.P,U12,18,I/O*%
%TO.N,~{IO_IRQ}*%
X156735000Y-186745000D03*
%TO.P,U12,19,GND*%
%TO.N,GND*%
X159275000Y-186745000D03*
%TO.P,U12,20,I/O*%
%TO.N,~{ENGINE_IRQ}*%
X156735000Y-189285000D03*
%TO.P,U12,21,I/O*%
%TO.N,~{IO_IACK_SCK}*%
X159275000Y-189285000D03*
%TO.P,U12,22,I/O*%
%TO.N,D5*%
X156735000Y-191825000D03*
%TO.P,U12,23,I/O/TMS*%
%TO.N,JTAG_TMS*%
X159275000Y-191825000D03*
%TO.P,U12,24,I/O*%
%TO.N,D3*%
X156735000Y-194365000D03*
%TO.P,U12,25,I/O*%
%TO.N,D7*%
X159275000Y-194365000D03*
%TO.P,U12,26,VCCIO*%
%TO.N,+5V*%
X156735000Y-196905000D03*
%TO.P,U12,27,I/O*%
%TO.N,D1*%
X159275000Y-196905000D03*
%TO.P,U12,28,I/O*%
%TO.N,~{UDS}*%
X156735000Y-199445000D03*
%TO.P,U12,29,I/O*%
%TO.N,~{LDS}*%
X159275000Y-199445000D03*
%TO.P,U12,30,I/O*%
%TO.N,~{DTACK}*%
X156735000Y-201985000D03*
%TO.P,U12,31,I/O*%
%TO.N,A23*%
X159275000Y-201985000D03*
%TO.P,U12,32,GND*%
%TO.N,GND*%
X156735000Y-204525000D03*
%TO.P,U12,33,I/O*%
%TO.N,A20*%
X159275000Y-207065000D03*
%TO.P,U12,34,I/O*%
%TO.N,CPUCLK*%
X159275000Y-204525000D03*
%TO.P,U12,35,I/O*%
%TO.N,A19*%
X161815000Y-207065000D03*
%TO.P,U12,36,I/O*%
%TO.N,~{HALT}*%
X161815000Y-204525000D03*
%TO.P,U12,37,I/O*%
%TO.N,~{RESET}*%
X164355000Y-207065000D03*
%TO.P,U12,38,VCCIO*%
%TO.N,+5V*%
X164355000Y-204525000D03*
%TO.P,U12,39,I/O*%
%TO.N,ENGINE_TCK*%
X166895000Y-207065000D03*
%TO.P,U12,40,I/O*%
%TO.N,ENGINE_TDI*%
X166895000Y-204525000D03*
%TO.P,U12,41,I/O*%
%TO.N,ENGINE_TDO*%
X169435000Y-207065000D03*
%TO.P,U12,42,GND*%
%TO.N,GND*%
X169435000Y-204525000D03*
%TO.P,U12,43,VCCINT*%
%TO.N,+5V*%
X171975000Y-207065000D03*
%TO.P,U12,44,I/O*%
%TO.N,~{BERR}*%
X171975000Y-204525000D03*
%TO.P,U12,45,I/O/PD2*%
%TO.N,~{IPL1}*%
X174515000Y-207065000D03*
%TO.P,U12,46,I/O*%
%TO.N,~{IPL2}*%
X174515000Y-204525000D03*
%TO.P,U12,47,GND*%
%TO.N,GND*%
X177055000Y-207065000D03*
%TO.P,U12,48,I/O*%
%TO.N,~{IPL0}*%
X177055000Y-204525000D03*
%TO.P,U12,49,I/O*%
%TO.N,FC1*%
X179595000Y-207065000D03*
%TO.P,U12,50,I/O*%
%TO.N,FC2*%
X179595000Y-204525000D03*
%TO.P,U12,51,I/O*%
%TO.N,A1*%
X182135000Y-207065000D03*
%TO.P,U12,52,I/O*%
%TO.N,FC0*%
X182135000Y-204525000D03*
%TO.P,U12,53,VCCIO*%
%TO.N,+5V*%
X184675000Y-207065000D03*
%TO.P,U12,54,I/O*%
%TO.N,A3*%
X187215000Y-204525000D03*
%TO.P,U12,55,I/O*%
%TO.N,A2*%
X184675000Y-204525000D03*
%TO.P,U12,56,I/O*%
%TO.N,A21*%
X187215000Y-201985000D03*
%TO.P,U12,57,I/O*%
%TO.N,A22*%
X184675000Y-201985000D03*
%TO.P,U12,58,I/O*%
%TO.N,R{slash}~{W}*%
X187215000Y-199445000D03*
%TO.P,U12,59,GND*%
%TO.N,GND*%
X184675000Y-199445000D03*
%TO.P,U12,60,I/O*%
%TO.N,~{AS}*%
X187215000Y-196905000D03*
%TO.P,U12,61,I/O*%
%TO.N,D0*%
X184675000Y-196905000D03*
%TO.P,U12,62,I/O/TCK*%
%TO.N,JTAG_TCK*%
X187215000Y-194365000D03*
%TO.P,U12,63,I/O*%
%TO.N,D2*%
X184675000Y-194365000D03*
%TO.P,U12,64,I/O*%
%TO.N,D6*%
X187215000Y-191825000D03*
%TO.P,U12,65,I/O*%
%TO.N,D4*%
X184675000Y-191825000D03*
%TO.P,U12,66,VCCIO*%
%TO.N,+5V*%
X187215000Y-189285000D03*
%TO.P,U12,67,I/O*%
%TO.N,DEBUG_OUT*%
X184675000Y-189285000D03*
%TO.P,U12,68,I/O*%
%TO.N,AUDIO_LE*%
X187215000Y-186745000D03*
%TO.P,U12,69,I/O*%
%TO.N,IO_RESET*%
X184675000Y-186745000D03*
%TO.P,U12,70,I/O*%
%TO.N,ENGINE_TMS*%
X187215000Y-184205000D03*
%TO.P,U12,71,I/O/TDO*%
%TO.N,OBVID_TDI*%
X184675000Y-184205000D03*
%TO.P,U12,72,GND*%
%TO.N,GND*%
X187215000Y-181665000D03*
%TO.P,U12,73,I/O*%
%TO.N,~{R}{slash}W*%
X184675000Y-181665000D03*
%TO.P,U12,74,I/O*%
%TO.N,~{OBVID_SELECT}*%
X187215000Y-179125000D03*
%TO.P,U12,75,I/O*%
%TO.N,~{ENGINE_IACK}*%
X184675000Y-176585000D03*
%TO.P,U12,76,I/O*%
%TO.N,~{CF_CS0}*%
X184675000Y-179125000D03*
%TO.P,U12,77,I/O*%
%TO.N,~{CF_CS1}*%
X182135000Y-176585000D03*
%TO.P,U12,78,VCCIO*%
%TO.N,+5V*%
X182135000Y-179125000D03*
%TO.P,U12,79,I/O*%
%TO.N,A4*%
X179595000Y-176585000D03*
%TO.P,U12,80,I/O*%
%TO.N,A5*%
X179595000Y-179125000D03*
%TO.P,U12,81,I/O/GCLK3*%
%TO.N,A6*%
X177055000Y-176585000D03*
%TO.P,U12,82,GND*%
%TO.N,GND*%
X177055000Y-179125000D03*
%TO.P,U12,83,INPUT/GCLK1*%
%TO.N,DEBUG_IN*%
X174515000Y-176585000D03*
%TO.P,U12,84,INPUT/OE1*%
%TO.N,OBVID_STALL*%
X174515000Y-179125000D03*
%TD*%
D15*
%TO.P,H1,1,1*%
%TO.N,GND*%
X103625000Y-105500000D03*
X104174175Y-104174175D03*
X104174175Y-106825825D03*
X105500000Y-103625000D03*
D16*
X105500000Y-105500000D03*
D15*
X105500000Y-107375000D03*
X106825825Y-104174175D03*
X106825825Y-106825825D03*
X107375000Y-105500000D03*
%TD*%
D17*
%TO.P,TP15,1,1*%
%TO.N,~{RAM_SELECT_1}*%
X242721429Y-274075000D03*
%TD*%
D18*
%TO.P,U8,1,A18*%
%TO.N,A19*%
X266692500Y-147495000D03*
D12*
%TO.P,U8,2,A16*%
%TO.N,A17*%
X266692500Y-150035000D03*
%TO.P,U8,3,A14*%
%TO.N,A15*%
X266692500Y-152575000D03*
%TO.P,U8,4,A12*%
%TO.N,A13*%
X266692500Y-155115000D03*
%TO.P,U8,5,A7*%
%TO.N,A8*%
X266692500Y-157655000D03*
%TO.P,U8,6,A6*%
%TO.N,A7*%
X266692500Y-160195000D03*
%TO.P,U8,7,A5*%
%TO.N,A6*%
X266692500Y-162735000D03*
%TO.P,U8,8,A4*%
%TO.N,A5*%
X266692500Y-165275000D03*
%TO.P,U8,9,A3*%
%TO.N,A4*%
X266692500Y-167815000D03*
%TO.P,U8,10,A2*%
%TO.N,A3*%
X266692500Y-170355000D03*
%TO.P,U8,11,A1*%
%TO.N,A2*%
X266692500Y-172895000D03*
%TO.P,U8,12,A0*%
%TO.N,A1*%
X266692500Y-175435000D03*
%TO.P,U8,13,DQ0*%
%TO.N,D0*%
X266692500Y-177975000D03*
%TO.P,U8,14,DQ1*%
%TO.N,D1*%
X266692500Y-180515000D03*
%TO.P,U8,15,DQ2*%
%TO.N,D2*%
X266692500Y-183055000D03*
%TO.P,U8,16,VSS*%
%TO.N,GND*%
X266692500Y-185595000D03*
%TO.P,U8,17,DQ3*%
%TO.N,D3*%
X281932500Y-185595000D03*
%TO.P,U8,18,DQ4*%
%TO.N,D4*%
X281932500Y-183055000D03*
%TO.P,U8,19,DQ5*%
%TO.N,D5*%
X281932500Y-180515000D03*
%TO.P,U8,20,DQ6*%
%TO.N,D6*%
X281932500Y-177975000D03*
%TO.P,U8,21,DQ7*%
%TO.N,D7*%
X281932500Y-175435000D03*
%TO.P,U8,22,CE#*%
%TO.N,~{RAM_SELECT_3}*%
X281932500Y-172895000D03*
%TO.P,U8,23,A10*%
%TO.N,A11*%
X281932500Y-170355000D03*
%TO.P,U8,24,OE#*%
%TO.N,GND*%
X281932500Y-167815000D03*
%TO.P,U8,25,A11*%
%TO.N,A12*%
X281932500Y-165275000D03*
%TO.P,U8,26,A9*%
%TO.N,A10*%
X281932500Y-162735000D03*
%TO.P,U8,27,A8*%
%TO.N,A9*%
X281932500Y-160195000D03*
%TO.P,U8,28,A13*%
%TO.N,A14*%
X281932500Y-157655000D03*
%TO.P,U8,29,WE#*%
%TO.N,~{WRITE_LO}*%
X281932500Y-155115000D03*
%TO.P,U8,30,A17*%
%TO.N,A18*%
X281932500Y-152575000D03*
%TO.P,U8,31,A15*%
%TO.N,A16*%
X281932500Y-150035000D03*
%TO.P,U8,32,VCC*%
%TO.N,+5V*%
X281932500Y-147495000D03*
%TD*%
D19*
%TO.P,U16,1,P1.0*%
%TO.N,unconnected-(U16-P1.0-Pad1)*%
X220990000Y-136815000D03*
D12*
%TO.P,U16,2,P1.1*%
%TO.N,unconnected-(U16-P1.1-Pad2)*%
X223530000Y-136815000D03*
%TO.P,U16,3,P1.2*%
%TO.N,unconnected-(U16-P1.2-Pad3)*%
X226070000Y-136815000D03*
%TO.P,U16,4,P1.3*%
%TO.N,unconnected-(U16-P1.3-Pad4)*%
X228610000Y-136815000D03*
%TO.P,U16,5,P1.4*%
%TO.N,unconnected-(U16-P1.4-Pad5)*%
X231150000Y-136815000D03*
%TO.P,U16,6,P1.5*%
%TO.N,~{IO_SELECT_MOSI}*%
X233690000Y-136815000D03*
%TO.P,U16,7,P1.6*%
%TO.N,~{IO_DTACK_MISO}*%
X236230000Y-136815000D03*
%TO.P,U16,8,P1.7/SCK*%
%TO.N,~{IO_IACK_SCK}*%
X238770000Y-136815000D03*
%TO.P,U16,9,RST*%
%TO.N,IO_RESET*%
X241310000Y-136815000D03*
%TO.P,U16,10,P3.0*%
%TO.N,UART_TX*%
X243850000Y-136815000D03*
%TO.P,U16,11,P3.1*%
%TO.N,UART_RX*%
X246390000Y-136815000D03*
%TO.P,U16,12,P3.2*%
%TO.N,KBD_DATA*%
X248930000Y-136815000D03*
%TO.P,U16,13,P3.3*%
%TO.N,KBD_CLK*%
X251470000Y-136815000D03*
%TO.P,U16,14,P3.4*%
%TO.N,MOUSE_DATA*%
X254010000Y-136815000D03*
%TO.P,U16,15,P3.5*%
%TO.N,MOUSE_CLK*%
X256550000Y-136815000D03*
%TO.P,U16,16,P3.6*%
%TO.N,R{slash}~{W}*%
X259090000Y-136815000D03*
%TO.P,U16,17,P3.7*%
%TO.N,unconnected-(U16-P3.7-Pad17)*%
X261630000Y-136815000D03*
%TO.P,U16,18,XTAL2*%
%TO.N,Net-(U16-XTAL2)*%
X264170000Y-136815000D03*
%TO.P,U16,19,XTAL1*%
%TO.N,Net-(U16-XTAL1)*%
X266710000Y-136815000D03*
%TO.P,U16,20,GND*%
%TO.N,GND*%
X269250000Y-136815000D03*
%TO.P,U16,21,P2.0/A8*%
%TO.N,D0*%
X269250000Y-121575000D03*
%TO.P,U16,22,P2.1/A9*%
%TO.N,D1*%
X266710000Y-121575000D03*
%TO.P,U16,23,P2.2/A10*%
%TO.N,D2*%
X264170000Y-121575000D03*
%TO.P,U16,24,P2.3/A11*%
%TO.N,D3*%
X261630000Y-121575000D03*
%TO.P,U16,25,P2.4/A12*%
%TO.N,D4*%
X259090000Y-121575000D03*
%TO.P,U16,26,P2.5/A13*%
%TO.N,D5*%
X256550000Y-121575000D03*
%TO.P,U16,27,P2.6/A14*%
%TO.N,D6*%
X254010000Y-121575000D03*
%TO.P,U16,28,P2.7/A15*%
%TO.N,D7*%
X251470000Y-121575000D03*
%TO.P,U16,29,~{PSEN}*%
%TO.N,unconnected-(U16-~{PSEN}-Pad29)*%
X248930000Y-121575000D03*
%TO.P,U16,30,ALE*%
%TO.N,unconnected-(U16-ALE-Pad30)*%
X246390000Y-121575000D03*
%TO.P,U16,31,~{EA}/V_{pp}*%
%TO.N,+5V*%
X243850000Y-121575000D03*
%TO.P,U16,32,P0.7/AD7*%
%TO.N,unconnected-(U16-P0.7{slash}AD7-Pad32)*%
X241310000Y-121575000D03*
%TO.P,U16,33,P0.6/AD6*%
%TO.N,unconnected-(U16-P0.6{slash}AD6-Pad33)*%
X238770000Y-121575000D03*
%TO.P,U16,34,P0.5/AD5*%
%TO.N,~{IO_IRQ}*%
X236230000Y-121575000D03*
%TO.P,U16,35,P0.4/AD4*%
%TO.N,A5*%
X233690000Y-121575000D03*
%TO.P,U16,36,P0.3/AD3*%
%TO.N,A4*%
X231150000Y-121575000D03*
%TO.P,U16,37,P0.2/AD2*%
%TO.N,A3*%
X228610000Y-121575000D03*
%TO.P,U16,38,P0.1/AD1*%
%TO.N,A2*%
X226070000Y-121575000D03*
%TO.P,U16,39,P0.0/AD0*%
%TO.N,A1*%
X223530000Y-121575000D03*
%TO.P,U16,40,V_{cc}*%
%TO.N,+5V*%
X220990000Y-121575000D03*
%TD*%
D20*
%TO.P,J8,01,GND*%
%TO.N,GND*%
X149898000Y-250669000D03*
D21*
%TO.P,J8,02,D03*%
%TO.N,D3*%
X151168000Y-250669000D03*
%TO.P,J8,03,D04*%
%TO.N,D4*%
X152438000Y-250669000D03*
%TO.P,J8,04,D05*%
%TO.N,D5*%
X153708000Y-250669000D03*
%TO.P,J8,05,D06*%
%TO.N,D6*%
X154978000Y-250669000D03*
%TO.P,J8,06,D07*%
%TO.N,D7*%
X156248000Y-250669000D03*
%TO.P,J8,07,-CE1*%
%TO.N,~{CF_CS1}*%
X157518000Y-250669000D03*
%TO.P,J8,08,A10*%
%TO.N,GND*%
X158788000Y-250669000D03*
%TO.P,J8,09,-OE*%
X160058000Y-250669000D03*
%TO.P,J8,10,A09*%
X161328000Y-250669000D03*
%TO.P,J8,11,A08*%
X162598000Y-250669000D03*
%TO.P,J8,12,A07*%
X163868000Y-250669000D03*
%TO.P,J8,13,VCC*%
%TO.N,+5V*%
X165138000Y-250669000D03*
%TO.P,J8,14,A06*%
%TO.N,GND*%
X166408000Y-250669000D03*
%TO.P,J8,15,A05*%
X167678000Y-250669000D03*
%TO.P,J8,16,A04*%
X168948000Y-250669000D03*
%TO.P,J8,17,A03*%
%TO.N,A4*%
X170218000Y-250669000D03*
%TO.P,J8,18,A02*%
%TO.N,A3*%
X171488000Y-250669000D03*
%TO.P,J8,19,A01*%
%TO.N,A2*%
X172758000Y-250669000D03*
%TO.P,J8,20,A00*%
%TO.N,A1*%
X174028000Y-250669000D03*
%TO.P,J8,21,D00*%
%TO.N,D0*%
X175298000Y-250669000D03*
%TO.P,J8,22,D01*%
%TO.N,D1*%
X176568000Y-250669000D03*
%TO.P,J8,23,D02*%
%TO.N,D2*%
X177838000Y-250669000D03*
%TO.P,J8,24,WP*%
%TO.N,unconnected-(J8-WP-Pad24)*%
X179108000Y-250669000D03*
%TO.P,J8,25,-CD2*%
%TO.N,unconnected-(J8--CD2-Pad25)*%
X180378000Y-250669000D03*
%TO.P,J8,26,-CD1*%
%TO.N,unconnected-(J8--CD1-Pad26)*%
X149898000Y-253844000D03*
%TO.P,J8,27,D111*%
%TO.N,unconnected-(J8-D111-Pad27)*%
X151168000Y-253844000D03*
%TO.P,J8,28,D121*%
%TO.N,unconnected-(J8-D121-Pad28)*%
X152438000Y-253844000D03*
%TO.P,J8,29,D131*%
%TO.N,unconnected-(J8-D131-Pad29)*%
X153708000Y-253844000D03*
%TO.P,J8,30,D141*%
%TO.N,unconnected-(J8-D141-Pad30)*%
X154978000Y-253844000D03*
%TO.P,J8,31,D151*%
%TO.N,unconnected-(J8-D151-Pad31)*%
X156248000Y-253844000D03*
%TO.P,J8,32,-CE21*%
%TO.N,~{CF_CS0}*%
X157518000Y-253844000D03*
%TO.P,J8,33,-VS1*%
%TO.N,unconnected-(J8--VS1-Pad33)*%
X158788000Y-253844000D03*
%TO.P,J8,34,-IORD*%
%TO.N,~{R}{slash}W*%
X160058000Y-253844000D03*
%TO.P,J8,35,-IOWR*%
%TO.N,R{slash}~{W}*%
X161328000Y-253844000D03*
%TO.P,J8,36,-WE*%
%TO.N,+5V*%
X162598000Y-253844000D03*
%TO.P,J8,37,READY*%
%TO.N,unconnected-(J8-READY-Pad37)*%
X163868000Y-253844000D03*
%TO.P,J8,38,VCC*%
%TO.N,+5V*%
X165138000Y-253844000D03*
%TO.P,J8,39,-CSEL5*%
%TO.N,GND*%
X166408000Y-253844000D03*
%TO.P,J8,40,-VS2*%
%TO.N,unconnected-(J8--VS2-Pad40)*%
X167678000Y-253844000D03*
%TO.P,J8,41,RESET*%
%TO.N,~{RESET}*%
X168948000Y-253844000D03*
%TO.P,J8,42,-WAIT*%
%TO.N,unconnected-(J8--WAIT-Pad42)*%
X170218000Y-253844000D03*
%TO.P,J8,43,-INPACK*%
%TO.N,unconnected-(J8--INPACK-Pad43)*%
X171488000Y-253844000D03*
%TO.P,J8,44,-REG*%
%TO.N,unconnected-(J8--REG-Pad44)*%
X172758000Y-253844000D03*
%TO.P,J8,45,BVD2*%
%TO.N,unconnected-(J8-BVD2-Pad45)*%
X174028000Y-253844000D03*
%TO.P,J8,46,BVD1*%
%TO.N,unconnected-(J8-BVD1-Pad46)*%
X175298000Y-253844000D03*
%TO.P,J8,47,D081*%
%TO.N,unconnected-(J8-D081-Pad47)*%
X176568000Y-253844000D03*
%TO.P,J8,48,D091*%
%TO.N,unconnected-(J8-D091-Pad48)*%
X177838000Y-253844000D03*
%TO.P,J8,49,D101*%
%TO.N,unconnected-(J8-D101-Pad49)*%
X179108000Y-253844000D03*
%TO.P,J8,50,GND*%
%TO.N,GND*%
X180378000Y-253844000D03*
D22*
%TO.P,J8,S1,S1*%
%TO.N,unconnected-(J8-PadS1)*%
X143751000Y-258543000D03*
%TO.P,J8,S2,S2*%
%TO.N,S2*%
X186525000Y-258543000D03*
%TO.P,J8,S3,S3*%
%TO.N,S3*%
X143751000Y-279625000D03*
%TO.P,J8,S4,S4*%
%TO.N,S4*%
X186525000Y-279625000D03*
%TD*%
D12*
%TO.P,C14,1*%
%TO.N,+5V*%
X285855000Y-207245000D03*
%TO.P,C14,2*%
%TO.N,GND*%
X285855000Y-212245000D03*
%TD*%
D18*
%TO.P,U2,1,A15*%
%TO.N,A16*%
X197775000Y-152575000D03*
D12*
%TO.P,U2,2,A12*%
%TO.N,A13*%
X197775000Y-155115000D03*
%TO.P,U2,3,A7*%
%TO.N,A8*%
X197775000Y-157655000D03*
%TO.P,U2,4,A6*%
%TO.N,A7*%
X197775000Y-160195000D03*
%TO.P,U2,5,A5*%
%TO.N,A6*%
X197775000Y-162735000D03*
%TO.P,U2,6,A4*%
%TO.N,A5*%
X197775000Y-165275000D03*
%TO.P,U2,7,A3*%
%TO.N,A4*%
X197775000Y-167815000D03*
%TO.P,U2,8,A2*%
%TO.N,A3*%
X197775000Y-170355000D03*
%TO.P,U2,9,A1*%
%TO.N,A2*%
X197775000Y-172895000D03*
%TO.P,U2,10,A0*%
%TO.N,A1*%
X197775000Y-175435000D03*
%TO.P,U2,11,D0*%
%TO.N,D0*%
X197775000Y-177975000D03*
%TO.P,U2,12,D1*%
%TO.N,D1*%
X197775000Y-180515000D03*
%TO.P,U2,13,D2*%
%TO.N,D2*%
X197775000Y-183055000D03*
%TO.P,U2,14,GND*%
%TO.N,GND*%
X197775000Y-185595000D03*
%TO.P,U2,15,D3*%
%TO.N,D3*%
X213015000Y-185595000D03*
%TO.P,U2,16,D4*%
%TO.N,D4*%
X213015000Y-183055000D03*
%TO.P,U2,17,D5*%
%TO.N,D5*%
X213015000Y-180515000D03*
%TO.P,U2,18,D6*%
%TO.N,D6*%
X213015000Y-177975000D03*
%TO.P,U2,19,D7*%
%TO.N,D7*%
X213015000Y-175435000D03*
%TO.P,U2,20,~{CE}*%
%TO.N,~{ROM_SELECT}*%
X213015000Y-172895000D03*
%TO.P,U2,21,A10*%
%TO.N,A11*%
X213015000Y-170355000D03*
%TO.P,U2,22,~{OE}*%
%TO.N,~{LDS}*%
X213015000Y-167815000D03*
%TO.P,U2,23,A11*%
%TO.N,A12*%
X213015000Y-165275000D03*
%TO.P,U2,24,A9*%
%TO.N,A10*%
X213015000Y-162735000D03*
%TO.P,U2,25,A8*%
%TO.N,A9*%
X213015000Y-160195000D03*
%TO.P,U2,26,A13*%
%TO.N,A14*%
X213015000Y-157655000D03*
%TO.P,U2,27,A14*%
%TO.N,A15*%
X213015000Y-155115000D03*
%TO.P,U2,28,VCC*%
%TO.N,+5V*%
X213015000Y-152575000D03*
%TD*%
%TO.P,R40,1*%
%TO.N,GND*%
X344315000Y-131105000D03*
%TO.P,R40,2*%
%TO.N,VGA_BLUE*%
X344315000Y-120945000D03*
%TD*%
D17*
%TO.P,TP14,1,1*%
%TO.N,~{ROM_SELECT}*%
X233700000Y-274075000D03*
%TD*%
D18*
%TO.P,U5,1,A18*%
%TO.N,A19*%
X220687500Y-207565000D03*
D12*
%TO.P,U5,2,A16*%
%TO.N,A17*%
X220687500Y-210105000D03*
%TO.P,U5,3,A14*%
%TO.N,A15*%
X220687500Y-212645000D03*
%TO.P,U5,4,A12*%
%TO.N,A13*%
X220687500Y-215185000D03*
%TO.P,U5,5,A7*%
%TO.N,A8*%
X220687500Y-217725000D03*
%TO.P,U5,6,A6*%
%TO.N,A7*%
X220687500Y-220265000D03*
%TO.P,U5,7,A5*%
%TO.N,A6*%
X220687500Y-222805000D03*
%TO.P,U5,8,A4*%
%TO.N,A5*%
X220687500Y-225345000D03*
%TO.P,U5,9,A3*%
%TO.N,A4*%
X220687500Y-227885000D03*
%TO.P,U5,10,A2*%
%TO.N,A3*%
X220687500Y-230425000D03*
%TO.P,U5,11,A1*%
%TO.N,A2*%
X220687500Y-232965000D03*
%TO.P,U5,12,A0*%
%TO.N,A1*%
X220687500Y-235505000D03*
%TO.P,U5,13,DQ0*%
%TO.N,D8*%
X220687500Y-238045000D03*
%TO.P,U5,14,DQ1*%
%TO.N,D9*%
X220687500Y-240585000D03*
%TO.P,U5,15,DQ2*%
%TO.N,D10*%
X220687500Y-243125000D03*
%TO.P,U5,16,VSS*%
%TO.N,GND*%
X220687500Y-245665000D03*
%TO.P,U5,17,DQ3*%
%TO.N,D11*%
X235927500Y-245665000D03*
%TO.P,U5,18,DQ4*%
%TO.N,D12*%
X235927500Y-243125000D03*
%TO.P,U5,19,DQ5*%
%TO.N,D13*%
X235927500Y-240585000D03*
%TO.P,U5,20,DQ6*%
%TO.N,D14*%
X235927500Y-238045000D03*
%TO.P,U5,21,DQ7*%
%TO.N,D15*%
X235927500Y-235505000D03*
%TO.P,U5,22,CE#*%
%TO.N,~{RAM_SELECT_1}*%
X235927500Y-232965000D03*
%TO.P,U5,23,A10*%
%TO.N,A11*%
X235927500Y-230425000D03*
%TO.P,U5,24,OE#*%
%TO.N,GND*%
X235927500Y-227885000D03*
%TO.P,U5,25,A11*%
%TO.N,A12*%
X235927500Y-225345000D03*
%TO.P,U5,26,A9*%
%TO.N,A10*%
X235927500Y-222805000D03*
%TO.P,U5,27,A8*%
%TO.N,A9*%
X235927500Y-220265000D03*
%TO.P,U5,28,A13*%
%TO.N,A14*%
X235927500Y-217725000D03*
%TO.P,U5,29,WE#*%
%TO.N,~{WRITE_HI}*%
X235927500Y-215185000D03*
%TO.P,U5,30,A17*%
%TO.N,A18*%
X235927500Y-212645000D03*
%TO.P,U5,31,A15*%
%TO.N,A16*%
X235927500Y-210105000D03*
%TO.P,U5,32,VCC*%
%TO.N,+5V*%
X235927500Y-207565000D03*
%TD*%
%TO.P,R19,1*%
%TO.N,Net-(U12-INPUT{slash}OE2{slash}GCLK2)*%
X176945000Y-162675000D03*
%TO.P,R19,2*%
%TO.N,GND*%
X187105000Y-162675000D03*
%TD*%
%TO.P,C18,1*%
%TO.N,+5V*%
X317830000Y-254420000D03*
%TO.P,C18,2*%
%TO.N,GND*%
X322830000Y-254420000D03*
%TD*%
D13*
%TO.P,U13,1,INPUT/GCLR*%
%TO.N,~{RESET}*%
X335280000Y-218130000D03*
D14*
%TO.P,U13,2,INPUT/OE2/GCLK2*%
%TO.N,unconnected-(U13-INPUT{slash}OE2{slash}GCLK2-Pad2)*%
X335280000Y-220670000D03*
%TO.P,U13,3,VCCINT*%
%TO.N,+5V*%
X332740000Y-218130000D03*
%TO.P,U13,4,I/O*%
%TO.N,~{ENGINE_DTACK}*%
X332740000Y-220670000D03*
%TO.P,U13,5,I/O*%
%TO.N,~{ENGINE_IRQ}*%
X330200000Y-218130000D03*
%TO.P,U13,6,I/O*%
%TO.N,~{ENGINE_IACK}*%
X330200000Y-220670000D03*
%TO.P,U13,7,GND*%
%TO.N,GND*%
X327660000Y-218130000D03*
%TO.P,U13,8,I/O*%
%TO.N,unconnected-(U13-I{slash}O-Pad8)*%
X327660000Y-220670000D03*
%TO.P,U13,9,I/O*%
%TO.N,unconnected-(U13-I{slash}O-Pad9)*%
X325120000Y-218130000D03*
%TO.P,U13,10,I/O*%
%TO.N,unconnected-(U13-I{slash}O-Pad10)*%
X325120000Y-220670000D03*
%TO.P,U13,11,I/O*%
%TO.N,D5*%
X322580000Y-218130000D03*
%TO.P,U13,12,I/O/PD1*%
%TO.N,D4*%
X320040000Y-220670000D03*
%TO.P,U13,13,VCCIO*%
%TO.N,+5V*%
X322580000Y-220670000D03*
%TO.P,U13,14,I/O/TDI*%
%TO.N,ENGINE_TDI*%
X320040000Y-223210000D03*
%TO.P,U13,15,I/O*%
%TO.N,D3*%
X322580000Y-223210000D03*
%TO.P,U13,16,I/O*%
%TO.N,D8*%
X320040000Y-225750000D03*
%TO.P,U13,17,I/O*%
%TO.N,D2*%
X322580000Y-225750000D03*
%TO.P,U13,18,I/O*%
%TO.N,D0*%
X320040000Y-228290000D03*
%TO.P,U13,19,GND*%
%TO.N,GND*%
X322580000Y-228290000D03*
%TO.P,U13,20,I/O*%
%TO.N,D11*%
X320040000Y-230830000D03*
%TO.P,U13,21,I/O*%
%TO.N,~{AS}*%
X322580000Y-230830000D03*
%TO.P,U13,22,I/O*%
%TO.N,~{UDS}*%
X320040000Y-233370000D03*
%TO.P,U13,23,I/O/TMS*%
%TO.N,ENGINE_TMS*%
X322580000Y-233370000D03*
%TO.P,U13,24,I/O*%
%TO.N,D13*%
X320040000Y-235910000D03*
%TO.P,U13,25,I/O*%
%TO.N,R{slash}~{W}*%
X322580000Y-235910000D03*
%TO.P,U13,26,VCCIO*%
%TO.N,+5V*%
X320040000Y-238450000D03*
%TO.P,U13,27,I/O*%
%TO.N,D15*%
X322580000Y-238450000D03*
%TO.P,U13,28,I/O*%
%TO.N,A21*%
X320040000Y-240990000D03*
%TO.P,U13,29,I/O*%
%TO.N,A12*%
X322580000Y-240990000D03*
%TO.P,U13,30,I/O*%
%TO.N,A19*%
X320040000Y-243530000D03*
%TO.P,U13,31,I/O*%
%TO.N,A18*%
X322580000Y-243530000D03*
%TO.P,U13,32,GND*%
%TO.N,GND*%
X320040000Y-246070000D03*
%TO.P,U13,33,I/O*%
%TO.N,FC0*%
X322580000Y-248610000D03*
%TO.P,U13,34,I/O*%
%TO.N,FC1*%
X322580000Y-246070000D03*
%TO.P,U13,35,I/O*%
%TO.N,FC2*%
X325120000Y-248610000D03*
%TO.P,U13,36,I/O*%
%TO.N,A13*%
X325120000Y-246070000D03*
%TO.P,U13,37,I/O*%
%TO.N,A11*%
X327660000Y-248610000D03*
%TO.P,U13,38,VCCIO*%
%TO.N,+5V*%
X327660000Y-246070000D03*
%TO.P,U13,39,I/O*%
%TO.N,A10*%
X330200000Y-248610000D03*
%TO.P,U13,40,I/O*%
%TO.N,unconnected-(U13-I{slash}O-Pad40)*%
X330200000Y-246070000D03*
%TO.P,U13,41,I/O*%
%TO.N,unconnected-(U13-I{slash}O-Pad41)*%
X332740000Y-248610000D03*
%TO.P,U13,42,GND*%
%TO.N,GND*%
X332740000Y-246070000D03*
%TO.P,U13,43,VCCINT*%
%TO.N,+5V*%
X335280000Y-248610000D03*
%TO.P,U13,44,I/O*%
%TO.N,A9*%
X335280000Y-246070000D03*
%TO.P,U13,45,I/O/PD2*%
%TO.N,A8*%
X337820000Y-248610000D03*
%TO.P,U13,46,I/O*%
%TO.N,unconnected-(U13-I{slash}O-Pad46)*%
X337820000Y-246070000D03*
%TO.P,U13,47,GND*%
%TO.N,GND*%
X340360000Y-248610000D03*
%TO.P,U13,48,I/O*%
%TO.N,A1*%
X340360000Y-246070000D03*
%TO.P,U13,49,I/O*%
%TO.N,A2*%
X342900000Y-248610000D03*
%TO.P,U13,50,I/O*%
%TO.N,A7*%
X342900000Y-246070000D03*
%TO.P,U13,51,I/O*%
%TO.N,A3*%
X345440000Y-248610000D03*
%TO.P,U13,52,I/O*%
%TO.N,A6*%
X345440000Y-246070000D03*
%TO.P,U13,53,VCCIO*%
%TO.N,+5V*%
X347980000Y-248610000D03*
%TO.P,U13,54,I/O*%
%TO.N,A4*%
X350520000Y-246070000D03*
%TO.P,U13,55,I/O*%
%TO.N,A5*%
X347980000Y-246070000D03*
%TO.P,U13,56,I/O*%
%TO.N,A16*%
X350520000Y-243530000D03*
%TO.P,U13,57,I/O*%
%TO.N,A17*%
X347980000Y-243530000D03*
%TO.P,U13,58,I/O*%
%TO.N,A20*%
X350520000Y-240990000D03*
%TO.P,U13,59,GND*%
%TO.N,GND*%
X347980000Y-240990000D03*
%TO.P,U13,60,I/O*%
%TO.N,A22*%
X350520000Y-238450000D03*
%TO.P,U13,61,I/O*%
%TO.N,A23*%
X347980000Y-238450000D03*
%TO.P,U13,62,I/O/TCK*%
%TO.N,ENGINE_TCK*%
X350520000Y-235910000D03*
%TO.P,U13,63,I/O*%
%TO.N,D14*%
X347980000Y-235910000D03*
%TO.P,U13,64,I/O*%
%TO.N,~{LDS}*%
X350520000Y-233370000D03*
%TO.P,U13,65,I/O*%
%TO.N,D12*%
X347980000Y-233370000D03*
%TO.P,U13,66,VCCIO*%
%TO.N,+5V*%
X350520000Y-230830000D03*
%TO.P,U13,67,I/O*%
%TO.N,D10*%
X347980000Y-230830000D03*
%TO.P,U13,68,I/O*%
%TO.N,D1*%
X350520000Y-228290000D03*
%TO.P,U13,69,I/O*%
%TO.N,D9*%
X347980000Y-228290000D03*
%TO.P,U13,70,I/O*%
%TO.N,D7*%
X350520000Y-225750000D03*
%TO.P,U13,71,I/O/TDO*%
%TO.N,ENGINE_TDO*%
X347980000Y-225750000D03*
%TO.P,U13,72,GND*%
%TO.N,GND*%
X350520000Y-223210000D03*
%TO.P,U13,73,I/O*%
%TO.N,D6*%
X347980000Y-223210000D03*
%TO.P,U13,74,I/O*%
%TO.N,A15*%
X350520000Y-220670000D03*
%TO.P,U13,75,I/O*%
%TO.N,A14*%
X347980000Y-218130000D03*
%TO.P,U13,76,I/O*%
%TO.N,~{BG}*%
X347980000Y-220670000D03*
%TO.P,U13,77,I/O*%
%TO.N,~{BGACK}*%
X345440000Y-218130000D03*
%TO.P,U13,78,VCCIO*%
%TO.N,+5V*%
X345440000Y-220670000D03*
%TO.P,U13,79,I/O*%
%TO.N,~{BR}*%
X342900000Y-218130000D03*
%TO.P,U13,80,I/O*%
%TO.N,unconnected-(U13-I{slash}O-Pad80)*%
X342900000Y-220670000D03*
%TO.P,U13,81,I/O/GCLK3*%
%TO.N,~{DTACK}*%
X340360000Y-218130000D03*
%TO.P,U13,82,GND*%
%TO.N,GND*%
X340360000Y-220670000D03*
%TO.P,U13,83,INPUT/GCLK1*%
%TO.N,CPUCLK*%
X337820000Y-218130000D03*
%TO.P,U13,84,INPUT/OE1*%
%TO.N,~{ENGINE_SELECT}*%
X337820000Y-220670000D03*
%TD*%
D12*
%TO.P,R23,1*%
%TO.N,VGA_RED*%
X324645000Y-120945000D03*
%TO.P,R23,2*%
%TO.N,VGA_R0*%
X324645000Y-131105000D03*
%TD*%
D11*
%TO.P,SW1,1,1*%
%TO.N,GND*%
X314420000Y-278125000D03*
X307920000Y-278125000D03*
%TO.P,SW1,2,2*%
%TO.N,~{RESET}*%
X314420000Y-273625000D03*
X307920000Y-273625000D03*
%TD*%
D12*
%TO.P,R6,1*%
%TO.N,+5V*%
X105300000Y-209910000D03*
%TO.P,R6,2*%
%TO.N,Net-(U1-~{VPA})*%
X105300000Y-199750000D03*
%TD*%
%TO.P,R15,1*%
%TO.N,CPST_PIXEL*%
X294495000Y-105400000D03*
%TO.P,R15,2*%
%TO.N,Net-(C35-Pad1)*%
X304655000Y-105400000D03*
%TD*%
D18*
%TO.P,C1,1*%
%TO.N,+5V*%
X122950000Y-116600000D03*
D12*
%TO.P,C1,2*%
%TO.N,GND*%
X125450000Y-116600000D03*
%TD*%
D18*
%TO.P,U10,1,A18*%
%TO.N,A19*%
X289665000Y-147495000D03*
D12*
%TO.P,U10,2,A16*%
%TO.N,A17*%
X289665000Y-150035000D03*
%TO.P,U10,3,A14*%
%TO.N,A15*%
X289665000Y-152575000D03*
%TO.P,U10,4,A12*%
%TO.N,A13*%
X289665000Y-155115000D03*
%TO.P,U10,5,A7*%
%TO.N,A8*%
X289665000Y-157655000D03*
%TO.P,U10,6,A6*%
%TO.N,A7*%
X289665000Y-160195000D03*
%TO.P,U10,7,A5*%
%TO.N,A6*%
X289665000Y-162735000D03*
%TO.P,U10,8,A4*%
%TO.N,A5*%
X289665000Y-165275000D03*
%TO.P,U10,9,A3*%
%TO.N,A4*%
X289665000Y-167815000D03*
%TO.P,U10,10,A2*%
%TO.N,A3*%
X289665000Y-170355000D03*
%TO.P,U10,11,A1*%
%TO.N,A2*%
X289665000Y-172895000D03*
%TO.P,U10,12,A0*%
%TO.N,A1*%
X289665000Y-175435000D03*
%TO.P,U10,13,DQ0*%
%TO.N,D0*%
X289665000Y-177975000D03*
%TO.P,U10,14,DQ1*%
%TO.N,D1*%
X289665000Y-180515000D03*
%TO.P,U10,15,DQ2*%
%TO.N,D2*%
X289665000Y-183055000D03*
%TO.P,U10,16,VSS*%
%TO.N,GND*%
X289665000Y-185595000D03*
%TO.P,U10,17,DQ3*%
%TO.N,D3*%
X304905000Y-185595000D03*
%TO.P,U10,18,DQ4*%
%TO.N,D4*%
X304905000Y-183055000D03*
%TO.P,U10,19,DQ5*%
%TO.N,D5*%
X304905000Y-180515000D03*
%TO.P,U10,20,DQ6*%
%TO.N,D6*%
X304905000Y-177975000D03*
%TO.P,U10,21,DQ7*%
%TO.N,D7*%
X304905000Y-175435000D03*
%TO.P,U10,22,CE#*%
%TO.N,~{RAM_SELECT_4}*%
X304905000Y-172895000D03*
%TO.P,U10,23,A10*%
%TO.N,A11*%
X304905000Y-170355000D03*
%TO.P,U10,24,OE#*%
%TO.N,GND*%
X304905000Y-167815000D03*
%TO.P,U10,25,A11*%
%TO.N,A12*%
X304905000Y-165275000D03*
%TO.P,U10,26,A9*%
%TO.N,A10*%
X304905000Y-162735000D03*
%TO.P,U10,27,A8*%
%TO.N,A9*%
X304905000Y-160195000D03*
%TO.P,U10,28,A13*%
%TO.N,A14*%
X304905000Y-157655000D03*
%TO.P,U10,29,WE#*%
%TO.N,~{WRITE_LO}*%
X304905000Y-155115000D03*
%TO.P,U10,30,A17*%
%TO.N,A18*%
X304905000Y-152575000D03*
%TO.P,U10,31,A15*%
%TO.N,A16*%
X304905000Y-150035000D03*
%TO.P,U10,32,VCC*%
%TO.N,+5V*%
X304905000Y-147495000D03*
%TD*%
D15*
%TO.P,H3,1,1*%
%TO.N,GND*%
X353225000Y-280075000D03*
X353774175Y-278749175D03*
X353774175Y-281400825D03*
X355100000Y-278200000D03*
D16*
X355100000Y-280075000D03*
D15*
X355100000Y-281950000D03*
X356425825Y-278749175D03*
X356425825Y-281400825D03*
X356975000Y-280075000D03*
%TD*%
D12*
%TO.P,C8,1*%
%TO.N,+5V*%
X309005000Y-207095000D03*
%TO.P,C8,2*%
%TO.N,GND*%
X309005000Y-212095000D03*
%TD*%
D23*
%TO.P,U23,1,OE*%
%TO.N,GND*%
X173895000Y-137175000D03*
D12*
%TO.P,U23,2,O0*%
%TO.N,AUDIO0*%
X171355000Y-137175000D03*
%TO.P,U23,3,D0*%
%TO.N,D0*%
X168815000Y-137175000D03*
%TO.P,U23,4,D1*%
%TO.N,D1*%
X166275000Y-137175000D03*
%TO.P,U23,5,O1*%
%TO.N,AUDIO1*%
X163735000Y-137175000D03*
%TO.P,U23,6,O2*%
%TO.N,AUDIO2*%
X161195000Y-137175000D03*
%TO.P,U23,7,D2*%
%TO.N,D2*%
X158655000Y-137175000D03*
%TO.P,U23,8,D3*%
%TO.N,D3*%
X156115000Y-137175000D03*
%TO.P,U23,9,O3*%
%TO.N,AUDIO3*%
X153575000Y-137175000D03*
%TO.P,U23,10,GND*%
%TO.N,GND*%
X151035000Y-137175000D03*
%TO.P,U23,11,LE*%
%TO.N,AUDIO_LE*%
X151035000Y-144795000D03*
%TO.P,U23,12,O4*%
%TO.N,AUDIO4*%
X153575000Y-144795000D03*
%TO.P,U23,13,D4*%
%TO.N,D4*%
X156115000Y-144795000D03*
%TO.P,U23,14,D5*%
%TO.N,D5*%
X158655000Y-144795000D03*
%TO.P,U23,15,O5*%
%TO.N,AUDIO5*%
X161195000Y-144795000D03*
%TO.P,U23,16,O6*%
%TO.N,AUDIO6*%
X163735000Y-144795000D03*
%TO.P,U23,17,D6*%
%TO.N,D6*%
X166275000Y-144795000D03*
%TO.P,U23,18,D7*%
%TO.N,D7*%
X168815000Y-144795000D03*
%TO.P,U23,19,O7*%
%TO.N,AUDIO7*%
X171355000Y-144795000D03*
%TO.P,U23,20,VCC*%
%TO.N,+5V*%
X173895000Y-144795000D03*
%TD*%
D24*
%TO.P,D1,1,K*%
%TO.N,Net-(D1-K)*%
X294515000Y-275875000D03*
D25*
%TO.P,D1,2,A*%
%TO.N,+5V*%
X291975000Y-275875000D03*
%TD*%
D26*
%TO.P,Y1,1,EN*%
%TO.N,CPST_CLK_ENB*%
X337650000Y-160300000D03*
D12*
%TO.P,Y1,4,GND*%
%TO.N,GND*%
X337650000Y-152680000D03*
%TO.P,Y1,5,OUT*%
%TO.N,PIXEL_CLK*%
X330030000Y-152680000D03*
%TO.P,Y1,8,Vcc*%
%TO.N,+5V*%
X330030000Y-160300000D03*
%TD*%
D19*
%TO.P,C35,1*%
%TO.N,Net-(C35-Pad1)*%
X289825000Y-121050000D03*
D12*
%TO.P,C35,2*%
%TO.N,Net-(C35-Pad2)*%
X289825000Y-118550000D03*
%TD*%
%TO.P,R56,1*%
%TO.N,DEBUG_IN*%
X177070000Y-168850000D03*
%TO.P,R56,2*%
%TO.N,GND*%
X187230000Y-168850000D03*
%TD*%
D10*
%TO.P,TP1,1,1*%
%TO.N,DEBUG_IN*%
X251742857Y-273805000D03*
%TD*%
D18*
%TO.P,U6,1,A18*%
%TO.N,A19*%
X243720000Y-147495000D03*
D12*
%TO.P,U6,2,A16*%
%TO.N,A17*%
X243720000Y-150035000D03*
%TO.P,U6,3,A14*%
%TO.N,A15*%
X243720000Y-152575000D03*
%TO.P,U6,4,A12*%
%TO.N,A13*%
X243720000Y-155115000D03*
%TO.P,U6,5,A7*%
%TO.N,A8*%
X243720000Y-157655000D03*
%TO.P,U6,6,A6*%
%TO.N,A7*%
X243720000Y-160195000D03*
%TO.P,U6,7,A5*%
%TO.N,A6*%
X243720000Y-162735000D03*
%TO.P,U6,8,A4*%
%TO.N,A5*%
X243720000Y-165275000D03*
%TO.P,U6,9,A3*%
%TO.N,A4*%
X243720000Y-167815000D03*
%TO.P,U6,10,A2*%
%TO.N,A3*%
X243720000Y-170355000D03*
%TO.P,U6,11,A1*%
%TO.N,A2*%
X243720000Y-172895000D03*
%TO.P,U6,12,A0*%
%TO.N,A1*%
X243720000Y-175435000D03*
%TO.P,U6,13,DQ0*%
%TO.N,D0*%
X243720000Y-177975000D03*
%TO.P,U6,14,DQ1*%
%TO.N,D1*%
X243720000Y-180515000D03*
%TO.P,U6,15,DQ2*%
%TO.N,D2*%
X243720000Y-183055000D03*
%TO.P,U6,16,VSS*%
%TO.N,GND*%
X243720000Y-185595000D03*
%TO.P,U6,17,DQ3*%
%TO.N,D3*%
X258960000Y-185595000D03*
%TO.P,U6,18,DQ4*%
%TO.N,D4*%
X258960000Y-183055000D03*
%TO.P,U6,19,DQ5*%
%TO.N,D5*%
X258960000Y-180515000D03*
%TO.P,U6,20,DQ6*%
%TO.N,D6*%
X258960000Y-177975000D03*
%TO.P,U6,21,DQ7*%
%TO.N,D7*%
X258960000Y-175435000D03*
%TO.P,U6,22,CE#*%
%TO.N,~{RAM_SELECT_2}*%
X258960000Y-172895000D03*
%TO.P,U6,23,A10*%
%TO.N,A11*%
X258960000Y-170355000D03*
%TO.P,U6,24,OE#*%
%TO.N,GND*%
X258960000Y-167815000D03*
%TO.P,U6,25,A11*%
%TO.N,A12*%
X258960000Y-165275000D03*
%TO.P,U6,26,A9*%
%TO.N,A10*%
X258960000Y-162735000D03*
%TO.P,U6,27,A8*%
%TO.N,A9*%
X258960000Y-160195000D03*
%TO.P,U6,28,A13*%
%TO.N,A14*%
X258960000Y-157655000D03*
%TO.P,U6,29,WE#*%
%TO.N,~{WRITE_LO}*%
X258960000Y-155115000D03*
%TO.P,U6,30,A17*%
%TO.N,A18*%
X258960000Y-152575000D03*
%TO.P,U6,31,A15*%
%TO.N,A16*%
X258960000Y-150035000D03*
%TO.P,U6,32,VCC*%
%TO.N,+5V*%
X258960000Y-147495000D03*
%TD*%
%TO.P,C2,1*%
%TO.N,+5V*%
X180755000Y-226240000D03*
%TO.P,C2,2*%
%TO.N,GND*%
X180755000Y-231240000D03*
%TD*%
D17*
%TO.P,TP9,1,1*%
%TO.N,~{LDS}*%
X256253571Y-262425000D03*
%TD*%
%TO.P,TP11,1,1*%
%TO.N,FC0*%
X206635714Y-274075000D03*
%TD*%
D12*
%TO.P,R4,1*%
%TO.N,+5V*%
X105300000Y-151150000D03*
%TO.P,R4,2*%
%TO.N,~{BGACK}*%
X105300000Y-161310000D03*
%TD*%
%TO.P,C27,1*%
%TO.N,+5V*%
X323550000Y-143400000D03*
%TO.P,C27,2*%
%TO.N,GND*%
X323550000Y-138400000D03*
%TD*%
%TO.P,C21,1*%
%TO.N,Net-(U16-XTAL1)*%
X280380000Y-118475000D03*
%TO.P,C21,2*%
%TO.N,GND*%
X277880000Y-118475000D03*
%TD*%
D27*
%TO.P,J10,1,1*%
%TO.N,VGA_RED*%
X326511750Y-113977500D03*
D28*
%TO.P,J10,2,2*%
%TO.N,VGA_GREEN*%
X328791750Y-113977500D03*
%TO.P,J10,3,3*%
%TO.N,VGA_BLUE*%
X331071750Y-113977500D03*
%TO.P,J10,4,4*%
%TO.N,unconnected-(J10-Pad4)*%
X333351750Y-113977500D03*
%TO.P,J10,5,5*%
%TO.N,GND*%
X335631750Y-113977500D03*
%TO.P,J10,6,6*%
X325371750Y-111437500D03*
%TO.P,J10,7,7*%
X327651750Y-111437500D03*
%TO.P,J10,8,8*%
X329931750Y-111437500D03*
%TO.P,J10,9,9*%
%TO.N,unconnected-(J10-Pad9)*%
X332211750Y-111437500D03*
%TO.P,J10,10,10*%
%TO.N,GND*%
X334491750Y-111437500D03*
%TO.P,J10,11,11*%
%TO.N,unconnected-(J10-Pad11)*%
X326511750Y-108897500D03*
%TO.P,J10,12,12*%
%TO.N,unconnected-(J10-Pad12)*%
X328791750Y-108897500D03*
%TO.P,J10,13,13*%
%TO.N,VGA_HSYNC*%
X331071750Y-108897500D03*
%TO.P,J10,14,14*%
%TO.N,VGA_VSYNC*%
X333351750Y-108897500D03*
%TO.P,J10,15,15*%
%TO.N,unconnected-(J10-Pad15)*%
X335631750Y-108897500D03*
D29*
%TO.P,J10,S1,SHIELD*%
%TO.N,GND*%
X343311750Y-111437500D03*
%TO.P,J10,S2,SHIELD__1*%
X318321750Y-111437500D03*
%TD*%
D12*
%TO.P,R2,1*%
%TO.N,+5V*%
X306700000Y-258195000D03*
%TO.P,R2,2*%
%TO.N,~{RESET}*%
X306700000Y-268355000D03*
%TD*%
D26*
%TO.P,Y3,1,EN*%
%TO.N,VGA_CLK_ENB*%
X337725000Y-144525000D03*
D12*
%TO.P,Y3,4,GND*%
%TO.N,GND*%
X337725000Y-136905000D03*
%TO.P,Y3,5,OUT*%
%TO.N,PIXEL_CLK*%
X330105000Y-136905000D03*
%TO.P,Y3,8,Vcc*%
%TO.N,+5V*%
X330105000Y-144525000D03*
%TD*%
D10*
%TO.P,J1,1,Pin_1*%
%TO.N,GND*%
X166565000Y-155850000D03*
D11*
%TO.P,J1,2,Pin_2*%
%TO.N,JTAG_TCK*%
X164025000Y-155850000D03*
%TO.P,J1,3,Pin_3*%
%TO.N,JTAG_TDI*%
X161485000Y-155850000D03*
%TO.P,J1,4,Pin_4*%
%TO.N,JTAG_TDO*%
X158945000Y-155850000D03*
%TO.P,J1,5,Pin_5*%
%TO.N,JTAG_TMS*%
X156405000Y-155850000D03*
%TD*%
D12*
%TO.P,C7,1*%
%TO.N,+5V*%
X212855000Y-207885000D03*
%TO.P,C7,2*%
%TO.N,GND*%
X207855000Y-207885000D03*
%TD*%
D30*
%TO.P,LS1,1,1*%
%TO.N,Net-(LS1-Pad1)*%
X111250000Y-127075000D03*
D17*
%TO.P,LS1,2,2*%
%TO.N,GND*%
X117750000Y-127075000D03*
%TD*%
D12*
%TO.P,R1,1*%
%TO.N,Net-(D1-K)*%
X293275000Y-268260000D03*
%TO.P,R1,2*%
%TO.N,GND*%
X293275000Y-258100000D03*
%TD*%
D17*
%TO.P,TP4,1,1*%
%TO.N,~{RESET}*%
X211146429Y-262400000D03*
%TD*%
D12*
%TO.P,C5,1*%
%TO.N,+5V*%
X146155000Y-188990000D03*
%TO.P,C5,2*%
%TO.N,GND*%
X146155000Y-183990000D03*
%TD*%
D10*
%TO.P,J3,1,Pin_1*%
%TO.N,unconnected-(J3-Pin_1-Pad1)*%
X119725000Y-105650000D03*
D11*
%TO.P,J3,2,Pin_2*%
%TO.N,unconnected-(J3-Pin_2-Pad2)*%
X122265000Y-105650000D03*
%TO.P,J3,3,Pin_3*%
%TO.N,unconnected-(J3-Pin_3-Pad3)*%
X124805000Y-105650000D03*
%TO.P,J3,4,Pin_4*%
%TO.N,unconnected-(J3-Pin_4-Pad4)*%
X127345000Y-105650000D03*
%TO.P,J3,5,Pin_5*%
%TO.N,unconnected-(J3-Pin_5-Pad5)*%
X129885000Y-105650000D03*
%TO.P,J3,6,Pin_6*%
%TO.N,unconnected-(J3-Pin_6-Pad6)*%
X132425000Y-105650000D03*
%TO.P,J3,7,Pin_7*%
%TO.N,+5V*%
X134965000Y-105650000D03*
%TO.P,J3,8,Pin_8*%
%TO.N,GND*%
X137505000Y-105650000D03*
%TD*%
D17*
%TO.P,TP8,1,1*%
%TO.N,R{slash}~{W}*%
X247232143Y-262425000D03*
%TD*%
D12*
%TO.P,R53,1*%
%TO.N,GND*%
X180660000Y-118625000D03*
%TO.P,R53,2*%
%TO.N,Net-(C26-Pad2)*%
X170500000Y-118625000D03*
%TD*%
D18*
%TO.P,U7,1,A18*%
%TO.N,A19*%
X243660000Y-207565000D03*
D12*
%TO.P,U7,2,A16*%
%TO.N,A17*%
X243660000Y-210105000D03*
%TO.P,U7,3,A14*%
%TO.N,A15*%
X243660000Y-212645000D03*
%TO.P,U7,4,A12*%
%TO.N,A13*%
X243660000Y-215185000D03*
%TO.P,U7,5,A7*%
%TO.N,A8*%
X243660000Y-217725000D03*
%TO.P,U7,6,A6*%
%TO.N,A7*%
X243660000Y-220265000D03*
%TO.P,U7,7,A5*%
%TO.N,A6*%
X243660000Y-222805000D03*
%TO.P,U7,8,A4*%
%TO.N,A5*%
X243660000Y-225345000D03*
%TO.P,U7,9,A3*%
%TO.N,A4*%
X243660000Y-227885000D03*
%TO.P,U7,10,A2*%
%TO.N,A3*%
X243660000Y-230425000D03*
%TO.P,U7,11,A1*%
%TO.N,A2*%
X243660000Y-232965000D03*
%TO.P,U7,12,A0*%
%TO.N,A1*%
X243660000Y-235505000D03*
%TO.P,U7,13,DQ0*%
%TO.N,D8*%
X243660000Y-238045000D03*
%TO.P,U7,14,DQ1*%
%TO.N,D9*%
X243660000Y-240585000D03*
%TO.P,U7,15,DQ2*%
%TO.N,D10*%
X243660000Y-243125000D03*
%TO.P,U7,16,VSS*%
%TO.N,GND*%
X243660000Y-245665000D03*
%TO.P,U7,17,DQ3*%
%TO.N,D11*%
X258900000Y-245665000D03*
%TO.P,U7,18,DQ4*%
%TO.N,D12*%
X258900000Y-243125000D03*
%TO.P,U7,19,DQ5*%
%TO.N,D13*%
X258900000Y-240585000D03*
%TO.P,U7,20,DQ6*%
%TO.N,D14*%
X258900000Y-238045000D03*
%TO.P,U7,21,DQ7*%
%TO.N,D15*%
X258900000Y-235505000D03*
%TO.P,U7,22,CE#*%
%TO.N,~{RAM_SELECT_2}*%
X258900000Y-232965000D03*
%TO.P,U7,23,A10*%
%TO.N,A11*%
X258900000Y-230425000D03*
%TO.P,U7,24,OE#*%
%TO.N,GND*%
X258900000Y-227885000D03*
%TO.P,U7,25,A11*%
%TO.N,A12*%
X258900000Y-225345000D03*
%TO.P,U7,26,A9*%
%TO.N,A10*%
X258900000Y-222805000D03*
%TO.P,U7,27,A8*%
%TO.N,A9*%
X258900000Y-220265000D03*
%TO.P,U7,28,A13*%
%TO.N,A14*%
X258900000Y-217725000D03*
%TO.P,U7,29,WE#*%
%TO.N,~{WRITE_HI}*%
X258900000Y-215185000D03*
%TO.P,U7,30,A17*%
%TO.N,A18*%
X258900000Y-212645000D03*
%TO.P,U7,31,A15*%
%TO.N,A16*%
X258900000Y-210105000D03*
%TO.P,U7,32,VCC*%
%TO.N,+5V*%
X258900000Y-207565000D03*
%TD*%
D24*
%TO.P,D2,1,K*%
%TO.N,Net-(D2-K)*%
X278565000Y-275875000D03*
D25*
%TO.P,D2,2,A*%
%TO.N,DEBUG_OUT*%
X276025000Y-275875000D03*
%TD*%
D18*
%TO.P,C26,1*%
%TO.N,Net-(C25-Pad1)*%
X162894888Y-121950000D03*
D12*
%TO.P,C26,2*%
%TO.N,Net-(C26-Pad2)*%
X165394888Y-121950000D03*
%TD*%
D15*
%TO.P,H4,1,1*%
%TO.N,GND*%
X103625000Y-280075000D03*
X104174175Y-278749175D03*
X104174175Y-281400825D03*
X105500000Y-278200000D03*
D16*
X105500000Y-280075000D03*
D15*
X105500000Y-281950000D03*
X106825825Y-278749175D03*
X106825825Y-281400825D03*
X107375000Y-280075000D03*
%TD*%
D12*
%TO.P,R20,1*%
%TO.N,VGA_RED*%
X320715000Y-120945000D03*
%TO.P,R20,2*%
%TO.N,VGA_R1*%
X320715000Y-131105000D03*
%TD*%
%TO.P,R59,1*%
%TO.N,Net-(LS1-Pad1)*%
X109300000Y-135875000D03*
%TO.P,R59,2*%
%TO.N,Net-(J7-Pad4)*%
X119460000Y-135875000D03*
%TD*%
%TO.P,R52,1*%
%TO.N,Net-(U15A--)*%
X151400000Y-127530000D03*
%TO.P,R52,2*%
%TO.N,Net-(C25-Pad1)*%
X151400000Y-117370000D03*
%TD*%
D31*
%TO.P,R60,1*%
%TO.N,Net-(U15A-+)*%
X150719000Y-132200000D03*
D32*
%TO.P,R60,2*%
%TO.N,AUDIO7*%
X153335200Y-132200000D03*
%TO.P,R60,3*%
%TO.N,AUDIO6*%
X155951400Y-132200000D03*
%TO.P,R60,4*%
%TO.N,AUDIO5*%
X158567600Y-132200000D03*
%TO.P,R60,5*%
%TO.N,AUDIO4*%
X161183800Y-132200000D03*
%TO.P,R60,6*%
%TO.N,AUDIO3*%
X163800000Y-132200000D03*
%TO.P,R60,7*%
%TO.N,AUDIO2*%
X166416200Y-132200000D03*
%TO.P,R60,8*%
%TO.N,AUDIO1*%
X169032400Y-132200000D03*
%TO.P,R60,9*%
%TO.N,AUDIO0*%
X171648600Y-132200000D03*
%TO.P,R60,10*%
%TO.N,GND*%
X174264800Y-132200000D03*
%TD*%
D12*
%TO.P,C15,1*%
%TO.N,+5V*%
X308865000Y-147145000D03*
%TO.P,C15,2*%
%TO.N,GND*%
X308865000Y-152145000D03*
%TD*%
%TO.P,C16,1*%
%TO.N,+5V*%
X323825000Y-159025000D03*
%TO.P,C16,2*%
%TO.N,GND*%
X323825000Y-154025000D03*
%TD*%
D18*
%TO.P,U9,1,A18*%
%TO.N,A19*%
X266632500Y-207565000D03*
D12*
%TO.P,U9,2,A16*%
%TO.N,A17*%
X266632500Y-210105000D03*
%TO.P,U9,3,A14*%
%TO.N,A15*%
X266632500Y-212645000D03*
%TO.P,U9,4,A12*%
%TO.N,A13*%
X266632500Y-215185000D03*
%TO.P,U9,5,A7*%
%TO.N,A8*%
X266632500Y-217725000D03*
%TO.P,U9,6,A6*%
%TO.N,A7*%
X266632500Y-220265000D03*
%TO.P,U9,7,A5*%
%TO.N,A6*%
X266632500Y-222805000D03*
%TO.P,U9,8,A4*%
%TO.N,A5*%
X266632500Y-225345000D03*
%TO.P,U9,9,A3*%
%TO.N,A4*%
X266632500Y-227885000D03*
%TO.P,U9,10,A2*%
%TO.N,A3*%
X266632500Y-230425000D03*
%TO.P,U9,11,A1*%
%TO.N,A2*%
X266632500Y-232965000D03*
%TO.P,U9,12,A0*%
%TO.N,A1*%
X266632500Y-235505000D03*
%TO.P,U9,13,DQ0*%
%TO.N,D8*%
X266632500Y-238045000D03*
%TO.P,U9,14,DQ1*%
%TO.N,D9*%
X266632500Y-240585000D03*
%TO.P,U9,15,DQ2*%
%TO.N,D10*%
X266632500Y-243125000D03*
%TO.P,U9,16,VSS*%
%TO.N,GND*%
X266632500Y-245665000D03*
%TO.P,U9,17,DQ3*%
%TO.N,D11*%
X281872500Y-245665000D03*
%TO.P,U9,18,DQ4*%
%TO.N,D12*%
X281872500Y-243125000D03*
%TO.P,U9,19,DQ5*%
%TO.N,D13*%
X281872500Y-240585000D03*
%TO.P,U9,20,DQ6*%
%TO.N,D14*%
X281872500Y-238045000D03*
%TO.P,U9,21,DQ7*%
%TO.N,D15*%
X281872500Y-235505000D03*
%TO.P,U9,22,CE#*%
%TO.N,~{RAM_SELECT_3}*%
X281872500Y-232965000D03*
%TO.P,U9,23,A10*%
%TO.N,A11*%
X281872500Y-230425000D03*
%TO.P,U9,24,OE#*%
%TO.N,GND*%
X281872500Y-227885000D03*
%TO.P,U9,25,A11*%
%TO.N,A12*%
X281872500Y-225345000D03*
%TO.P,U9,26,A9*%
%TO.N,A10*%
X281872500Y-222805000D03*
%TO.P,U9,27,A8*%
%TO.N,A9*%
X281872500Y-220265000D03*
%TO.P,U9,28,A13*%
%TO.N,A14*%
X281872500Y-217725000D03*
%TO.P,U9,29,WE#*%
%TO.N,~{WRITE_HI}*%
X281872500Y-215185000D03*
%TO.P,U9,30,A17*%
%TO.N,A18*%
X281872500Y-212645000D03*
%TO.P,U9,31,A15*%
%TO.N,A16*%
X281872500Y-210105000D03*
%TO.P,U9,32,VCC*%
%TO.N,+5V*%
X281872500Y-207565000D03*
%TD*%
%TO.P,C23,1*%
%TO.N,+5V*%
X244880000Y-118025000D03*
%TO.P,C23,2*%
%TO.N,GND*%
X249880000Y-118025000D03*
%TD*%
%TO.P,R57,1*%
%TO.N,Net-(J7-Pad2)*%
X182550000Y-102970000D03*
%TO.P,R57,2*%
%TO.N,Net-(C26-Pad2)*%
X182550000Y-113130000D03*
%TD*%
%TO.P,C10,1*%
%TO.N,+5V*%
X239865000Y-147145000D03*
%TO.P,C10,2*%
%TO.N,GND*%
X239865000Y-152145000D03*
%TD*%
%TO.P,C30,1*%
%TO.N,+5V*%
X329400000Y-207695000D03*
%TO.P,C30,2*%
%TO.N,GND*%
X324400000Y-207695000D03*
%TD*%
D33*
%TO.P,Y2,1,1*%
%TO.N,Net-(U16-XTAL2)*%
X278830000Y-129575000D03*
%TO.P,Y2,2,2*%
%TO.N,Net-(U16-XTAL1)*%
X278830000Y-124575000D03*
%TD*%
D12*
%TO.P,R58,1*%
%TO.N,Net-(J7-Pad3)*%
X160125000Y-103345000D03*
%TO.P,R58,2*%
%TO.N,Net-(C26-Pad2)*%
X160125000Y-113505000D03*
%TD*%
D10*
%TO.P,J9,1,Pin_1*%
%TO.N,unconnected-(J9-Pin_1-Pad1)*%
X199945000Y-111150000D03*
D11*
%TO.P,J9,2,Pin_2*%
%TO.N,UART_TX*%
X202485000Y-111150000D03*
%TO.P,J9,3,Pin_3*%
%TO.N,UART_RX*%
X205025000Y-111150000D03*
%TO.P,J9,4,Pin_4*%
%TO.N,unconnected-(J9-Pin_4-Pad4)*%
X207565000Y-111150000D03*
%TO.P,J9,5,Pin_5*%
%TO.N,unconnected-(J9-Pin_5-Pad5)*%
X210105000Y-111150000D03*
%TO.P,J9,6,Pin_6*%
%TO.N,GND*%
X212645000Y-111150000D03*
%TD*%
D34*
%TO.P,J2,1*%
%TO.N,KBD_DATA*%
X233210000Y-109080000D03*
%TO.P,J2,2*%
%TO.N,unconnected-(J2-Pad2)*%
X233210000Y-106540000D03*
%TO.P,J2,3*%
%TO.N,GND*%
X235242000Y-106540000D03*
%TO.P,J2,4*%
%TO.N,+5V*%
X237401000Y-106540000D03*
%TO.P,J2,5*%
%TO.N,KBD_CLK*%
X239560000Y-106540000D03*
%TO.P,J2,6*%
%TO.N,unconnected-(J2-Pad6)*%
X239560000Y-109080000D03*
D35*
%TO.P,J2,7,GND*%
%TO.N,GND*%
X243370000Y-104000000D03*
D36*
X236385000Y-103492000D03*
D35*
X229400000Y-104000000D03*
%TD*%
D12*
%TO.P,C36,1*%
%TO.N,+5V*%
X173225000Y-125400000D03*
%TO.P,C36,2*%
%TO.N,GND*%
X178225000Y-125400000D03*
%TD*%
%TO.P,C13,1*%
%TO.N,+5V*%
X285765000Y-147145000D03*
%TO.P,C13,2*%
%TO.N,GND*%
X285765000Y-152145000D03*
%TD*%
D17*
%TO.P,TP13,1,1*%
%TO.N,FC2*%
X224678571Y-274075000D03*
%TD*%
D12*
%TO.P,R26,1*%
%TO.N,VGA_GREEN*%
X336450000Y-120990000D03*
%TO.P,R26,2*%
%TO.N,VGA_G1*%
X336450000Y-131150000D03*
%TD*%
D23*
%TO.P,C3,1*%
%TO.N,~{RESET}*%
X315575000Y-262644888D03*
D12*
%TO.P,C3,2*%
%TO.N,GND*%
X315575000Y-265144888D03*
%TD*%
D17*
%TO.P,TP10,1,1*%
%TO.N,~{UDS}*%
X265275000Y-262425000D03*
%TD*%
D12*
%TO.P,R5,1*%
%TO.N,Net-(D2-K)*%
X277400000Y-268260000D03*
%TO.P,R5,2*%
%TO.N,GND*%
X277400000Y-258100000D03*
%TD*%
D17*
%TO.P,TP12,1,1*%
%TO.N,FC1*%
X215657143Y-274075000D03*
%TD*%
D12*
%TO.P,R22,1*%
%TO.N,VGA_GREEN*%
X340380000Y-120990000D03*
%TO.P,R22,2*%
%TO.N,VGA_G0*%
X340380000Y-131150000D03*
%TD*%
D15*
%TO.P,H9,1,1*%
%TO.N,GND*%
X243015000Y-196470000D03*
X243564175Y-195144175D03*
X243564175Y-197795825D03*
X244890000Y-194595000D03*
D16*
X244890000Y-196470000D03*
D15*
X244890000Y-198345000D03*
X246215825Y-195144175D03*
X246215825Y-197795825D03*
X246765000Y-196470000D03*
%TD*%
D18*
%TO.P,U11,1,A18*%
%TO.N,A19*%
X289605000Y-207565000D03*
D12*
%TO.P,U11,2,A16*%
%TO.N,A17*%
X289605000Y-210105000D03*
%TO.P,U11,3,A14*%
%TO.N,A15*%
X289605000Y-212645000D03*
%TO.P,U11,4,A12*%
%TO.N,A13*%
X289605000Y-215185000D03*
%TO.P,U11,5,A7*%
%TO.N,A8*%
X289605000Y-217725000D03*
%TO.P,U11,6,A6*%
%TO.N,A7*%
X289605000Y-220265000D03*
%TO.P,U11,7,A5*%
%TO.N,A6*%
X289605000Y-222805000D03*
%TO.P,U11,8,A4*%
%TO.N,A5*%
X289605000Y-225345000D03*
%TO.P,U11,9,A3*%
%TO.N,A4*%
X289605000Y-227885000D03*
%TO.P,U11,10,A2*%
%TO.N,A3*%
X289605000Y-230425000D03*
%TO.P,U11,11,A1*%
%TO.N,A2*%
X289605000Y-232965000D03*
%TO.P,U11,12,A0*%
%TO.N,A1*%
X289605000Y-235505000D03*
%TO.P,U11,13,DQ0*%
%TO.N,D8*%
X289605000Y-238045000D03*
%TO.P,U11,14,DQ1*%
%TO.N,D9*%
X289605000Y-240585000D03*
%TO.P,U11,15,DQ2*%
%TO.N,D10*%
X289605000Y-243125000D03*
%TO.P,U11,16,VSS*%
%TO.N,GND*%
X289605000Y-245665000D03*
%TO.P,U11,17,DQ3*%
%TO.N,D11*%
X304845000Y-245665000D03*
%TO.P,U11,18,DQ4*%
%TO.N,D12*%
X304845000Y-243125000D03*
%TO.P,U11,19,DQ5*%
%TO.N,D13*%
X304845000Y-240585000D03*
%TO.P,U11,20,DQ6*%
%TO.N,D14*%
X304845000Y-238045000D03*
%TO.P,U11,21,DQ7*%
%TO.N,D15*%
X304845000Y-235505000D03*
%TO.P,U11,22,CE#*%
%TO.N,~{RAM_SELECT_4}*%
X304845000Y-232965000D03*
%TO.P,U11,23,A10*%
%TO.N,A11*%
X304845000Y-230425000D03*
%TO.P,U11,24,OE#*%
%TO.N,GND*%
X304845000Y-227885000D03*
%TO.P,U11,25,A11*%
%TO.N,A12*%
X304845000Y-225345000D03*
%TO.P,U11,26,A9*%
%TO.N,A10*%
X304845000Y-222805000D03*
%TO.P,U11,27,A8*%
%TO.N,A9*%
X304845000Y-220265000D03*
%TO.P,U11,28,A13*%
%TO.N,A14*%
X304845000Y-217725000D03*
%TO.P,U11,29,WE#*%
%TO.N,~{WRITE_HI}*%
X304845000Y-215185000D03*
%TO.P,U11,30,A17*%
%TO.N,A18*%
X304845000Y-212645000D03*
%TO.P,U11,31,A15*%
%TO.N,A16*%
X304845000Y-210105000D03*
%TO.P,U11,32,VCC*%
%TO.N,+5V*%
X304845000Y-207565000D03*
%TD*%
%TO.P,C9,1*%
%TO.N,+5V*%
X240005000Y-207445000D03*
%TO.P,C9,2*%
%TO.N,GND*%
X240005000Y-212445000D03*
%TD*%
D15*
%TO.P,H2,1,1*%
%TO.N,GND*%
X353225000Y-105500000D03*
X353774175Y-104174175D03*
X353774175Y-106825825D03*
X355100000Y-103625000D03*
D16*
X355100000Y-105500000D03*
D15*
X355100000Y-107375000D03*
X356425825Y-104174175D03*
X356425825Y-106825825D03*
X356975000Y-105500000D03*
%TD*%
D12*
%TO.P,R41,1*%
%TO.N,GND*%
X328590000Y-131150000D03*
%TO.P,R41,2*%
%TO.N,VGA_GREEN*%
X328590000Y-120990000D03*
%TD*%
%TO.P,R14,1*%
%TO.N,~{CPST_SYNC}*%
X300215000Y-125515000D03*
%TO.P,R14,2*%
%TO.N,Net-(C35-Pad1)*%
X300215000Y-115355000D03*
%TD*%
%TO.P,R9,1*%
%TO.N,+5V*%
X212300000Y-124120000D03*
%TO.P,R9,2*%
%TO.N,IO_RESET*%
X212300000Y-134280000D03*
%TD*%
%TO.P,C24,1*%
%TO.N,+5V*%
X131075000Y-121800000D03*
%TO.P,C24,2*%
%TO.N,GND*%
X131075000Y-126800000D03*
%TD*%
D10*
%TO.P,TP2,1,1*%
%TO.N,DEBUG_OUT*%
X260764286Y-273805000D03*
%TD*%
D12*
%TO.P,C6,1*%
%TO.N,+5V*%
X212815000Y-147395000D03*
%TO.P,C6,2*%
%TO.N,GND*%
X207815000Y-147395000D03*
%TD*%
%TO.P,C11,1*%
%TO.N,+5V*%
X262815000Y-147145000D03*
%TO.P,C11,2*%
%TO.N,GND*%
X262815000Y-152145000D03*
%TD*%
D26*
%TO.P,Y4,1,EN*%
%TO.N,Net-(Y4-EN)*%
X167165000Y-232620000D03*
D12*
%TO.P,Y4,4,GND*%
%TO.N,GND*%
X174785000Y-232620000D03*
%TO.P,Y4,5,OUT*%
%TO.N,CPUCLK*%
X174785000Y-225000000D03*
%TO.P,Y4,8,Vcc*%
%TO.N,+5V*%
X167165000Y-225000000D03*
%TD*%
D18*
%TO.P,U15,1*%
%TO.N,Net-(U15A--)*%
X137320000Y-118665000D03*
D12*
%TO.P,U15,2,-*%
X137320000Y-121205000D03*
%TO.P,U15,3,+*%
%TO.N,Net-(U15A-+)*%
X137320000Y-123745000D03*
%TO.P,U15,4,V-*%
%TO.N,GND*%
X137320000Y-126285000D03*
%TO.P,U15,5,+*%
X144940000Y-126285000D03*
%TO.P,U15,6,-*%
%TO.N,Net-(U15B--)*%
X144940000Y-123745000D03*
%TO.P,U15,7*%
X144940000Y-121205000D03*
%TO.P,U15,8,V+*%
%TO.N,+5V*%
X144940000Y-118665000D03*
%TD*%
D17*
%TO.P,TP7,1,1*%
%TO.N,~{DTACK}*%
X238210714Y-262425000D03*
%TD*%
%TO.P,TP5,1,1*%
%TO.N,~{HALT}*%
X220167857Y-262425000D03*
%TD*%
D12*
%TO.P,C25,1*%
%TO.N,Net-(C25-Pad1)*%
X156900000Y-121025000D03*
%TO.P,C25,2*%
%TO.N,GND*%
X156900000Y-123525000D03*
%TD*%
%TO.P,R3,1*%
%TO.N,+5V*%
X105300000Y-164650000D03*
%TO.P,R3,2*%
%TO.N,~{BR}*%
X105300000Y-174810000D03*
%TD*%
D17*
%TO.P,TP3,1,1*%
%TO.N,CPUCLK*%
X202125000Y-262425000D03*
%TD*%
D12*
%TO.P,R16,1*%
%TO.N,Net-(C35-Pad2)*%
X294495000Y-109450000D03*
%TO.P,R16,2*%
%TO.N,Net-(J6-In)*%
X304655000Y-109450000D03*
%TD*%
D17*
%TO.P,TP6,1,1*%
%TO.N,~{AS}*%
X229189286Y-262425000D03*
%TD*%
D12*
%TO.P,R42,1*%
%TO.N,GND*%
X312855000Y-131105000D03*
%TO.P,R42,2*%
%TO.N,VGA_RED*%
X312855000Y-120945000D03*
%TD*%
D13*
%TO.P,U17,1,INPUT/GCLR*%
%TO.N,~{RESET}*%
X335540000Y-169505000D03*
D14*
%TO.P,U17,2,INPUT/OE2/GCLK2*%
%TO.N,PIXEL_CLK*%
X335540000Y-172045000D03*
%TO.P,U17,3,VCCINT*%
%TO.N,+5V*%
X333000000Y-169505000D03*
%TO.P,U17,4,I/O*%
%TO.N,VGA_R0*%
X333000000Y-172045000D03*
%TO.P,U17,5,I/O*%
%TO.N,~{OBVID_IRQ}*%
X330460000Y-169505000D03*
%TO.P,U17,6,I/O*%
%TO.N,VGA_R2*%
X330460000Y-172045000D03*
%TO.P,U17,7,GND*%
%TO.N,GND*%
X327920000Y-169505000D03*
%TO.P,U17,8,I/O*%
%TO.N,VGA_R1*%
X327920000Y-172045000D03*
%TO.P,U17,9,I/O*%
%TO.N,unconnected-(U17-I{slash}O-Pad9)*%
X325380000Y-169505000D03*
%TO.P,U17,10,I/O*%
%TO.N,~{CPST_SYNC}*%
X325380000Y-172045000D03*
%TO.P,U17,11,I/O*%
%TO.N,D5*%
X322840000Y-169505000D03*
%TO.P,U17,12,I/O/PD1*%
%TO.N,D4*%
X320300000Y-172045000D03*
%TO.P,U17,13,VCCIO*%
%TO.N,+5V*%
X322840000Y-172045000D03*
%TO.P,U17,14,I/O/TDI*%
%TO.N,OBVID_TDI*%
X320300000Y-174585000D03*
%TO.P,U17,15,I/O*%
%TO.N,D3*%
X322840000Y-174585000D03*
%TO.P,U17,16,I/O*%
%TO.N,D8*%
X320300000Y-177125000D03*
%TO.P,U17,17,I/O*%
%TO.N,D2*%
X322840000Y-177125000D03*
%TO.P,U17,18,I/O*%
%TO.N,D0*%
X320300000Y-179665000D03*
%TO.P,U17,19,GND*%
%TO.N,GND*%
X322840000Y-179665000D03*
%TO.P,U17,20,I/O*%
%TO.N,D11*%
X320300000Y-182205000D03*
%TO.P,U17,21,I/O*%
%TO.N,~{AS}*%
X322840000Y-182205000D03*
%TO.P,U17,22,I/O*%
%TO.N,~{UDS}*%
X320300000Y-184745000D03*
%TO.P,U17,23,I/O/TMS*%
%TO.N,JTAG_TMS*%
X322840000Y-184745000D03*
%TO.P,U17,24,I/O*%
%TO.N,D13*%
X320300000Y-187285000D03*
%TO.P,U17,25,I/O*%
%TO.N,R{slash}~{W}*%
X322840000Y-187285000D03*
%TO.P,U17,26,VCCIO*%
%TO.N,+5V*%
X320300000Y-189825000D03*
%TO.P,U17,27,I/O*%
%TO.N,D15*%
X322840000Y-189825000D03*
%TO.P,U17,28,I/O*%
%TO.N,unconnected-(U17-I{slash}O-Pad28)*%
X320300000Y-192365000D03*
%TO.P,U17,29,I/O*%
%TO.N,VGA_VSYNC*%
X322840000Y-192365000D03*
%TO.P,U17,30,I/O*%
%TO.N,unconnected-(U17-I{slash}O-Pad30)*%
X320300000Y-194905000D03*
%TO.P,U17,31,I/O*%
%TO.N,unconnected-(U17-I{slash}O-Pad31)*%
X322840000Y-194905000D03*
%TO.P,U17,32,GND*%
%TO.N,GND*%
X320300000Y-197445000D03*
%TO.P,U17,33,I/O*%
%TO.N,FC0*%
X322840000Y-199985000D03*
%TO.P,U17,34,I/O*%
%TO.N,FC1*%
X322840000Y-197445000D03*
%TO.P,U17,35,I/O*%
%TO.N,FC2*%
X325380000Y-199985000D03*
%TO.P,U17,36,I/O*%
%TO.N,unconnected-(U17-I{slash}O-Pad36)*%
X325380000Y-197445000D03*
%TO.P,U17,37,I/O*%
%TO.N,unconnected-(U17-I{slash}O-Pad37)*%
X327920000Y-199985000D03*
%TO.P,U17,38,VCCIO*%
%TO.N,+5V*%
X327920000Y-197445000D03*
%TO.P,U17,39,I/O*%
%TO.N,unconnected-(U17-I{slash}O-Pad39)*%
X330460000Y-199985000D03*
%TO.P,U17,40,I/O*%
%TO.N,CPST_CLK_ENB*%
X330460000Y-197445000D03*
%TO.P,U17,41,I/O*%
%TO.N,VGA_CLK_ENB*%
X333000000Y-199985000D03*
%TO.P,U17,42,GND*%
%TO.N,GND*%
X333000000Y-197445000D03*
%TO.P,U17,43,VCCINT*%
%TO.N,+5V*%
X335540000Y-199985000D03*
%TO.P,U17,44,I/O*%
%TO.N,unconnected-(U17-I{slash}O-Pad44)*%
X335540000Y-197445000D03*
%TO.P,U17,45,I/O/PD2*%
%TO.N,unconnected-(U17-I{slash}O{slash}PD2-Pad45)*%
X338080000Y-199985000D03*
%TO.P,U17,46,I/O*%
%TO.N,VGA_HSYNC*%
X338080000Y-197445000D03*
%TO.P,U17,47,GND*%
%TO.N,GND*%
X340620000Y-199985000D03*
%TO.P,U17,48,I/O*%
%TO.N,A1*%
X340620000Y-197445000D03*
%TO.P,U17,49,I/O*%
%TO.N,A2*%
X343160000Y-199985000D03*
%TO.P,U17,50,I/O*%
%TO.N,unconnected-(U17-I{slash}O-Pad50)*%
X343160000Y-197445000D03*
%TO.P,U17,51,I/O*%
%TO.N,A3*%
X345700000Y-199985000D03*
%TO.P,U17,52,I/O*%
%TO.N,unconnected-(U17-I{slash}O-Pad52)*%
X345700000Y-197445000D03*
%TO.P,U17,53,VCCIO*%
%TO.N,+5V*%
X348240000Y-199985000D03*
%TO.P,U17,54,I/O*%
%TO.N,A4*%
X350780000Y-197445000D03*
%TO.P,U17,55,I/O*%
%TO.N,A5*%
X348240000Y-197445000D03*
%TO.P,U17,56,I/O*%
%TO.N,unconnected-(U17-I{slash}O-Pad56)*%
X350780000Y-194905000D03*
%TO.P,U17,57,I/O*%
%TO.N,unconnected-(U17-I{slash}O-Pad57)*%
X348240000Y-194905000D03*
%TO.P,U17,58,I/O*%
%TO.N,unconnected-(U17-I{slash}O-Pad58)*%
X350780000Y-192365000D03*
%TO.P,U17,59,GND*%
%TO.N,GND*%
X348240000Y-192365000D03*
%TO.P,U17,60,I/O*%
%TO.N,unconnected-(U17-I{slash}O-Pad60)*%
X350780000Y-189825000D03*
%TO.P,U17,61,I/O*%
%TO.N,unconnected-(U17-I{slash}O-Pad61)*%
X348240000Y-189825000D03*
%TO.P,U17,62,I/O/TCK*%
%TO.N,JTAG_TCK*%
X350780000Y-187285000D03*
%TO.P,U17,63,I/O*%
%TO.N,D14*%
X348240000Y-187285000D03*
%TO.P,U17,64,I/O*%
%TO.N,~{LDS}*%
X350780000Y-184745000D03*
%TO.P,U17,65,I/O*%
%TO.N,D12*%
X348240000Y-184745000D03*
%TO.P,U17,66,VCCIO*%
%TO.N,+5V*%
X350780000Y-182205000D03*
%TO.P,U17,67,I/O*%
%TO.N,D10*%
X348240000Y-182205000D03*
%TO.P,U17,68,I/O*%
%TO.N,D1*%
X350780000Y-179665000D03*
%TO.P,U17,69,I/O*%
%TO.N,D9*%
X348240000Y-179665000D03*
%TO.P,U17,70,I/O*%
%TO.N,D7*%
X350780000Y-177125000D03*
%TO.P,U17,71,I/O/TDO*%
%TO.N,JTAG_TDO*%
X348240000Y-177125000D03*
%TO.P,U17,72,GND*%
%TO.N,GND*%
X350780000Y-174585000D03*
%TO.P,U17,73,I/O*%
%TO.N,D6*%
X348240000Y-174585000D03*
%TO.P,U17,74,I/O*%
%TO.N,VGA_B0*%
X350780000Y-172045000D03*
%TO.P,U17,75,I/O*%
%TO.N,VGA_B1*%
X348240000Y-169505000D03*
%TO.P,U17,76,I/O*%
%TO.N,VGA_G0*%
X348240000Y-172045000D03*
%TO.P,U17,77,I/O*%
%TO.N,VGA_G1*%
X345700000Y-169505000D03*
%TO.P,U17,78,VCCIO*%
%TO.N,+5V*%
X345700000Y-172045000D03*
%TO.P,U17,79,I/O*%
%TO.N,OBVID_STALL*%
X343160000Y-169505000D03*
%TO.P,U17,80,I/O*%
%TO.N,CPST_PIXEL*%
X343160000Y-172045000D03*
%TO.P,U17,81,I/O/GCLK3*%
%TO.N,VGA_G2*%
X340620000Y-169505000D03*
%TO.P,U17,82,GND*%
%TO.N,GND*%
X340620000Y-172045000D03*
%TO.P,U17,83,INPUT/GCLK1*%
%TO.N,CPUCLK*%
X338080000Y-169505000D03*
%TO.P,U17,84,INPUT/OE1*%
%TO.N,~{OBVID_SELECT}*%
X338080000Y-172045000D03*
%TD*%
D18*
%TO.P,U1,1,D4*%
%TO.N,D4*%
X115165000Y-153510000D03*
D12*
%TO.P,U1,2,D3*%
%TO.N,D3*%
X115165000Y-156050000D03*
%TO.P,U1,3,D2*%
%TO.N,D2*%
X115165000Y-158590000D03*
%TO.P,U1,4,D1*%
%TO.N,D1*%
X115165000Y-161130000D03*
%TO.P,U1,5,D0*%
%TO.N,D0*%
X115165000Y-163670000D03*
%TO.P,U1,6,~{AS}*%
%TO.N,~{AS}*%
X115165000Y-166210000D03*
%TO.P,U1,7,~{UDS}*%
%TO.N,~{UDS}*%
X115165000Y-168750000D03*
%TO.P,U1,8,~{LDS}*%
%TO.N,~{LDS}*%
X115165000Y-171290000D03*
%TO.P,U1,9,R/~{W}*%
%TO.N,R{slash}~{W}*%
X115165000Y-173830000D03*
%TO.P,U1,10,~{DTACK}*%
%TO.N,~{DTACK}*%
X115165000Y-176370000D03*
%TO.P,U1,11,~{BG}*%
%TO.N,~{BG}*%
X115165000Y-178910000D03*
%TO.P,U1,12,~{BGACK}*%
%TO.N,~{BGACK}*%
X115165000Y-181450000D03*
%TO.P,U1,13,~{BR}*%
%TO.N,~{BR}*%
X115165000Y-183990000D03*
%TO.P,U1,14,V_{CC}*%
%TO.N,+5V*%
X115165000Y-186530000D03*
%TO.P,U1,15,CLK*%
%TO.N,CPUCLK*%
X115165000Y-189070000D03*
%TO.P,U1,16,GND*%
%TO.N,GND*%
X115165000Y-191610000D03*
%TO.P,U1,17,~{HALT}*%
%TO.N,~{HALT}*%
X115165000Y-194150000D03*
%TO.P,U1,18,~{RESET}*%
%TO.N,~{RESET}*%
X115165000Y-196690000D03*
%TO.P,U1,19,~{VMA}*%
%TO.N,unconnected-(U1-~{VMA}-Pad19)*%
X115165000Y-199230000D03*
%TO.P,U1,20,E*%
%TO.N,unconnected-(U1-E-Pad20)*%
X115165000Y-201770000D03*
%TO.P,U1,21,~{VPA}*%
%TO.N,Net-(U1-~{VPA})*%
X115165000Y-204310000D03*
%TO.P,U1,22,~{BERR}*%
%TO.N,~{BERR}*%
X115165000Y-206850000D03*
%TO.P,U1,23,~{IPL2}*%
%TO.N,~{IPL2}*%
X115165000Y-209390000D03*
%TO.P,U1,24,~{IPL1}*%
%TO.N,~{IPL1}*%
X115165000Y-211930000D03*
%TO.P,U1,25,~{IPL0}*%
%TO.N,~{IPL0}*%
X115165000Y-214470000D03*
%TO.P,U1,26,FC2*%
%TO.N,FC2*%
X115165000Y-217010000D03*
%TO.P,U1,27,FC1*%
%TO.N,FC1*%
X115165000Y-219550000D03*
%TO.P,U1,28,FC0*%
%TO.N,FC0*%
X115165000Y-222090000D03*
%TO.P,U1,29,A1*%
%TO.N,A1*%
X115165000Y-224630000D03*
%TO.P,U1,30,A2*%
%TO.N,A2*%
X115165000Y-227170000D03*
%TO.P,U1,31,A3*%
%TO.N,A3*%
X115165000Y-229710000D03*
%TO.P,U1,32,A4*%
%TO.N,A4*%
X115165000Y-232250000D03*
%TO.P,U1,33,A5*%
%TO.N,A5*%
X138025000Y-232250000D03*
%TO.P,U1,34,A6*%
%TO.N,A6*%
X138025000Y-229710000D03*
%TO.P,U1,35,A7*%
%TO.N,A7*%
X138025000Y-227170000D03*
%TO.P,U1,36,A8*%
%TO.N,A8*%
X138025000Y-224630000D03*
%TO.P,U1,37,A9*%
%TO.N,A9*%
X138025000Y-222090000D03*
%TO.P,U1,38,A10*%
%TO.N,A10*%
X138025000Y-219550000D03*
%TO.P,U1,39,A11*%
%TO.N,A11*%
X138025000Y-217010000D03*
%TO.P,U1,40,A12*%
%TO.N,A12*%
X138025000Y-214470000D03*
%TO.P,U1,41,A13*%
%TO.N,A13*%
X138025000Y-211930000D03*
%TO.P,U1,42,A14*%
%TO.N,A14*%
X138025000Y-209390000D03*
%TO.P,U1,43,A15*%
%TO.N,A15*%
X138025000Y-206850000D03*
%TO.P,U1,44,A16*%
%TO.N,A16*%
X138025000Y-204310000D03*
%TO.P,U1,45,A17*%
%TO.N,A17*%
X138025000Y-201770000D03*
%TO.P,U1,46,A18*%
%TO.N,A18*%
X138025000Y-199230000D03*
%TO.P,U1,47,A19*%
%TO.N,A19*%
X138025000Y-196690000D03*
%TO.P,U1,48,A20*%
%TO.N,A20*%
X138025000Y-194150000D03*
%TO.P,U1,49,V_{CC}*%
%TO.N,+5V*%
X138025000Y-191610000D03*
%TO.P,U1,50,A21*%
%TO.N,A21*%
X138025000Y-189070000D03*
%TO.P,U1,51,A22*%
%TO.N,A22*%
X138025000Y-186530000D03*
%TO.P,U1,52,A23*%
%TO.N,A23*%
X138025000Y-183990000D03*
%TO.P,U1,53,GND*%
%TO.N,GND*%
X138025000Y-181450000D03*
%TO.P,U1,54,D15*%
%TO.N,D15*%
X138025000Y-178910000D03*
%TO.P,U1,55,D14*%
%TO.N,D14*%
X138025000Y-176370000D03*
%TO.P,U1,56,D13*%
%TO.N,D13*%
X138025000Y-173830000D03*
%TO.P,U1,57,D12*%
%TO.N,D12*%
X138025000Y-171290000D03*
%TO.P,U1,58,D11*%
%TO.N,D11*%
X138025000Y-168750000D03*
%TO.P,U1,59,D10*%
%TO.N,D10*%
X138025000Y-166210000D03*
%TO.P,U1,60,D9*%
%TO.N,D9*%
X138025000Y-163670000D03*
%TO.P,U1,61,D8*%
%TO.N,D8*%
X138025000Y-161130000D03*
%TO.P,U1,62,D7*%
%TO.N,D7*%
X138025000Y-158590000D03*
%TO.P,U1,63,D6*%
%TO.N,D6*%
X138025000Y-156050000D03*
%TO.P,U1,64,D5*%
%TO.N,D5*%
X138025000Y-153510000D03*
%TD*%
D37*
%TO.P,J7,1*%
%TO.N,GND*%
X172150000Y-102425000D03*
D38*
%TO.P,J7,2*%
%TO.N,Net-(J7-Pad2)*%
X173750000Y-110525000D03*
%TO.P,J7,3*%
%TO.N,Net-(J7-Pad3)*%
X168550000Y-107425000D03*
%TO.P,J7,4*%
%TO.N,Net-(J7-Pad4)*%
X170550000Y-110525000D03*
%TD*%
D12*
%TO.P,R31,1*%
%TO.N,VGA_RED*%
X316785000Y-120945000D03*
%TO.P,R31,2*%
%TO.N,VGA_R2*%
X316785000Y-131105000D03*
%TD*%
%TO.P,C17,1*%
%TO.N,+5V*%
X171650000Y-169825000D03*
%TO.P,C17,2*%
%TO.N,GND*%
X166650000Y-169825000D03*
%TD*%
D18*
%TO.P,U4,1,A18*%
%TO.N,A19*%
X220747500Y-147495000D03*
D12*
%TO.P,U4,2,A16*%
%TO.N,A17*%
X220747500Y-150035000D03*
%TO.P,U4,3,A14*%
%TO.N,A15*%
X220747500Y-152575000D03*
%TO.P,U4,4,A12*%
%TO.N,A13*%
X220747500Y-155115000D03*
%TO.P,U4,5,A7*%
%TO.N,A8*%
X220747500Y-157655000D03*
%TO.P,U4,6,A6*%
%TO.N,A7*%
X220747500Y-160195000D03*
%TO.P,U4,7,A5*%
%TO.N,A6*%
X220747500Y-162735000D03*
%TO.P,U4,8,A4*%
%TO.N,A5*%
X220747500Y-165275000D03*
%TO.P,U4,9,A3*%
%TO.N,A4*%
X220747500Y-167815000D03*
%TO.P,U4,10,A2*%
%TO.N,A3*%
X220747500Y-170355000D03*
%TO.P,U4,11,A1*%
%TO.N,A2*%
X220747500Y-172895000D03*
%TO.P,U4,12,A0*%
%TO.N,A1*%
X220747500Y-175435000D03*
%TO.P,U4,13,DQ0*%
%TO.N,D0*%
X220747500Y-177975000D03*
%TO.P,U4,14,DQ1*%
%TO.N,D1*%
X220747500Y-180515000D03*
%TO.P,U4,15,DQ2*%
%TO.N,D2*%
X220747500Y-183055000D03*
%TO.P,U4,16,VSS*%
%TO.N,GND*%
X220747500Y-185595000D03*
%TO.P,U4,17,DQ3*%
%TO.N,D3*%
X235987500Y-185595000D03*
%TO.P,U4,18,DQ4*%
%TO.N,D4*%
X235987500Y-183055000D03*
%TO.P,U4,19,DQ5*%
%TO.N,D5*%
X235987500Y-180515000D03*
%TO.P,U4,20,DQ6*%
%TO.N,D6*%
X235987500Y-177975000D03*
%TO.P,U4,21,DQ7*%
%TO.N,D7*%
X235987500Y-175435000D03*
%TO.P,U4,22,CE#*%
%TO.N,~{RAM_SELECT_1}*%
X235987500Y-172895000D03*
%TO.P,U4,23,A10*%
%TO.N,A11*%
X235987500Y-170355000D03*
%TO.P,U4,24,OE#*%
%TO.N,GND*%
X235987500Y-167815000D03*
%TO.P,U4,25,A11*%
%TO.N,A12*%
X235987500Y-165275000D03*
%TO.P,U4,26,A9*%
%TO.N,A10*%
X235987500Y-162735000D03*
%TO.P,U4,27,A8*%
%TO.N,A9*%
X235987500Y-160195000D03*
%TO.P,U4,28,A13*%
%TO.N,A14*%
X235987500Y-157655000D03*
%TO.P,U4,29,WE#*%
%TO.N,~{WRITE_LO}*%
X235987500Y-155115000D03*
%TO.P,U4,30,A17*%
%TO.N,A18*%
X235987500Y-152575000D03*
%TO.P,U4,31,A15*%
%TO.N,A16*%
X235987500Y-150035000D03*
%TO.P,U4,32,VCC*%
%TO.N,+5V*%
X235987500Y-147495000D03*
%TD*%
%TO.P,R7,1*%
%TO.N,+5V*%
X222745000Y-117750000D03*
%TO.P,R7,2*%
%TO.N,~{IO_IRQ}*%
X232905000Y-117750000D03*
%TD*%
D39*
%TO.P,J6,1,In*%
%TO.N,Net-(J6-In)*%
X281931000Y-104250000D03*
D40*
%TO.P,J6,2,Ext*%
%TO.N,GND*%
X281931000Y-108750000D03*
%TD*%
D12*
%TO.P,R33,1*%
%TO.N,+5V*%
X160915000Y-223670000D03*
%TO.P,R33,2*%
%TO.N,Net-(Y4-EN)*%
X160915000Y-233830000D03*
%TD*%
%TO.P,R25,1*%
%TO.N,VGA_GREEN*%
X332520000Y-120990000D03*
%TO.P,R25,2*%
%TO.N,VGA_G2*%
X332520000Y-131150000D03*
%TD*%
D18*
%TO.P,U3,1,A15*%
%TO.N,A16*%
X197715000Y-212645000D03*
D12*
%TO.P,U3,2,A12*%
%TO.N,A13*%
X197715000Y-215185000D03*
%TO.P,U3,3,A7*%
%TO.N,A8*%
X197715000Y-217725000D03*
%TO.P,U3,4,A6*%
%TO.N,A7*%
X197715000Y-220265000D03*
%TO.P,U3,5,A5*%
%TO.N,A6*%
X197715000Y-222805000D03*
%TO.P,U3,6,A4*%
%TO.N,A5*%
X197715000Y-225345000D03*
%TO.P,U3,7,A3*%
%TO.N,A4*%
X197715000Y-227885000D03*
%TO.P,U3,8,A2*%
%TO.N,A3*%
X197715000Y-230425000D03*
%TO.P,U3,9,A1*%
%TO.N,A2*%
X197715000Y-232965000D03*
%TO.P,U3,10,A0*%
%TO.N,A1*%
X197715000Y-235505000D03*
%TO.P,U3,11,D0*%
%TO.N,D8*%
X197715000Y-238045000D03*
%TO.P,U3,12,D1*%
%TO.N,D9*%
X197715000Y-240585000D03*
%TO.P,U3,13,D2*%
%TO.N,D10*%
X197715000Y-243125000D03*
%TO.P,U3,14,GND*%
%TO.N,GND*%
X197715000Y-245665000D03*
%TO.P,U3,15,D3*%
%TO.N,D11*%
X212955000Y-245665000D03*
%TO.P,U3,16,D4*%
%TO.N,D12*%
X212955000Y-243125000D03*
%TO.P,U3,17,D5*%
%TO.N,D13*%
X212955000Y-240585000D03*
%TO.P,U3,18,D6*%
%TO.N,D14*%
X212955000Y-238045000D03*
%TO.P,U3,19,D7*%
%TO.N,D15*%
X212955000Y-235505000D03*
%TO.P,U3,20,~{CE}*%
%TO.N,~{ROM_SELECT}*%
X212955000Y-232965000D03*
%TO.P,U3,21,A10*%
%TO.N,A11*%
X212955000Y-230425000D03*
%TO.P,U3,22,~{OE}*%
%TO.N,~{UDS}*%
X212955000Y-227885000D03*
%TO.P,U3,23,A11*%
%TO.N,A12*%
X212955000Y-225345000D03*
%TO.P,U3,24,A9*%
%TO.N,A10*%
X212955000Y-222805000D03*
%TO.P,U3,25,A8*%
%TO.N,A9*%
X212955000Y-220265000D03*
%TO.P,U3,26,A13*%
%TO.N,A14*%
X212955000Y-217725000D03*
%TO.P,U3,27,A14*%
%TO.N,A15*%
X212955000Y-215185000D03*
%TO.P,U3,28,VCC*%
%TO.N,+5V*%
X212955000Y-212645000D03*
%TD*%
%TO.P,C22,1*%
%TO.N,GND*%
X277780000Y-135335000D03*
%TO.P,C22,2*%
%TO.N,Net-(U16-XTAL2)*%
X280280000Y-135335000D03*
%TD*%
D34*
%TO.P,J4,1*%
%TO.N,MOUSE_DATA*%
X256042000Y-109132000D03*
%TO.P,J4,2*%
%TO.N,unconnected-(J4-Pad2)*%
X256042000Y-106592000D03*
%TO.P,J4,3*%
%TO.N,GND*%
X258074000Y-106592000D03*
%TO.P,J4,4*%
%TO.N,+5V*%
X260233000Y-106592000D03*
%TO.P,J4,5*%
%TO.N,MOUSE_CLK*%
X262392000Y-106592000D03*
%TO.P,J4,6*%
%TO.N,unconnected-(J4-Pad6)*%
X262392000Y-109132000D03*
D35*
%TO.P,J4,7,GND*%
%TO.N,GND*%
X266202000Y-104052000D03*
D36*
X259217000Y-103544000D03*
D35*
X252232000Y-104052000D03*
%TD*%
D41*
%TO.N,OBVID_TDI*%
X317925000Y-147975000D03*
X317925000Y-174585000D03*
%TO.N,JTAG_TDO*%
X344735800Y-145300000D03*
%TO.N,~{RESET}*%
X332500000Y-262975000D03*
X146340309Y-207996720D03*
X147275000Y-197975000D03*
X211182696Y-269463556D03*
X313400000Y-268325000D03*
X336100000Y-170922309D03*
X168875000Y-263150000D03*
%TO.N,Net-(U16-XTAL1)*%
X266825000Y-125225000D03*
%TO.N,Net-(U16-XTAL2)*%
X264050000Y-132725000D03*
%TO.N,Net-(C25-Pad1)*%
X156800000Y-117450000D03*
%TO.N,Net-(C26-Pad2)*%
X165525000Y-113175000D03*
X170375000Y-114000000D03*
%TO.N,DEBUG_OUT*%
X192050000Y-277275000D03*
%TO.N,KBD_DATA*%
X235450000Y-130725000D03*
X249225000Y-131375000D03*
%TO.N,KBD_CLK*%
X251525000Y-129950000D03*
X241925000Y-129750000D03*
%TO.N,D15*%
X142175000Y-236700000D03*
X307650000Y-238150000D03*
X307810230Y-235109200D03*
X308600000Y-190521000D03*
X142375000Y-178900000D03*
%TO.N,A18*%
X145565309Y-212374423D03*
X302525000Y-244800000D03*
X218925000Y-154500000D03*
X218675000Y-151925000D03*
X301925000Y-213398000D03*
X147475000Y-152425000D03*
X146575000Y-199100000D03*
%TO.N,A20*%
X351675000Y-251275000D03*
X149677000Y-207350007D03*
X149349580Y-194774983D03*
X158925000Y-246725000D03*
%TO.N,~{BG}*%
X122118834Y-180206166D03*
X122150000Y-246975000D03*
X306861144Y-253677587D03*
X307694876Y-219606067D03*
%TO.N,~{LDS}*%
X155399990Y-197361099D03*
X315477000Y-184502857D03*
X314323000Y-231630800D03*
X256100000Y-252375000D03*
X214873170Y-190344000D03*
X173695860Y-199367416D03*
X182700000Y-252000000D03*
X315482306Y-193136290D03*
X150371000Y-172875000D03*
X172725000Y-212075000D03*
X215825000Y-167725000D03*
X181058395Y-212043073D03*
X178300000Y-166750000D03*
X178794200Y-199075000D03*
%TO.N,A10*%
X210325000Y-224025000D03*
X210975000Y-162975000D03*
X301750000Y-249000000D03*
X301250000Y-223517000D03*
X190604000Y-224025000D03*
X190448000Y-219490000D03*
%TO.N,D8*%
X315748736Y-236505976D03*
X315575000Y-178150000D03*
X193875000Y-161375000D03*
X316652000Y-225825000D03*
%TO.N,A7*%
X151663000Y-219386875D03*
X297275000Y-248350000D03*
X203250000Y-220300000D03*
X296400000Y-220275000D03*
X151663000Y-227175000D03*
X202525000Y-160850000D03*
%TO.N,D2*%
X194650000Y-160200000D03*
X193775905Y-182746020D03*
X310638569Y-182474537D03*
X175150000Y-194150000D03*
X160975000Y-160077000D03*
X177725000Y-194365000D03*
X300250000Y-183055000D03*
X300575000Y-225050000D03*
X177950000Y-160250000D03*
X264150000Y-182002000D03*
X312874951Y-178554766D03*
%TO.N,A4*%
X178325000Y-185005800D03*
X170300000Y-233950000D03*
X292604389Y-195851000D03*
X229425000Y-166762000D03*
X170575000Y-228900000D03*
X170451575Y-184827571D03*
X291525000Y-249625000D03*
X200350000Y-227175000D03*
%TO.N,A15*%
X208150000Y-213971000D03*
X145627217Y-214301423D03*
X143800000Y-207225000D03*
X351475000Y-211900000D03*
X217925000Y-215250000D03*
X218000000Y-212700000D03*
X208475000Y-155325000D03*
%TO.N,D11*%
X135630399Y-246252107D03*
X313550000Y-181768591D03*
X313171000Y-230850000D03*
X313750000Y-246250000D03*
%TO.N,D9*%
X193041768Y-164332944D03*
X338200000Y-239850000D03*
X338050000Y-228825000D03*
X195725000Y-240625000D03*
X311978224Y-180540028D03*
X311987370Y-239624080D03*
%TO.N,D7*%
X189825000Y-159225000D03*
X168750000Y-159000000D03*
X306625000Y-176250000D03*
X250400000Y-176488000D03*
X349325000Y-173325000D03*
X161825000Y-159250000D03*
X189616124Y-176358712D03*
X306484783Y-224400000D03*
%TO.N,A6*%
X173150000Y-183130567D03*
X175850000Y-183400000D03*
X177848353Y-164346356D03*
X173059258Y-229261758D03*
X295075000Y-249550000D03*
X295375000Y-222900000D03*
X173012200Y-223250000D03*
%TO.N,~{BR}*%
X112275000Y-175371342D03*
X121025000Y-184300000D03*
X326350000Y-244825000D03*
X121025000Y-248621016D03*
X326575000Y-255075000D03*
X341135000Y-243250000D03*
%TO.N,A16*%
X144626509Y-212844698D03*
X204625000Y-211225000D03*
X204625000Y-212800000D03*
X344000000Y-242525000D03*
X144800000Y-204675000D03*
X343944167Y-208823151D03*
X204500000Y-152925000D03*
%TO.N,A9*%
X209825000Y-220977000D03*
X307534413Y-249488587D03*
X210175000Y-160275000D03*
X308107656Y-221016006D03*
%TO.N,A23*%
X155710093Y-200879694D03*
X346325000Y-205875000D03*
X151100000Y-185550000D03*
%TO.N,D4*%
X309621876Y-219397974D03*
X183710800Y-153225000D03*
X309722202Y-183750202D03*
X150701600Y-192661591D03*
X183750000Y-185325000D03*
X153600000Y-153375000D03*
X256350000Y-184108000D03*
X310300000Y-172100000D03*
%TO.N,A8*%
X203050000Y-157825000D03*
X192171016Y-216578984D03*
X203650000Y-217700000D03*
X299275000Y-249475000D03*
X299125000Y-217325000D03*
X190825000Y-225150000D03*
%TO.N,A3*%
X171400000Y-230803833D03*
X187225000Y-229412000D03*
X199145000Y-228600000D03*
X290725000Y-248575000D03*
X295375000Y-170100000D03*
X226800000Y-169025000D03*
X294525000Y-202298245D03*
%TO.N,~{HALT}*%
X149153814Y-202002690D03*
X181935500Y-265625000D03*
X149963000Y-195745909D03*
X181935500Y-242625000D03*
X163575000Y-243250000D03*
%TO.N,A11*%
X216675000Y-230400000D03*
X190175000Y-217000000D03*
X305840228Y-231375045D03*
X189647612Y-228660000D03*
X306725000Y-247809200D03*
X216789264Y-170077000D03*
%TO.N,A19*%
X149401093Y-208894748D03*
X148875000Y-148125000D03*
X161900000Y-209500000D03*
X149281135Y-196857942D03*
X220346582Y-143988048D03*
X292350000Y-243850000D03*
%TO.N,A1*%
X183276861Y-225462035D03*
X183075000Y-235300000D03*
X340150000Y-234050000D03*
X196550000Y-206625000D03*
X292325000Y-174850000D03*
X223125000Y-174382000D03*
X291196799Y-198719000D03*
X174086882Y-226848000D03*
%TO.N,~{UDS}*%
X181216693Y-224865464D03*
X215400000Y-255025000D03*
X192000000Y-214775000D03*
X179899939Y-214825062D03*
X302350000Y-188724999D03*
X303277835Y-233490974D03*
X150748000Y-170075000D03*
X265475000Y-254850000D03*
X180600000Y-199775000D03*
X193014669Y-188327000D03*
%TO.N,D12*%
X313225000Y-242675000D03*
X192354000Y-171725000D03*
X191275000Y-242875000D03*
X312000000Y-186888118D03*
X340860911Y-233277271D03*
X341135000Y-241674795D03*
%TO.N,D14*%
X151663000Y-238450000D03*
X313533429Y-239225000D03*
X313550000Y-189815533D03*
X149650000Y-176200000D03*
X312794000Y-235109200D03*
%TO.N,~{IPL1}*%
X174575000Y-212775000D03*
%TO.N,A22*%
X352425000Y-238525000D03*
X352550000Y-204700000D03*
X182141069Y-187095800D03*
%TO.N,~{R}{slash}W*%
X148525000Y-252475000D03*
X148100000Y-182093450D03*
%TO.N,~{BGACK}*%
X307719240Y-254101419D03*
X121613959Y-247877864D03*
X309199314Y-217916083D03*
X121800000Y-182100000D03*
X113050000Y-161400000D03*
%TO.N,D13*%
X192690000Y-173608000D03*
X314662679Y-235400000D03*
X193202000Y-241575000D03*
X315854000Y-187600000D03*
X314783194Y-240700425D03*
%TO.N,D6*%
X166417040Y-153848000D03*
X188919811Y-191909172D03*
X189250000Y-153875000D03*
X153487799Y-192082435D03*
X252875000Y-179250000D03*
X189401822Y-179962206D03*
X301575000Y-179028000D03*
X301250000Y-222150000D03*
%TO.N,D5*%
X254722000Y-181568000D03*
X299225000Y-214750000D03*
X158012500Y-151825000D03*
X299225000Y-181568000D03*
X151313493Y-151675000D03*
X151625000Y-191685460D03*
X321775000Y-213775000D03*
X308650000Y-180675000D03*
X179164391Y-191892164D03*
X179650000Y-184950000D03*
X308775000Y-168850000D03*
%TO.N,D3*%
X162572046Y-187472800D03*
X309550000Y-175175000D03*
X261625000Y-186648000D03*
X152815401Y-149622094D03*
X150225467Y-194195909D03*
X150636478Y-150000000D03*
X151050000Y-157538956D03*
X303883547Y-223722174D03*
X309550000Y-185600000D03*
X162400000Y-193550000D03*
%TO.N,~{IPL0}*%
X176488800Y-216235000D03*
%TO.N,D1*%
X265075000Y-179462000D03*
X162400000Y-162675000D03*
X176900000Y-181775000D03*
X159400000Y-162350000D03*
X177275000Y-198500000D03*
X312815000Y-227949293D03*
X312775000Y-179600000D03*
%TO.N,A12*%
X189025000Y-226150000D03*
X307122117Y-240075340D03*
X217300000Y-225525000D03*
X217225000Y-165675000D03*
X306553380Y-226275000D03*
X189075000Y-215927000D03*
%TO.N,A5*%
X194775000Y-231613278D03*
X194750000Y-225425000D03*
X293750000Y-225325000D03*
X293651992Y-195850000D03*
X194317708Y-178133980D03*
X232100000Y-164222000D03*
X194443015Y-166125000D03*
X294300000Y-164800000D03*
X293650669Y-250654653D03*
%TO.N,~{DTACK}*%
X181200000Y-268500000D03*
X340025000Y-208225000D03*
X198025000Y-205600000D03*
X237625000Y-267800000D03*
X181200000Y-241550000D03*
X153604080Y-190245920D03*
X150025000Y-190625000D03*
X155770800Y-209875000D03*
X197450000Y-210350000D03*
X149919000Y-177800000D03*
X155024853Y-198835405D03*
X156400000Y-242200000D03*
%TO.N,R{slash}~{W}*%
X247400000Y-252925000D03*
X324175000Y-235600000D03*
X259100000Y-141275000D03*
X147347246Y-200531178D03*
X147100000Y-255200000D03*
X185649703Y-175272411D03*
X325525000Y-187425000D03*
X189812214Y-199279437D03*
X190215776Y-190063844D03*
X186200000Y-140500000D03*
%TO.N,A13*%
X297675000Y-215250000D03*
X144504176Y-214307273D03*
X203675000Y-215175000D03*
X143393826Y-211821440D03*
X203825000Y-155200000D03*
X298450000Y-248400000D03*
%TO.N,D10*%
X192825000Y-242875000D03*
X311299930Y-181658996D03*
X339048904Y-241369713D03*
X339600000Y-231225000D03*
X311716511Y-241837104D03*
X192139015Y-166050000D03*
%TO.N,D0*%
X318075000Y-228175000D03*
X175800000Y-196275000D03*
X182750000Y-165350000D03*
X180600000Y-196650000D03*
X314175000Y-176600000D03*
X317825000Y-180376200D03*
X195650000Y-164525000D03*
X169500000Y-165000000D03*
X195568082Y-176439984D03*
X314098941Y-179844921D03*
%TO.N,A17*%
X342600000Y-208575000D03*
X145309580Y-211212717D03*
X145591601Y-202185180D03*
X146525000Y-150725000D03*
X342725000Y-243900000D03*
%TO.N,A14*%
X209300000Y-157625000D03*
X143433071Y-214376450D03*
X143500000Y-209225000D03*
X207843567Y-217710951D03*
%TO.N,~{AS}*%
X119700000Y-267600000D03*
X313946000Y-230055000D03*
X189725000Y-168000000D03*
X189725000Y-196905000D03*
X315062872Y-183437998D03*
X313837545Y-197934659D03*
X119575000Y-167697000D03*
%TO.N,A21*%
X181975000Y-201125000D03*
X311263981Y-201275000D03*
X310800000Y-241150000D03*
X180698426Y-187095800D03*
%TO.N,A2*%
X182925000Y-173150000D03*
X295192459Y-201609395D03*
X224600000Y-171825000D03*
X183600000Y-227175000D03*
X296325000Y-233100000D03*
X296125000Y-172975000D03*
X296348129Y-249153821D03*
X171602992Y-227110000D03*
X183525000Y-233275000D03*
%TO.N,UART_TX*%
X243900000Y-132800000D03*
X202500000Y-132475000D03*
%TO.N,UART_RX*%
X246350000Y-131975000D03*
X203625000Y-131575000D03*
%TO.N,~{CPST_SYNC}*%
X324975000Y-125950000D03*
%TO.N,AUDIO7*%
X171500000Y-142000000D03*
X154500000Y-142050000D03*
%TO.N,AUDIO6*%
X163750000Y-141225000D03*
X157059615Y-141248077D03*
%TO.N,AUDIO5*%
X160047706Y-143602523D03*
%TO.N,AUDIO4*%
X160168898Y-142559538D03*
%TO.N,AUDIO3*%
X163825000Y-135375000D03*
%TO.N,AUDIO2*%
X166550000Y-135347000D03*
%TO.N,AUDIO1*%
X168750000Y-135600000D03*
%TO.N,Net-(U15A-+)*%
X149100000Y-125475000D03*
%TO.N,Net-(U15A--)*%
X150900000Y-120550000D03*
%TO.N,DEBUG_IN*%
X251700000Y-253700000D03*
X174425000Y-169000000D03*
X200195254Y-168527000D03*
X201050000Y-253350000D03*
%TO.N,~{ROM_SELECT}*%
X216402444Y-254205547D03*
X196268217Y-173684811D03*
X216000000Y-232650000D03*
X196152000Y-178750000D03*
X232163732Y-254550000D03*
%TO.N,~{RAM_SELECT_1}*%
X236850000Y-195175000D03*
X166550000Y-196275000D03*
X241050000Y-233550000D03*
%TO.N,~{WRITE_LO}*%
X191428544Y-175259654D03*
X192525000Y-143400000D03*
X306000000Y-143675000D03*
X259802000Y-143975000D03*
X237561187Y-143810698D03*
X283075000Y-143675000D03*
%TO.N,~{WRITE_HI}*%
X196674756Y-200200000D03*
X259319475Y-199775000D03*
X236802879Y-200350000D03*
X280882219Y-199746726D03*
X304316554Y-199725000D03*
X159400000Y-172500000D03*
X196150000Y-172120000D03*
%TO.N,~{RAM_SELECT_2}*%
X166475000Y-195200000D03*
X260950000Y-195250000D03*
%TO.N,~{RAM_SELECT_3}*%
X164268182Y-196550000D03*
X283050000Y-198275000D03*
%TO.N,~{RAM_SELECT_4}*%
X306771640Y-199348000D03*
X163250000Y-197650000D03*
X307764233Y-233169318D03*
%TO.N,~{CF_CS1}*%
X161650000Y-182450000D03*
X181225000Y-182775000D03*
%TO.N,~{IO_IRQ}*%
X236250000Y-117975000D03*
X236250000Y-144550000D03*
X154243762Y-150168355D03*
%TO.N,OBVID_TDI*%
X310459823Y-188073133D03*
X189688241Y-183318541D03*
X189404200Y-188400000D03*
X312050000Y-174275000D03*
%TO.N,~{OBVID_SELECT}*%
X190601388Y-178969740D03*
X190717800Y-189204712D03*
X338125000Y-187600000D03*
%TO.N,JTAG_TCK*%
X165042992Y-194467929D03*
X194163434Y-193782283D03*
X353875000Y-187175000D03*
X351675000Y-201950000D03*
X194148000Y-202413432D03*
%TO.N,JTAG_TMS*%
X192850000Y-187399997D03*
X191467000Y-202600000D03*
X326099559Y-202855200D03*
X325150000Y-184800000D03*
X160381148Y-188728599D03*
%TO.N,JTAG_TDO*%
X178925000Y-138350000D03*
X345075000Y-134825000D03*
X178375000Y-154975000D03*
%TO.N,JTAG_TDI*%
X158963522Y-157815000D03*
%TO.N,~{CF_CS0}*%
X147907418Y-253324175D03*
X148149247Y-181046861D03*
%TO.N,VGA_BLUE*%
X331300000Y-119050000D03*
%TO.N,CPST_PIXEL*%
X342800000Y-117375000D03*
X292950000Y-117000000D03*
%TO.N,Net-(C35-Pad2)*%
X294375000Y-118475000D03*
%TO.N,Net-(C35-Pad1)*%
X299275000Y-121450000D03*
%TO.N,Net-(J6-In)*%
X299675000Y-104400000D03*
X299600000Y-109400000D03*
%TO.N,VGA_VSYNC*%
X337675000Y-110300000D03*
X340425000Y-192000000D03*
%TO.N,VGA_HSYNC*%
X337300000Y-111550000D03*
%TO.N,VGA_R1*%
X321450000Y-170800000D03*
%TO.N,VGA_G0*%
X340425000Y-166525000D03*
X346950000Y-166850000D03*
%TO.N,VGA_G2*%
X333375000Y-167525000D03*
X340525000Y-167500000D03*
%TO.N,VGA_G1*%
X335729200Y-167975000D03*
%TO.N,VGA_R2*%
X316425000Y-169525000D03*
%TO.N,PIXEL_CLK*%
X334775000Y-153325000D03*
%TO.N,VGA_CLK_ENB*%
X334475000Y-144800000D03*
%TO.N,VGA_R0*%
X325056879Y-166900000D03*
X332275000Y-167475000D03*
%TO.N,CPST_CLK_ENB*%
X331625000Y-157675000D03*
%TO.N,OBVID_STALL*%
X173925000Y-190050000D03*
X344125000Y-192325000D03*
%TO.N,~{OBVID_IRQ}*%
X314450000Y-142050000D03*
X172475000Y-141550000D03*
X315175000Y-167675000D03*
%TO.N,AUDIO_LE*%
X151035000Y-148050000D03*
X188425000Y-146598000D03*
%TO.N,IO_RESET*%
X191475000Y-134650000D03*
X241550000Y-134075000D03*
X191475000Y-185550000D03*
%TO.N,~{IO_IACK_SCK}*%
X237199381Y-142825000D03*
X152345897Y-145564295D03*
X155241498Y-187670686D03*
%TO.N,~{ENGINE_DTACK}*%
X332050000Y-194175000D03*
X168600000Y-184225000D03*
X168675000Y-180875000D03*
X188600000Y-193325000D03*
X188800000Y-180875000D03*
%TO.N,~{ENGINE_SELECT}*%
X339825000Y-203450000D03*
X163400000Y-174650000D03*
X201725000Y-203031000D03*
X201800000Y-174700000D03*
X163750000Y-181500000D03*
%TO.N,~{ENGINE_IRQ}*%
X154250000Y-213550000D03*
X188425000Y-200925000D03*
X328497800Y-201181459D03*
X152359038Y-189647464D03*
X189075000Y-213150000D03*
%TO.N,~{IO_DTACK_MISO}*%
X154333684Y-147179488D03*
X234944967Y-143663001D03*
%TO.N,ENGINE_TMS*%
X194213733Y-192232283D03*
X195570000Y-183450000D03*
X285700000Y-194175000D03*
X285975707Y-232174293D03*
%TO.N,ENGINE_TDO*%
X169575000Y-209500000D03*
X190225000Y-209850000D03*
X191025000Y-207475000D03*
X347450000Y-206875000D03*
%TO.N,ENGINE_TDI*%
X318925000Y-207400000D03*
X165100000Y-208775000D03*
X318725000Y-222825000D03*
%TO.N,~{IO_SELECT_MOSI}*%
X155362001Y-148343203D03*
X233275000Y-143925000D03*
%TO.N,~{ENGINE_IACK}*%
X195800000Y-203021000D03*
X327556970Y-204225000D03*
X194779889Y-177133712D03*
%TO.N,ENGINE_TCK*%
X353500000Y-252650000D03*
X354037500Y-236512500D03*
X168565502Y-248785930D03*
%TO.N,Net-(J7-Pad4)*%
X168700000Y-130000000D03*
%TO.N,Net-(J7-Pad2)*%
X173800000Y-104825000D03*
%TO.N,CPUCLK*%
X339025000Y-188825000D03*
X183475000Y-238100000D03*
X150832665Y-189954044D03*
X174775000Y-238050000D03*
X161369037Y-189759869D03*
X151834814Y-202209033D03*
X183300000Y-262125000D03*
X158474200Y-224700000D03*
%TO.N,FC0*%
X181850000Y-273400000D03*
X309387884Y-248737116D03*
X189331200Y-203975000D03*
X308361106Y-199725000D03*
X181375000Y-222475000D03*
X189303287Y-200349571D03*
%TO.N,FC1*%
X215225000Y-256550000D03*
X315764545Y-198409200D03*
X315475000Y-245400000D03*
X190996416Y-198079206D03*
X190957398Y-206427176D03*
X184925000Y-220775000D03*
X185800000Y-254225000D03*
X179825000Y-220725000D03*
%TO.N,FC2*%
X318644102Y-196885118D03*
X186450000Y-217850000D03*
X224250000Y-255875000D03*
X194688301Y-209550000D03*
X194625000Y-195730387D03*
X178613000Y-218029795D03*
X310550256Y-196377730D03*
X178075000Y-208625000D03*
X186875000Y-253475000D03*
X310652000Y-247809200D03*
%TD*%
D42*
%TO.N,OBVID_TDI*%
X317925000Y-147975000D02*
X317925000Y-174585000D01*
%TO.N,JTAG_TDO*%
X344735800Y-145300000D02*
X344735800Y-135164200D01*
%TO.N,~{RESET}*%
X333875000Y-261600000D02*
X332500000Y-262975000D01*
X335280000Y-218130000D02*
X333875000Y-219535000D01*
X211146429Y-269427289D02*
X211182696Y-269463556D01*
X307890000Y-273525000D02*
X306700000Y-272335000D01*
X146572246Y-200852194D02*
X146723000Y-201002948D01*
X168875000Y-263150000D02*
X168948000Y-263077000D01*
X336241200Y-218130000D02*
X336881200Y-217490000D01*
X313400000Y-268325000D02*
X313400000Y-264819888D01*
X211146429Y-262400000D02*
X211146429Y-269427289D01*
X146723000Y-207614029D02*
X146340309Y-207996720D01*
X147275000Y-197975000D02*
X147275000Y-199507408D01*
X335280000Y-218130000D02*
X336241200Y-218130000D01*
X333875000Y-219535000D02*
X333875000Y-261600000D01*
X146340309Y-207996720D02*
X146340309Y-263015309D01*
X336504200Y-172444385D02*
X336504200Y-171645615D01*
X168850000Y-263125000D02*
X168875000Y-263150000D01*
X168948000Y-263077000D02*
X168948000Y-253844000D01*
X336498000Y-196396159D02*
X336498000Y-172450585D01*
X146340309Y-263015309D02*
X146450000Y-263125000D01*
X306700000Y-272335000D02*
X306700000Y-268355000D01*
X336881200Y-196779358D02*
X336498000Y-196396159D01*
X146572246Y-200210162D02*
X146572246Y-200852194D01*
X336881200Y-217490000D02*
X336881200Y-196779358D01*
X313400000Y-264819888D02*
X315575000Y-262644888D01*
X336498000Y-172450585D02*
X336504200Y-172444385D01*
X146450000Y-263125000D02*
X168850000Y-263125000D01*
X147275000Y-199507408D02*
X146572246Y-200210162D01*
X146723000Y-201002948D02*
X146723000Y-207614029D01*
X336504200Y-171645615D02*
X336100000Y-171241415D01*
X336100000Y-171241415D02*
X336100000Y-170922309D01*
%TO.N,Net-(U16-XTAL1)*%
X266710000Y-136815000D02*
X266710000Y-125340000D01*
X266710000Y-125340000D02*
X266825000Y-125225000D01*
%TO.N,Net-(U16-XTAL2)*%
X264170000Y-133445000D02*
X264170000Y-136815000D01*
X264050000Y-133325000D02*
X264170000Y-133445000D01*
X264050000Y-132725000D02*
X264050000Y-133325000D01*
%TO.N,Net-(C25-Pad1)*%
X156800000Y-117450000D02*
X156900000Y-117550000D01*
X156900000Y-117550000D02*
X156900000Y-121025000D01*
%TO.N,Net-(C26-Pad2)*%
X170375000Y-114000000D02*
X170500000Y-114125000D01*
X165525000Y-113175000D02*
X165394888Y-113305112D01*
X165394888Y-113305112D02*
X165394888Y-121950000D01*
X170500000Y-114125000D02*
X170500000Y-118625000D01*
%TO.N,Net-(D1-K)*%
X294515000Y-275875000D02*
X294515000Y-269500000D01*
X294515000Y-269500000D02*
X293275000Y-268260000D01*
%TO.N,Net-(D2-K)*%
X277400000Y-274710000D02*
X278565000Y-275875000D01*
X277400000Y-268260000D02*
X277400000Y-274710000D01*
%TO.N,DEBUG_OUT*%
X188048000Y-203531159D02*
X187466041Y-202949200D01*
X190622000Y-275847000D02*
X190622000Y-230064032D01*
X187466041Y-202949200D02*
X186815615Y-202949200D01*
X192050000Y-277275000D02*
X190622000Y-275847000D01*
X186250800Y-202384385D02*
X186250800Y-199844385D01*
X186815615Y-202949200D02*
X186250800Y-202384385D01*
X185639200Y-190249200D02*
X184675000Y-189285000D01*
X186250800Y-199844385D02*
X185639200Y-199232785D01*
X188872612Y-227696094D02*
X188179200Y-227002682D01*
X189326596Y-229435000D02*
X188872612Y-228981016D01*
X190622000Y-230064032D02*
X189992968Y-229435000D01*
X188179200Y-203862359D02*
X188048000Y-203731159D01*
X188048000Y-203731159D02*
X188048000Y-203531159D01*
X188872612Y-228981016D02*
X188872612Y-227696094D01*
X185639200Y-199232785D02*
X185639200Y-190249200D01*
X189992968Y-229435000D02*
X189326596Y-229435000D01*
X188179200Y-227002682D02*
X188179200Y-203862359D01*
%TO.N,KBD_DATA*%
X235177000Y-130452000D02*
X235450000Y-130725000D01*
X248930000Y-131670000D02*
X248930000Y-136815000D01*
X233210000Y-109080000D02*
X235177000Y-111047000D01*
X249225000Y-131375000D02*
X248930000Y-131670000D01*
X235177000Y-111047000D02*
X235177000Y-130452000D01*
%TO.N,KBD_CLK*%
X239560000Y-106540000D02*
X242363000Y-109343000D01*
X251525000Y-129950000D02*
X251470000Y-130005000D01*
X251470000Y-130005000D02*
X251470000Y-136815000D01*
X242363000Y-129312000D02*
X241925000Y-129750000D01*
X242363000Y-109343000D02*
X242363000Y-129312000D01*
%TO.N,MOUSE_CLK*%
X260143000Y-133222000D02*
X256550000Y-136815000D01*
X262392000Y-106592000D02*
X260143000Y-108841000D01*
X260143000Y-108841000D02*
X260143000Y-133222000D01*
%TO.N,MOUSE_DATA*%
X256042000Y-109132000D02*
X255063000Y-110111000D01*
X255063000Y-110111000D02*
X255063000Y-135746517D01*
X254743000Y-136066517D02*
X254743000Y-136082000D01*
X254743000Y-136082000D02*
X254010000Y-136815000D01*
X255063000Y-135746517D02*
X254743000Y-136066517D01*
%TO.N,D15*%
X308202000Y-222206366D02*
X308202000Y-232382976D01*
X307650000Y-235140153D02*
X307680953Y-235109200D01*
X306919876Y-220924242D02*
X308202000Y-222206366D01*
X307879000Y-200475162D02*
X307879000Y-218325927D01*
X307680953Y-235109200D02*
X307810230Y-235109200D01*
X307586106Y-200182268D02*
X307879000Y-200475162D01*
X142375000Y-211211092D02*
X142241826Y-211344266D01*
X308537997Y-234381433D02*
X307810230Y-235109200D01*
X308600000Y-198526342D02*
X307586106Y-199540236D01*
X307586106Y-199540236D02*
X307586106Y-200182268D01*
X307879000Y-218325927D02*
X306919876Y-219285051D01*
X306919876Y-219285051D02*
X306919876Y-220924242D01*
X307650000Y-238150000D02*
X307650000Y-235140153D01*
X308600000Y-190521000D02*
X308600000Y-198526342D01*
X142241826Y-211344266D02*
X142241826Y-212298614D01*
X142375000Y-212431789D02*
X142375000Y-236500000D01*
X142375000Y-178900000D02*
X142375000Y-211211092D01*
X308202000Y-232382976D02*
X308537997Y-232718973D01*
X142375000Y-236500000D02*
X142175000Y-236700000D01*
X308537997Y-232718973D02*
X308537997Y-234381433D01*
X142241826Y-212298614D02*
X142375000Y-212431789D01*
%TO.N,A18*%
X218925000Y-154175000D02*
X218925000Y-154500000D01*
X146575000Y-199674250D02*
X146195246Y-200054004D01*
X145102000Y-154798000D02*
X145102000Y-188450595D01*
X145029000Y-189456405D02*
X146575000Y-191002405D01*
X146575000Y-199100000D02*
X146575000Y-199674250D01*
X147475000Y-152425000D02*
X145102000Y-154798000D01*
X218675000Y-153925000D02*
X218925000Y-154175000D01*
X145565309Y-210448467D02*
X145963309Y-210846467D01*
X146346000Y-206895013D02*
X145565309Y-207675704D01*
X145029000Y-188523595D02*
X145029000Y-189456405D01*
X145963309Y-211976423D02*
X145565309Y-212374423D01*
X145102000Y-188450595D02*
X145029000Y-188523595D01*
X146575000Y-191002405D02*
X146575000Y-199100000D01*
X218675000Y-151925000D02*
X218675000Y-153925000D01*
X145963309Y-210846467D02*
X145963309Y-211976423D01*
X302525000Y-213998000D02*
X301925000Y-213398000D01*
X145565309Y-207675704D02*
X145565309Y-210448467D01*
X146195246Y-200054004D02*
X146195246Y-201008352D01*
X146346000Y-201159107D02*
X146346000Y-206895013D01*
X302525000Y-244800000D02*
X302525000Y-213998000D01*
X146195246Y-201008352D02*
X146346000Y-201159107D01*
%TO.N,A20*%
X150738000Y-195070967D02*
X149645564Y-195070967D01*
X159275000Y-207065000D02*
X159275000Y-246375000D01*
X149645564Y-195070967D02*
X149349580Y-194774983D01*
X351675000Y-242145000D02*
X350520000Y-240990000D01*
X150738000Y-200610357D02*
X150738000Y-195070967D01*
X149677000Y-207350007D02*
X149928814Y-207098193D01*
X149928814Y-201419543D02*
X150738000Y-200610357D01*
X149928814Y-207098193D02*
X149928814Y-201419543D01*
X159275000Y-246375000D02*
X158925000Y-246725000D01*
X351675000Y-251275000D02*
X351675000Y-242145000D01*
%TO.N,~{BG}*%
X306861144Y-253677587D02*
X309109752Y-251428979D01*
X308612884Y-248416100D02*
X309109752Y-247919232D01*
X309291998Y-232406658D02*
X309041996Y-232156655D01*
X309109752Y-242155244D02*
X308894000Y-241939492D01*
X309291998Y-239962511D02*
X309291998Y-232406658D01*
X122925000Y-246200000D02*
X122150000Y-246975000D01*
X307694876Y-219633307D02*
X307694876Y-219606067D01*
X122118834Y-180206166D02*
X122500000Y-180587332D01*
X309041996Y-220980427D02*
X307694876Y-219633307D01*
X309109752Y-247919232D02*
X309109752Y-242155244D01*
X308894000Y-241939492D02*
X308894000Y-240360509D01*
X308612884Y-249058132D02*
X308612884Y-248416100D01*
X122500000Y-245474750D02*
X122925000Y-245899750D01*
X122925000Y-245899750D02*
X122925000Y-246200000D01*
X309109752Y-249555000D02*
X308612884Y-249058132D01*
X309041996Y-232156655D02*
X309041996Y-220980427D01*
X122500000Y-180587332D02*
X122500000Y-245474750D01*
X308894000Y-240360509D02*
X309291998Y-239962511D01*
X309109752Y-251428979D02*
X309109752Y-249555000D01*
%TO.N,~{LDS}*%
X178500000Y-168257675D02*
X178500000Y-173058158D01*
X215825000Y-167725000D02*
X216300000Y-168200000D01*
X182700000Y-241760326D02*
X182700000Y-237550000D01*
X315477000Y-184502857D02*
X315079000Y-184502857D01*
X178500000Y-173058158D02*
X178019200Y-173538958D01*
X256253571Y-262425000D02*
X256253571Y-252528571D01*
X154639800Y-189652466D02*
X154639800Y-190215325D01*
X178650000Y-192473789D02*
X178650000Y-198930800D01*
X178389391Y-191571148D02*
X178389391Y-192213180D01*
X155016800Y-190592325D02*
X155016800Y-196977909D01*
X178019200Y-173538958D02*
X178019200Y-179524385D01*
X177672000Y-185947000D02*
X178650000Y-186925000D01*
X182300000Y-213284678D02*
X181058395Y-212043073D01*
X182700000Y-252000000D02*
X182700000Y-243489674D01*
X315477000Y-193141596D02*
X315482306Y-193136290D01*
X151105000Y-184458984D02*
X151875000Y-185228984D01*
X182700000Y-237550000D02*
X182300000Y-237150000D01*
X314789000Y-199860873D02*
X314546000Y-199617874D01*
X151105000Y-180706936D02*
X151105000Y-184458984D01*
X150691000Y-173195000D02*
X150690999Y-180291523D01*
X314612545Y-198421139D02*
X314612545Y-197932026D01*
X151875000Y-185228984D02*
X151875000Y-186887666D01*
X314323000Y-231630800D02*
X314721000Y-231232800D01*
X216300000Y-170683752D02*
X216300000Y-188917170D01*
X178389391Y-192213180D02*
X178650000Y-192473789D01*
X150867000Y-180467525D02*
X150867000Y-180468937D01*
X315079000Y-184502857D02*
X315079000Y-192732984D01*
X216300000Y-188917170D02*
X214873170Y-190344000D01*
X154639800Y-190215325D02*
X155016800Y-190592325D01*
X150867000Y-180468937D02*
X151105000Y-180706936D01*
X182300000Y-237150000D02*
X182300000Y-213284678D01*
X314721000Y-231232800D02*
X314721000Y-202757126D01*
X216014264Y-169476991D02*
X216014264Y-170398016D01*
X183087500Y-243102174D02*
X183087500Y-242147826D01*
X178650000Y-191310539D02*
X178389391Y-191571148D01*
X314612545Y-197932026D02*
X315477000Y-197067571D01*
X315079000Y-192732984D02*
X315482306Y-193136290D01*
X216014264Y-170398016D02*
X216300000Y-170683752D01*
X173023000Y-200040276D02*
X173023000Y-211777000D01*
X173695860Y-199367416D02*
X173023000Y-200040276D01*
X314789000Y-202689126D02*
X314789000Y-199860873D01*
X314721000Y-202757126D02*
X314789000Y-202689126D01*
X178300000Y-166750000D02*
X178300000Y-168057674D01*
X315477000Y-197067571D02*
X315477000Y-193141596D01*
X178650000Y-186925000D02*
X178650000Y-191310539D01*
X178300000Y-168057674D02*
X178500000Y-168257675D01*
X216300000Y-169191255D02*
X216014264Y-169476991D01*
X151875000Y-186887666D02*
X154639800Y-189652466D01*
X183087500Y-242147826D02*
X182700000Y-241760326D01*
X155016800Y-196977909D02*
X155399990Y-197361099D01*
X314546000Y-198487684D02*
X314612545Y-198421139D01*
X182700000Y-243489674D02*
X183087500Y-243102174D01*
X150371000Y-172875000D02*
X150691000Y-173195000D01*
X216300000Y-168200000D02*
X216300000Y-169191255D01*
X150690999Y-180291523D02*
X150867000Y-180467525D01*
X177672000Y-179871585D02*
X177672000Y-185947000D01*
X178650000Y-198930800D02*
X178794200Y-199075000D01*
X178019200Y-179524385D02*
X177672000Y-179871585D01*
X173023000Y-211777000D02*
X172725000Y-212075000D01*
X314546000Y-199617874D02*
X314546000Y-198487684D01*
X256253571Y-252528571D02*
X256100000Y-252375000D01*
%TO.N,A10*%
X210300000Y-222900000D02*
X210300000Y-224000000D01*
X301548000Y-223517000D02*
X301250000Y-223517000D01*
X301750000Y-249000000D02*
X301750000Y-244558159D01*
X210975000Y-222225000D02*
X210300000Y-222900000D01*
X190448000Y-219490000D02*
X190846000Y-219888000D01*
X210300000Y-224000000D02*
X210325000Y-224025000D01*
X301750000Y-244558159D02*
X301548000Y-244356158D01*
X190846000Y-223783000D02*
X190604000Y-224025000D01*
X210975000Y-162975000D02*
X210975000Y-222225000D01*
X190846000Y-219888000D02*
X190846000Y-223783000D01*
X301548000Y-244356158D02*
X301548000Y-223517000D01*
%TO.N,D8*%
X193981000Y-217997648D02*
X194454016Y-217524632D01*
X193373000Y-202238432D02*
X193973000Y-201638432D01*
X316350000Y-192374810D02*
X316652000Y-192676810D01*
X193102243Y-183168374D02*
X193102243Y-180230691D01*
X193448000Y-165022728D02*
X193875000Y-164595729D01*
X316250000Y-226227000D02*
X316250000Y-236004712D01*
X194454016Y-215633336D02*
X193981000Y-215160320D01*
X193842000Y-176074846D02*
X193842000Y-173779351D01*
X193973000Y-201638432D02*
X193973000Y-196707562D01*
X193292015Y-165646826D02*
X193448000Y-165490841D01*
X193973000Y-196707562D02*
X193286758Y-196021320D01*
X316350000Y-188200016D02*
X316350000Y-192374810D01*
X193026871Y-191547712D02*
X194543669Y-190030914D01*
X316250000Y-236004712D02*
X315748736Y-236505976D01*
X194543669Y-190030914D02*
X194543669Y-187833144D01*
X316629000Y-187278984D02*
X316629000Y-187921016D01*
X315575000Y-178150000D02*
X316350000Y-178925000D01*
X193102243Y-180230691D02*
X193261389Y-180071545D01*
X316652000Y-192676810D02*
X316652000Y-225825000D01*
X193981000Y-203342449D02*
X193373000Y-202734448D01*
X197715000Y-238045000D02*
X193981000Y-234311000D01*
X193448000Y-165490841D02*
X193448000Y-165022728D01*
X316350000Y-178925000D02*
X316350000Y-186999984D01*
X193373000Y-202734448D02*
X193373000Y-202238432D01*
X193286758Y-196021320D02*
X193286758Y-192934482D01*
X193292015Y-166601761D02*
X193292015Y-165646826D01*
X194454016Y-217524632D02*
X194454016Y-215633336D01*
X193261389Y-180071545D02*
X193261389Y-176655457D01*
X193981000Y-215160320D02*
X193981000Y-203342449D01*
X193286758Y-192934482D02*
X193026871Y-192674595D01*
X316652000Y-225825000D02*
X316250000Y-226227000D01*
X316629000Y-187921016D02*
X316350000Y-188200016D01*
X193962804Y-173658547D02*
X193962804Y-167272550D01*
X194323000Y-187612475D02*
X194323000Y-184389131D01*
X316350000Y-186999984D02*
X316629000Y-187278984D01*
X193962804Y-167272550D02*
X193292015Y-166601761D01*
X193875000Y-164595729D02*
X193875000Y-161375000D01*
X194543669Y-187833144D02*
X194323000Y-187612475D01*
X193981000Y-234311000D02*
X193981000Y-217997648D01*
X193261389Y-176655457D02*
X193842000Y-176074846D01*
X193026871Y-192674595D02*
X193026871Y-191547712D01*
X194323000Y-184389131D02*
X193102243Y-183168374D01*
X193842000Y-173779351D02*
X193962804Y-173658547D01*
%TO.N,A7*%
X297275000Y-248350000D02*
X297275000Y-221150000D01*
X202525000Y-160850000D02*
X202525000Y-214695825D01*
X202525000Y-215654174D02*
X202525000Y-219575000D01*
X202523000Y-214697826D02*
X202523000Y-215652175D01*
X202525000Y-219575000D02*
X203250000Y-220300000D01*
X297275000Y-221150000D02*
X296400000Y-220275000D01*
X152044098Y-226793902D02*
X152044098Y-219767973D01*
X202523000Y-215652175D02*
X202525000Y-215654174D01*
X202525000Y-214695825D02*
X202523000Y-214697826D01*
X152044098Y-219767973D02*
X151663000Y-219386875D01*
X151663000Y-227175000D02*
X152044098Y-226793902D01*
%TO.N,D2*%
X177998000Y-163111167D02*
X177998000Y-160298000D01*
X310638569Y-181224341D02*
X310766282Y-181096628D01*
X300575000Y-225050000D02*
X300521000Y-224996000D01*
X310638569Y-182474537D02*
X310638569Y-181224341D01*
X193669016Y-165804394D02*
X193669015Y-166445603D01*
X193669015Y-166445603D02*
X194548000Y-167324588D01*
X177838000Y-250669000D02*
X177838000Y-211038000D01*
X194650000Y-164353887D02*
X193825000Y-165178887D01*
X177300000Y-208183585D02*
X178019200Y-207464385D01*
X264170000Y-121575000D02*
X263117000Y-122628000D01*
X300575000Y-183380000D02*
X300250000Y-183055000D01*
X300521000Y-224996000D02*
X300521000Y-214137684D01*
X193638389Y-176811617D02*
X193638389Y-182608504D01*
X194342915Y-173811595D02*
X194219000Y-173935510D01*
X160142000Y-159244000D02*
X160975000Y-160077000D01*
X193825000Y-165178887D02*
X193825000Y-165648410D01*
X300521000Y-214137684D02*
X300575000Y-214083683D01*
X300575000Y-214083683D02*
X300575000Y-183380000D01*
X263117000Y-122628000D02*
X263117000Y-145854595D01*
X310766282Y-181096628D02*
X310766282Y-180663435D01*
X178019200Y-194659200D02*
X177725000Y-194365000D01*
X178019200Y-207464385D02*
X178019200Y-194659200D01*
X177998000Y-160298000D02*
X177950000Y-160250000D01*
X194548000Y-172830425D02*
X194342915Y-173035510D01*
X177838000Y-211038000D02*
X177300000Y-210500000D01*
X160142000Y-144792833D02*
X160142000Y-159244000D01*
X175150000Y-194150000D02*
X175150000Y-179853585D01*
X194650000Y-160200000D02*
X194650000Y-164353887D01*
X194548000Y-167324588D02*
X194548000Y-172830425D01*
X310766282Y-180663435D02*
X312874951Y-178554766D01*
X175479200Y-165629967D02*
X177998000Y-163111167D01*
X264150000Y-146887595D02*
X264150000Y-182002000D01*
X177300000Y-210500000D02*
X177300000Y-208183585D01*
X194219000Y-173935510D02*
X194219000Y-176231006D01*
X158655000Y-137175000D02*
X158655000Y-143305833D01*
X194342915Y-173035510D02*
X194342915Y-173811595D01*
X263117000Y-145854595D02*
X264150000Y-146887595D01*
X175479200Y-179524385D02*
X175479200Y-165629967D01*
X158655000Y-143305833D02*
X160142000Y-144792833D01*
X193638389Y-182608504D02*
X193775905Y-182746020D01*
X193825000Y-165648410D02*
X193669016Y-165804394D01*
X175150000Y-179853585D02*
X175479200Y-179524385D01*
X194219000Y-176231006D02*
X193638389Y-176811617D01*
%TO.N,A4*%
X170575000Y-228900000D02*
X170575000Y-233675000D01*
X200350000Y-170390000D02*
X200350000Y-227175000D01*
X291525000Y-249625000D02*
X291525000Y-244373217D01*
X289665000Y-167815000D02*
X293100000Y-171250000D01*
X293100000Y-175171016D02*
X292961996Y-175309020D01*
X293100000Y-171250000D02*
X293100000Y-175171016D01*
X231150000Y-121575000D02*
X229663000Y-123062000D01*
X291525000Y-244373217D02*
X291500000Y-244348217D01*
X229663000Y-123062000D02*
X229663000Y-166524000D01*
X170575000Y-209987143D02*
X170523000Y-209935142D01*
X170575000Y-228900000D02*
X170575000Y-209987143D01*
X170218000Y-250669000D02*
X170218000Y-234032000D01*
X170523000Y-185224409D02*
X170575000Y-185172408D01*
X170218000Y-234032000D02*
X170300000Y-233950000D01*
X170523000Y-209935142D02*
X170523000Y-185224409D01*
X179595000Y-176585000D02*
X178396200Y-177783800D01*
X170575000Y-185172408D02*
X170575000Y-184950996D01*
X292961996Y-175309020D02*
X292961996Y-195493393D01*
X178396200Y-177783800D02*
X178396200Y-179680544D01*
X170575000Y-233675000D02*
X170300000Y-233950000D01*
X178396200Y-179680544D02*
X178325000Y-179751743D01*
X197775000Y-167815000D02*
X200350000Y-170390000D01*
X178325000Y-179751743D02*
X178325000Y-185005800D01*
X229663000Y-166524000D02*
X229425000Y-166762000D01*
X289605000Y-227885000D02*
X291500000Y-229780000D01*
X170575000Y-184950996D02*
X170451575Y-184827571D01*
X292961996Y-195493393D02*
X292604389Y-195851000D01*
X291500000Y-229780000D02*
X291500000Y-244348217D01*
%TO.N,A15*%
X218000000Y-215175000D02*
X217925000Y-215250000D01*
X208475000Y-207015833D02*
X208908000Y-207448833D01*
X144157580Y-208786564D02*
X144157580Y-212217611D01*
X350520000Y-220670000D02*
X351475000Y-219715000D01*
X143975000Y-207400000D02*
X143975000Y-208603984D01*
X144945492Y-213619698D02*
X145627217Y-214301423D01*
X144157580Y-212217611D02*
X143851509Y-212523682D01*
X351475000Y-219715000D02*
X351475000Y-211900000D01*
X208908000Y-213213000D02*
X208150000Y-213971000D01*
X208475000Y-155325000D02*
X208475000Y-207015833D01*
X143851509Y-213165714D02*
X144305493Y-213619698D01*
X143800000Y-207225000D02*
X143975000Y-207400000D01*
X218000000Y-212700000D02*
X218000000Y-215175000D01*
X144305493Y-213619698D02*
X144945492Y-213619698D01*
X143975000Y-208603984D02*
X144157580Y-208786564D01*
X208908000Y-207448833D02*
X208908000Y-213213000D01*
X143851509Y-212523682D02*
X143851509Y-213165714D01*
%TO.N,D11*%
X313530000Y-197146188D02*
X314261913Y-196414275D01*
X314261913Y-241468146D02*
X313925000Y-241131233D01*
X313965000Y-202446809D02*
X314035000Y-202376809D01*
X313530000Y-197147602D02*
X313530000Y-197146188D01*
X313887679Y-234785610D02*
X314261913Y-234411376D01*
X313171000Y-230850000D02*
X313171000Y-229758174D01*
X314261913Y-233891088D02*
X313171000Y-232800175D01*
X313063545Y-197614057D02*
X313530000Y-197147602D01*
X314035000Y-202376809D02*
X314035000Y-200173191D01*
X135630399Y-171144601D02*
X135630399Y-246252107D01*
X313925000Y-241131233D02*
X313925000Y-239929445D01*
X313063545Y-198255260D02*
X313063545Y-197614057D01*
X313887679Y-236974060D02*
X313887679Y-234785610D01*
X314261913Y-182480504D02*
X313550000Y-181768591D01*
X313171000Y-229758174D02*
X313965000Y-228964174D01*
X314261913Y-237348294D02*
X313887679Y-236974060D01*
X138025000Y-168750000D02*
X135630399Y-171144601D01*
X314261913Y-196414275D02*
X314261913Y-182480504D01*
X313750000Y-246250000D02*
X314261913Y-245738087D01*
X313925000Y-239929445D02*
X314261913Y-239592532D01*
X313318823Y-198510537D02*
X313063545Y-198255260D01*
X314035000Y-200173191D02*
X313318823Y-199457016D01*
X313965000Y-228964174D02*
X313965000Y-202446809D01*
X314261913Y-234411376D02*
X314261913Y-233891088D01*
X313318823Y-199457016D02*
X313318823Y-198510537D01*
X314261913Y-239592532D02*
X314261913Y-237348294D01*
X314261913Y-245738087D02*
X314261913Y-241468146D01*
X313171000Y-232800175D02*
X313171000Y-230850000D01*
%TO.N,D9*%
X311810878Y-196732675D02*
X311554545Y-196989009D01*
X193596000Y-201336258D02*
X193596000Y-196863720D01*
X192649871Y-191391554D02*
X194166669Y-189874756D01*
X311642000Y-222324318D02*
X311642000Y-231483333D01*
X194166669Y-189874756D02*
X194166669Y-187989303D01*
X194077016Y-217368474D02*
X194077016Y-215789494D01*
X193465000Y-173456402D02*
X193584804Y-173336598D01*
X193584804Y-167429122D02*
X192914015Y-166758333D01*
X192909758Y-193090642D02*
X192649871Y-192830754D01*
X311554545Y-198880310D02*
X311809823Y-199135587D01*
X338200000Y-228975000D02*
X338050000Y-228825000D01*
X312527000Y-201752174D02*
X312018000Y-202261174D01*
X312527000Y-200797826D02*
X312527000Y-201752174D01*
X192649871Y-192830754D02*
X192649871Y-191391554D01*
X311225000Y-187077240D02*
X311810878Y-187663118D01*
X311809823Y-199135587D02*
X311809823Y-200080649D01*
X311979000Y-221987318D02*
X311642000Y-222324318D01*
X311554545Y-196989009D02*
X311554545Y-198880310D01*
X338200000Y-239850000D02*
X338200000Y-228975000D01*
X193596000Y-196863720D02*
X192909758Y-196177478D01*
X312173000Y-185619102D02*
X311225000Y-186567102D01*
X311809823Y-200080649D02*
X312527000Y-200797826D01*
X192725242Y-183324531D02*
X192725242Y-180074534D01*
X193041768Y-165363913D02*
X193041768Y-164332944D01*
X193465000Y-175918688D02*
X193465000Y-173456402D01*
X193604000Y-203498607D02*
X192996000Y-202890606D01*
X192884389Y-179915387D02*
X192884389Y-176499299D01*
X195725000Y-240625000D02*
X193181003Y-238081003D01*
X192725242Y-180074534D02*
X192884389Y-179915387D01*
X193175000Y-231775524D02*
X193175000Y-218270490D01*
X193584804Y-173336598D02*
X193584804Y-167429122D01*
X312018000Y-208343024D02*
X311979000Y-208382026D01*
X193175000Y-218270490D02*
X194077016Y-217368474D01*
X192914015Y-166758333D02*
X192914016Y-165491666D01*
X193175000Y-214887478D02*
X193175000Y-214766316D01*
X193946000Y-187768633D02*
X193946000Y-184545289D01*
X311810878Y-187663118D02*
X311810878Y-196732675D01*
X194077016Y-215789494D02*
X193175000Y-214887478D01*
X192996000Y-202890606D02*
X192996000Y-201936258D01*
X193181003Y-238081003D02*
X193181003Y-231781531D01*
X311663000Y-231504333D02*
X311663000Y-239299710D01*
X193946000Y-184545289D02*
X192725242Y-183324531D01*
X312018000Y-202261174D02*
X312018000Y-208343024D01*
X192884389Y-176499299D02*
X193465000Y-175918688D01*
X193181003Y-231781531D02*
X193181000Y-231781525D01*
X311979000Y-208382026D02*
X311979000Y-221987318D01*
X192909758Y-196177478D02*
X192909758Y-193090642D01*
X192996000Y-201936258D02*
X193596000Y-201336258D01*
X193181000Y-231781525D02*
X193175000Y-231775524D01*
X312173000Y-182619016D02*
X312173000Y-185619102D01*
X311663000Y-239299710D02*
X311987370Y-239624080D01*
X311225000Y-186567102D02*
X311225000Y-187077240D01*
X311978224Y-180540028D02*
X311978224Y-182424240D01*
X192914016Y-165491666D02*
X193041768Y-165363913D01*
X193604000Y-214337316D02*
X193604000Y-203498607D01*
X311642000Y-231483333D02*
X311663000Y-231504333D01*
X193175000Y-214766316D02*
X193604000Y-214337316D01*
X194166669Y-187989303D02*
X193946000Y-187768633D01*
X311978224Y-182424240D02*
X312173000Y-182619016D01*
%TO.N,D7*%
X248294000Y-135961833D02*
X247877000Y-136378833D01*
X350780000Y-177125000D02*
X349325000Y-175670000D01*
X306625000Y-200418050D02*
X306625000Y-218513611D01*
X158277000Y-199079415D02*
X159487215Y-197869200D01*
X161156148Y-189049615D02*
X160704000Y-189501763D01*
X306625000Y-176250000D02*
X306625000Y-198551272D01*
X190500000Y-172569352D02*
X190212590Y-172856762D01*
X160704000Y-189501763D02*
X160704000Y-192936000D01*
X248294000Y-137668167D02*
X248294000Y-174382000D01*
X160704000Y-161444016D02*
X160704000Y-187955435D01*
X307050000Y-222120684D02*
X307050000Y-223834783D01*
X349325000Y-175670000D02*
X349325000Y-173325000D01*
X156248000Y-250669000D02*
X157699200Y-249217800D01*
X306625000Y-198551272D02*
X305949876Y-199226396D01*
X157699200Y-249217800D02*
X157699200Y-200858958D01*
X247877000Y-136378833D02*
X247877000Y-137251167D01*
X307050000Y-223834783D02*
X306484783Y-224400000D01*
X306165876Y-218972735D02*
X306165876Y-221236560D01*
X190212590Y-175762246D02*
X189616124Y-176358712D01*
X168815000Y-158935000D02*
X168750000Y-159000000D01*
X159674385Y-197869200D02*
X160239200Y-197304385D01*
X306625000Y-218513611D02*
X306165876Y-218972735D01*
X190500000Y-159900000D02*
X190500000Y-172569352D01*
X159487215Y-197869200D02*
X159674385Y-197869200D01*
X161156148Y-188407583D02*
X161156148Y-189049615D01*
X158277000Y-200281158D02*
X158277000Y-199079415D01*
X305949876Y-199742926D02*
X306625000Y-200418050D01*
X305949876Y-199226396D02*
X305949876Y-199742926D01*
X168815000Y-144795000D02*
X168815000Y-158935000D01*
X189825000Y-159225000D02*
X190500000Y-159900000D01*
X160704000Y-187955435D02*
X161156148Y-188407583D01*
X160704000Y-192936000D02*
X159275000Y-194365000D01*
X247375000Y-125670000D02*
X247375000Y-130975000D01*
X160239200Y-195329200D02*
X159275000Y-194365000D01*
X247375000Y-130975000D02*
X248294000Y-131894000D01*
X160239200Y-197304385D02*
X160239200Y-195329200D01*
X306165876Y-221236560D02*
X307050000Y-222120684D01*
X157699200Y-200858958D02*
X158277000Y-200281158D01*
X190212590Y-172856762D02*
X190212590Y-175762246D01*
X161825000Y-160323016D02*
X160704000Y-161444016D01*
X247877000Y-137251167D02*
X248294000Y-137668167D01*
X248294000Y-131894000D02*
X248294000Y-135961833D01*
X248294000Y-174382000D02*
X250400000Y-176488000D01*
X161825000Y-159250000D02*
X161825000Y-160323016D01*
X251470000Y-121575000D02*
X247375000Y-125670000D01*
%TO.N,A6*%
X173012200Y-223250000D02*
X173012200Y-213458216D01*
X175856200Y-179680543D02*
X175856200Y-177783800D01*
X170900000Y-185380567D02*
X173150000Y-183130567D01*
X177055000Y-173970000D02*
X177055000Y-176585000D01*
X173059258Y-229261758D02*
X173012200Y-229214700D01*
X177848353Y-164346356D02*
X177600000Y-164594709D01*
X171950000Y-210828984D02*
X170900000Y-209778984D01*
X173012200Y-213458216D02*
X171950000Y-212396016D01*
X170900000Y-209778984D02*
X170900000Y-185380567D01*
X175856200Y-177783800D02*
X177055000Y-176585000D01*
X171950000Y-212396016D02*
X171950000Y-210828984D01*
X173012200Y-229214700D02*
X173012200Y-223250000D01*
X175850000Y-183400000D02*
X175850000Y-179686743D01*
X178123000Y-172902000D02*
X177055000Y-173970000D01*
X177600000Y-167890833D02*
X178123000Y-168413833D01*
X295075000Y-249550000D02*
X295075000Y-223200000D01*
X175850000Y-179686743D02*
X175856200Y-179680543D01*
X295075000Y-223200000D02*
X295375000Y-222900000D01*
X177600000Y-164594709D02*
X177600000Y-167890833D01*
X178123000Y-168413833D02*
X178123000Y-172902000D01*
%TO.N,~{BR}*%
X121025000Y-246470826D02*
X120838959Y-246656867D01*
X341910000Y-219120000D02*
X341910000Y-242475000D01*
X326350000Y-244825000D02*
X326350000Y-254850000D01*
X326350000Y-254850000D02*
X326575000Y-255075000D01*
X112275000Y-181100000D02*
X112275000Y-175371342D01*
X120838959Y-248434975D02*
X121025000Y-248621016D01*
X115165000Y-183990000D02*
X112275000Y-181100000D01*
X120838959Y-246656867D02*
X120838959Y-248434975D01*
X121025000Y-184300000D02*
X121025000Y-246470826D01*
X341910000Y-242475000D02*
X341135000Y-243250000D01*
X342900000Y-218130000D02*
X341910000Y-219120000D01*
%TO.N,A16*%
X344000000Y-242525000D02*
X344000000Y-221466743D01*
X204625000Y-211225000D02*
X204625000Y-153050000D01*
X144800000Y-210626281D02*
X144626509Y-210799772D01*
X144626509Y-210799772D02*
X144626509Y-212844698D01*
X144800000Y-204675000D02*
X144800000Y-210626281D01*
X204625000Y-153050000D02*
X204500000Y-152925000D01*
X204625000Y-212800000D02*
X204625000Y-211225000D01*
X344241200Y-209120184D02*
X343944167Y-208823151D01*
X344241200Y-221225543D02*
X344241200Y-209120184D01*
X344000000Y-221466743D02*
X344241200Y-221225543D01*
%TO.N,A9*%
X308350000Y-248145826D02*
X308350000Y-235536169D01*
X210175000Y-160275000D02*
X210175000Y-220150000D01*
X307534413Y-249488587D02*
X307534413Y-248961413D01*
X210175000Y-220150000D02*
X209825000Y-220500000D01*
X308579000Y-232226817D02*
X308579000Y-221487350D01*
X308579000Y-221487350D02*
X308107656Y-221016006D01*
X307534413Y-248961413D02*
X308350000Y-248145826D01*
X308350000Y-235536169D02*
X308914997Y-234971172D01*
X308914997Y-234971172D02*
X308914997Y-232562814D01*
X209825000Y-220500000D02*
X209825000Y-220977000D01*
X308914997Y-232562814D02*
X308579000Y-232226817D01*
%TO.N,A23*%
X154462000Y-198112526D02*
X154462000Y-192935818D01*
X154262799Y-190371482D02*
X154262799Y-189808623D01*
X154262799Y-189808623D02*
X151100000Y-186645824D01*
X155609323Y-198112526D02*
X154462000Y-198112526D01*
X155710093Y-200879694D02*
X155710093Y-198213296D01*
X154462000Y-192935818D02*
X154639800Y-192758018D01*
X151100000Y-186645824D02*
X151100000Y-185550000D01*
X346325000Y-205875000D02*
X346500000Y-206050000D01*
X154639800Y-190748483D02*
X154262799Y-190371482D01*
X346500000Y-236970000D02*
X347980000Y-238450000D01*
X346500000Y-206050000D02*
X346500000Y-236970000D01*
X154639800Y-192758018D02*
X154639800Y-190748483D01*
X155710093Y-198213296D02*
X155609323Y-198112526D01*
%TO.N,D4*%
X310300000Y-184328000D02*
X310300000Y-185892625D01*
X310300000Y-185892625D02*
X309684823Y-186507802D01*
X310221000Y-199146242D02*
X310221000Y-206185437D01*
X151059814Y-202530049D02*
X151059814Y-201888017D01*
X310625000Y-172425000D02*
X310625000Y-179730920D01*
X154012668Y-146404488D02*
X153558684Y-146858472D01*
X184675000Y-191825000D02*
X183400000Y-190550000D01*
X309486569Y-181310025D02*
X309486569Y-183514569D01*
X153675814Y-147617634D02*
X153675814Y-147727348D01*
X309684823Y-198610065D02*
X310221000Y-199146242D01*
X309684823Y-186507802D02*
X309684823Y-198610065D01*
X153675814Y-147727348D02*
X153975000Y-148026534D01*
X151869000Y-201078831D02*
X151869000Y-193828991D01*
X152438000Y-203908235D02*
X151059814Y-202530049D01*
X151059814Y-201888017D02*
X151869000Y-201078831D01*
X310435000Y-207790563D02*
X310435000Y-212687325D01*
X309989803Y-180806791D02*
X309486569Y-181310025D01*
X309722202Y-183750202D02*
X310300000Y-184328000D01*
X153380389Y-153155389D02*
X153600000Y-153375000D01*
X309989803Y-180366117D02*
X309989803Y-180806791D01*
X310508000Y-206472437D02*
X310508000Y-207717563D01*
X310435000Y-212687325D02*
X309971000Y-213151325D01*
X183750000Y-186306415D02*
X183750000Y-185325000D01*
X153558684Y-147500504D02*
X153675814Y-147617634D01*
X309971000Y-219048850D02*
X309621876Y-219397974D01*
X153975000Y-149393355D02*
X153380389Y-149987966D01*
X310508000Y-207717563D02*
X310435000Y-207790563D01*
X156115000Y-144795000D02*
X154505512Y-146404488D01*
X309486569Y-183514569D02*
X309722202Y-183750202D01*
X153558684Y-146858472D02*
X153558684Y-147500504D01*
X310221000Y-206185437D02*
X310508000Y-206472437D01*
X183400000Y-186656415D02*
X183750000Y-186306415D01*
X255497000Y-183255000D02*
X256350000Y-184108000D01*
X259090000Y-121575000D02*
X259090000Y-132785833D01*
X309971000Y-213151325D02*
X309971000Y-219048850D01*
X152438000Y-250669000D02*
X152438000Y-203908235D01*
X183710800Y-153225000D02*
X183710800Y-185160800D01*
X183750000Y-185200000D02*
X183750000Y-185325000D01*
X310300000Y-172100000D02*
X310625000Y-172425000D01*
X259090000Y-132785833D02*
X255497000Y-136378833D01*
X310625000Y-179730920D02*
X309989803Y-180366117D01*
X183400000Y-190550000D02*
X183400000Y-186656415D01*
X153975000Y-148026534D02*
X153975000Y-149393355D01*
X153380389Y-149987966D02*
X153380389Y-153155389D01*
X255497000Y-136378833D02*
X255497000Y-183255000D01*
X183710800Y-185160800D02*
X183750000Y-185200000D01*
X151869000Y-193828991D02*
X150701600Y-192661591D01*
X154505512Y-146404488D02*
X154012668Y-146404488D01*
%TO.N,A8*%
X203200000Y-214553984D02*
X203200000Y-157975000D01*
X299275000Y-249475000D02*
X299275000Y-217475000D01*
X202900000Y-215496016D02*
X202900000Y-214853984D01*
X203200000Y-215796016D02*
X202900000Y-215496016D01*
X190825000Y-225150000D02*
X191379000Y-224596000D01*
X202900000Y-214853984D02*
X203200000Y-214553984D01*
X191379000Y-217371000D02*
X192171016Y-216578984D01*
X299275000Y-217475000D02*
X299125000Y-217325000D01*
X191379000Y-224596000D02*
X191379000Y-217371000D01*
X203650000Y-217700000D02*
X203200000Y-217250000D01*
X203200000Y-217250000D02*
X203200000Y-215796016D01*
X203200000Y-157975000D02*
X203050000Y-157825000D01*
%TO.N,A3*%
X294700000Y-170775000D02*
X294700000Y-200460848D01*
X171488000Y-230891833D02*
X171400000Y-230803833D01*
X197775000Y-170355000D02*
X199145000Y-171725000D01*
X227123000Y-123062000D02*
X227123000Y-168702000D01*
X290725000Y-231545000D02*
X289605000Y-230425000D01*
X187215000Y-229402000D02*
X187225000Y-229412000D01*
X199145000Y-171725000D02*
X199145000Y-228600000D01*
X171488000Y-250669000D02*
X171488000Y-230891833D01*
X199145000Y-228600000D02*
X199145000Y-228995000D01*
X294525000Y-200635848D02*
X294525000Y-202298245D01*
X294700000Y-200460848D02*
X294525000Y-200635848D01*
X227123000Y-168702000D02*
X226800000Y-169025000D01*
X187215000Y-204525000D02*
X187215000Y-229402000D01*
X199145000Y-228995000D02*
X197715000Y-230425000D01*
X228610000Y-121575000D02*
X227123000Y-123062000D01*
X290725000Y-248575000D02*
X290725000Y-231545000D01*
X295375000Y-170100000D02*
X294700000Y-170775000D01*
%TO.N,~{HALT}*%
X150018183Y-195801092D02*
X149963000Y-195745909D01*
X149914879Y-200900320D02*
X149914879Y-198143279D01*
X163575000Y-243250000D02*
X162779200Y-242454200D01*
X181538500Y-265228000D02*
X181935500Y-265625000D01*
X149914879Y-198143279D02*
X150018183Y-198039975D01*
X149153814Y-202002690D02*
X149153814Y-201661385D01*
X149153814Y-201661385D02*
X149914879Y-200900320D01*
X162779200Y-242454200D02*
X162779200Y-205489200D01*
X181538500Y-243022000D02*
X181538500Y-265228000D01*
X150018183Y-198039975D02*
X150018183Y-195801092D01*
X162779200Y-205489200D02*
X161815000Y-204525000D01*
X181935500Y-242625000D02*
X181538500Y-243022000D01*
%TO.N,A11*%
X189770560Y-221045756D02*
X189770560Y-228537052D01*
X189673000Y-219806683D02*
X190029000Y-220162683D01*
X305898000Y-231432817D02*
X305840228Y-231375045D01*
X190029000Y-220162683D02*
X190029000Y-220787316D01*
X306725000Y-247809200D02*
X306725000Y-244633158D01*
X190029000Y-220787316D02*
X189770560Y-221045756D01*
X305898000Y-243806158D02*
X305898000Y-231432817D01*
X216500000Y-230225000D02*
X216500000Y-194621016D01*
X216500000Y-194621016D02*
X217075000Y-194046016D01*
X306725000Y-244633158D02*
X305898000Y-243806158D01*
X189673000Y-217502000D02*
X189673000Y-219806683D01*
X190175000Y-217000000D02*
X189673000Y-217502000D01*
X217075000Y-194046016D02*
X217075000Y-170362736D01*
X216675000Y-230400000D02*
X216500000Y-230225000D01*
X189770560Y-228537052D02*
X189647612Y-228660000D01*
X217075000Y-170362736D02*
X216789264Y-170077000D01*
%TO.N,A19*%
X148378814Y-201681674D02*
X148902000Y-201158488D01*
X220747500Y-147495000D02*
X220747500Y-144388966D01*
X148902000Y-197237077D02*
X149281135Y-196857942D01*
X220747500Y-144388966D02*
X220346582Y-143988048D01*
X148574580Y-195095999D02*
X149281135Y-195802554D01*
X149401093Y-208894748D02*
X148902000Y-208395655D01*
X148574580Y-194453967D02*
X148574580Y-195095999D01*
X148698000Y-192477175D02*
X148875000Y-192654174D01*
X148875000Y-192654174D02*
X148875000Y-194153547D01*
X148698000Y-191522826D02*
X148698000Y-192477175D01*
X148875000Y-148125000D02*
X148875000Y-191345825D01*
X148902000Y-201158488D02*
X148902000Y-197237077D01*
X148902000Y-202846892D02*
X148378814Y-202323706D01*
X148875000Y-191345825D02*
X148698000Y-191522826D01*
X289605000Y-207565000D02*
X292350000Y-210310000D01*
X148378814Y-202323706D02*
X148378814Y-201681674D01*
X292350000Y-210310000D02*
X292350000Y-243850000D01*
X148875000Y-194153547D02*
X148574580Y-194453967D01*
X161900000Y-209500000D02*
X161900000Y-207150000D01*
X148902000Y-208395655D02*
X148902000Y-202846892D01*
X149281135Y-195802554D02*
X149281135Y-196857942D01*
%TO.N,A1*%
X197449756Y-201076579D02*
X196550000Y-201976335D01*
X197098082Y-177162751D02*
X196722000Y-177538833D01*
X340360000Y-246070000D02*
X340360000Y-234260000D01*
X196722000Y-177538833D02*
X196722000Y-178411167D01*
X222477000Y-122628000D02*
X222477000Y-173734000D01*
X292250000Y-174925000D02*
X292250000Y-195109373D01*
X197098083Y-176111917D02*
X197098082Y-177162751D01*
X196550000Y-201976335D02*
X196550000Y-206625000D01*
X292250000Y-195109373D02*
X291500000Y-195859373D01*
X291500000Y-195859373D02*
X291500000Y-198415799D01*
X223530000Y-121575000D02*
X222477000Y-122628000D01*
X173497500Y-229919532D02*
X174086882Y-229330150D01*
X196927000Y-178616167D02*
X196927000Y-179071016D01*
X182135000Y-207065000D02*
X182135000Y-211463984D01*
X182135000Y-211463984D02*
X182802000Y-212130984D01*
X182925000Y-225813896D02*
X182925000Y-232778984D01*
X196722000Y-178411167D02*
X196927000Y-178616167D01*
X182750000Y-232953984D02*
X182750000Y-233596016D01*
X291500000Y-198415799D02*
X291196799Y-198719000D01*
X182925000Y-233771016D02*
X182925000Y-235150000D01*
X196723000Y-199152228D02*
X197449756Y-199878984D01*
X182925000Y-232778984D02*
X182750000Y-232953984D01*
X222477000Y-173734000D02*
X223125000Y-174382000D01*
X174028000Y-250669000D02*
X173497500Y-250138500D01*
X196723000Y-179275016D02*
X196723000Y-199152228D01*
X182925000Y-235150000D02*
X183075000Y-235300000D01*
X182802000Y-212130984D02*
X182802000Y-224987174D01*
X183276861Y-225462035D02*
X182925000Y-225813896D01*
X174086882Y-229330150D02*
X174086882Y-226848000D01*
X182750000Y-233596016D02*
X182925000Y-233771016D01*
X292325000Y-174850000D02*
X292250000Y-174925000D01*
X197449756Y-199878984D02*
X197449756Y-201076579D01*
X173497500Y-250138500D02*
X173497500Y-229919532D01*
X340360000Y-234260000D02*
X340150000Y-234050000D01*
X197775000Y-175435000D02*
X197098083Y-176111917D01*
X182802000Y-224987174D02*
X183276861Y-225462035D01*
X196927000Y-179071016D02*
X196723000Y-179275016D01*
%TO.N,~{UDS}*%
X192848000Y-203810338D02*
X192240999Y-203203336D01*
X155017800Y-189495893D02*
X152253000Y-186731093D01*
X265275000Y-262425000D02*
X265275000Y-255050000D01*
X179899939Y-211572355D02*
X179899939Y-214825062D01*
X303152000Y-213528984D02*
X303152000Y-233365139D01*
X192241000Y-201623527D02*
X192841000Y-201023528D01*
X192841000Y-197176450D02*
X192154758Y-196490209D01*
X151069000Y-170396000D02*
X150748000Y-170075000D01*
X151245000Y-180312364D02*
X151245001Y-180310953D01*
X303152000Y-233365139D02*
X303277835Y-233490974D01*
X151483000Y-184302411D02*
X151483000Y-180550363D01*
X302350000Y-212726984D02*
X303152000Y-213528984D01*
X151245001Y-180310953D02*
X151069000Y-180134952D01*
X151483000Y-180550363D02*
X151245000Y-180312364D01*
X152253000Y-185072411D02*
X151483000Y-184302411D01*
X151069000Y-180134952D02*
X151069000Y-170396000D01*
X192000000Y-214775000D02*
X192848000Y-213927000D01*
X191895871Y-193143072D02*
X191895871Y-191079238D01*
X155394800Y-190435752D02*
X155017800Y-190058752D01*
X302350000Y-188724999D02*
X302350000Y-212726984D01*
X180600000Y-224248771D02*
X180600000Y-215525123D01*
X180600000Y-215525123D02*
X179899939Y-214825062D01*
X192154758Y-193401959D02*
X191895871Y-193143072D01*
X155394800Y-194992188D02*
X155394800Y-190435752D01*
X180600000Y-210872294D02*
X179899939Y-211572355D01*
X157772200Y-198407800D02*
X157772200Y-196475377D01*
X192848000Y-213927000D02*
X192848000Y-203810338D01*
X214008000Y-228938000D02*
X212955000Y-227885000D01*
X192154758Y-196490209D02*
X192154758Y-193401959D01*
X152253000Y-186731093D02*
X152253000Y-185072411D01*
X157164623Y-195867800D02*
X156270412Y-195867800D01*
X156735000Y-199445000D02*
X157772200Y-198407800D01*
X155017800Y-190058752D02*
X155017800Y-189495893D01*
X192841000Y-201023528D02*
X192841000Y-197176450D01*
X214008000Y-253633000D02*
X214008000Y-228938000D01*
X215400000Y-255025000D02*
X214008000Y-253633000D01*
X180600000Y-199775000D02*
X180600000Y-210872294D01*
X156270412Y-195867800D02*
X155394800Y-194992188D01*
X193014669Y-189960440D02*
X193014669Y-188327000D01*
X191895871Y-191079238D02*
X193014669Y-189960440D01*
X181216693Y-224865464D02*
X180600000Y-224248771D01*
X157772200Y-196475377D02*
X157164623Y-195867800D01*
X265275000Y-255050000D02*
X265475000Y-254850000D01*
X192240999Y-203203336D02*
X192241000Y-201623527D01*
%TO.N,D12*%
X340860911Y-241400706D02*
X340860911Y-233277271D01*
X312186823Y-198979428D02*
X311931545Y-198724151D01*
X191696000Y-199586032D02*
X191696000Y-197632340D01*
X192946016Y-216257968D02*
X192492032Y-215803984D01*
X191696000Y-197632340D02*
X191022758Y-196959100D01*
X192334000Y-175073174D02*
X191538000Y-174277174D01*
X190848000Y-215252174D02*
X190848000Y-211785684D01*
X190223000Y-201059032D02*
X191696000Y-199586032D01*
X192249000Y-186059684D02*
X192249000Y-184447763D01*
X191956000Y-172123000D02*
X192354000Y-171725000D01*
X191275000Y-242875000D02*
X190999000Y-242599000D01*
X190223000Y-202985174D02*
X190223000Y-201059032D01*
X190764871Y-190610763D02*
X191492800Y-189882834D01*
X312395002Y-208499182D02*
X312395001Y-202417331D01*
X190999000Y-229289323D02*
X191775000Y-228513323D01*
X341135000Y-241674795D02*
X340860911Y-241400706D01*
X313225000Y-242675000D02*
X313225000Y-240000000D01*
X312904000Y-201908332D02*
X312904000Y-200641667D01*
X312225000Y-196851714D02*
X312225000Y-187113118D01*
X191399810Y-215803984D02*
X190848000Y-215252174D01*
X191753388Y-179446914D02*
X191753389Y-176030825D01*
X312225000Y-187113118D02*
X312000000Y-186888118D01*
X191775000Y-228513323D02*
X191775000Y-218071016D01*
X191775000Y-218071016D02*
X192946016Y-216900000D01*
X312186823Y-199924490D02*
X312186823Y-198979428D01*
X312019000Y-231327174D02*
X312019000Y-222480476D01*
X191022759Y-193869437D02*
X190764870Y-193611548D01*
X311931545Y-197145168D02*
X312225000Y-196851714D01*
X312811708Y-238850704D02*
X312040000Y-238078996D01*
X191594241Y-183793004D02*
X191594241Y-179606061D01*
X192946016Y-216900000D02*
X192946016Y-216257968D01*
X312395001Y-202417331D02*
X312904000Y-201908332D01*
X191775000Y-210858684D02*
X191775000Y-204537174D01*
X192334000Y-175450214D02*
X192334000Y-175073174D01*
X191594241Y-179606061D02*
X191753388Y-179446914D01*
X312811708Y-239586708D02*
X312811708Y-238850704D01*
X312019000Y-222480476D02*
X312356000Y-222143476D01*
X191492800Y-186815884D02*
X192249000Y-186059684D01*
X312356000Y-222143476D02*
X312356000Y-208538184D01*
X191753389Y-176030825D02*
X192334000Y-175450214D01*
X191538000Y-174277174D02*
X191538000Y-173130826D01*
X190764870Y-193611548D02*
X190764871Y-190610763D01*
X191492800Y-189882834D02*
X191492800Y-186815884D01*
X192249000Y-184447763D02*
X191594241Y-183793004D01*
X190999000Y-242599000D02*
X190999000Y-229289323D01*
X313225000Y-240000000D02*
X312811708Y-239586708D01*
X312040000Y-231348175D02*
X312019000Y-231327174D01*
X191775000Y-204537174D02*
X190223000Y-202985174D01*
X311931545Y-198724151D02*
X311931545Y-197145168D01*
X312356000Y-208538184D02*
X312395002Y-208499182D01*
X192492032Y-215803984D02*
X191399810Y-215803984D01*
X191956000Y-172712826D02*
X191956000Y-172123000D01*
X190848000Y-211785684D02*
X191775000Y-210858684D01*
X191538000Y-173130826D02*
X191956000Y-172712826D01*
X312904000Y-200641667D02*
X312186823Y-199924490D01*
X191022758Y-196959100D02*
X191022759Y-193869437D01*
X312040000Y-238078996D02*
X312040000Y-231348175D01*
%TO.N,D14*%
X313550000Y-189815533D02*
X313550000Y-196593030D01*
X312794000Y-231569016D02*
X312794000Y-235109200D01*
X150888000Y-237675000D02*
X150888000Y-219065859D01*
X151492000Y-194158164D02*
X150770427Y-193436591D01*
X312686545Y-197457899D02*
X312686545Y-198411419D01*
X313153000Y-196990030D02*
X313153000Y-196991444D01*
X313658000Y-202220650D02*
X313149001Y-202729649D01*
X151448000Y-218505858D02*
X151448000Y-203451393D01*
X313588000Y-228806602D02*
X312396000Y-229998602D01*
X149528984Y-192775000D02*
X149075000Y-192321016D01*
X312794000Y-237749567D02*
X312794000Y-235109200D01*
X150888000Y-219065859D02*
X151448000Y-218505858D01*
X313550000Y-196593030D02*
X313153000Y-196990030D01*
X313153000Y-196991444D02*
X312686545Y-197457899D01*
X149718993Y-192775000D02*
X149528984Y-192775000D01*
X149252000Y-176598000D02*
X149650000Y-176200000D01*
X312941823Y-198666696D02*
X312941823Y-199613174D01*
X312941823Y-199613174D02*
X313658000Y-200329350D01*
X149075000Y-192321016D02*
X149075000Y-191678984D01*
X312686545Y-198411419D02*
X312941823Y-198666696D01*
X312396000Y-229998602D02*
X312396000Y-231171016D01*
X313533429Y-238488996D02*
X312794000Y-237749567D01*
X150682814Y-202686207D02*
X150682814Y-201731859D01*
X313149001Y-210481737D02*
X313588000Y-210920736D01*
X149075000Y-191678984D02*
X149252000Y-191501984D01*
X151663000Y-238450000D02*
X150888000Y-237675000D01*
X151448000Y-203451393D02*
X150682814Y-202686207D01*
X313658000Y-200329350D02*
X313658000Y-202220650D01*
X150682814Y-201731859D02*
X151492000Y-200922673D01*
X150770427Y-193436591D02*
X150380584Y-193436591D01*
X313149001Y-202729649D02*
X313149001Y-210481737D01*
X150380584Y-193436591D02*
X149718993Y-192775000D01*
X151492000Y-200922673D02*
X151492000Y-194158164D01*
X313588000Y-210920736D02*
X313588000Y-228806602D01*
X313533429Y-239225000D02*
X313533429Y-238488996D01*
X149252000Y-191501984D02*
X149252000Y-176598000D01*
X312396000Y-231171016D02*
X312794000Y-231569016D01*
%TO.N,~{IPL1}*%
X174515000Y-212715000D02*
X174575000Y-212775000D01*
X174515000Y-207065000D02*
X174515000Y-212715000D01*
%TO.N,A22*%
X352550000Y-238400000D02*
X352550000Y-204700000D01*
X182141069Y-187467000D02*
X182141069Y-187095800D01*
X182875000Y-188200931D02*
X182141069Y-187467000D01*
X352425000Y-238525000D02*
X352550000Y-238400000D01*
X182875000Y-200185000D02*
X182875000Y-188200931D01*
X184675000Y-201985000D02*
X182875000Y-200185000D01*
%TO.N,~{R}{slash}W*%
X148400326Y-196058484D02*
X148100000Y-195758158D01*
X148525000Y-203003051D02*
X148001814Y-202479864D01*
X148001814Y-201525516D02*
X148400326Y-201127004D01*
X148400326Y-201127004D02*
X148400326Y-196058484D01*
X148525000Y-252475000D02*
X148525000Y-203003051D01*
X148100000Y-195758158D02*
X148100000Y-182093450D01*
X148001814Y-202479864D02*
X148001814Y-201525516D01*
%TO.N,~{BGACK}*%
X121800000Y-182100000D02*
X121800000Y-246228984D01*
X310050000Y-251770659D02*
X310050000Y-248303216D01*
X113050000Y-161400000D02*
X113050000Y-179335000D01*
X121375000Y-247638905D02*
X121613959Y-247877864D01*
X310046000Y-232094342D02*
X309796000Y-231844342D01*
X310046000Y-240274826D02*
X310046000Y-232094342D01*
X121800000Y-246228984D02*
X121375000Y-246653984D01*
X121375000Y-246653984D02*
X121375000Y-247638905D01*
X308846876Y-218268521D02*
X309199314Y-217916083D01*
X309796000Y-220542016D02*
X308846876Y-219592892D01*
X309796000Y-231844342D02*
X309796000Y-220542016D01*
X309877000Y-248130216D02*
X309877000Y-241856174D01*
X307719240Y-254101419D02*
X310050000Y-251770659D01*
X310050000Y-248303216D02*
X309877000Y-248130216D01*
X309877000Y-241856174D02*
X309648000Y-241627174D01*
X309648000Y-241627174D02*
X309648000Y-240672826D01*
X309648000Y-240672826D02*
X310046000Y-240274826D01*
X113050000Y-179335000D02*
X115165000Y-181450000D01*
X308846876Y-219592892D02*
X308846876Y-218268521D01*
%TO.N,D13*%
X315098000Y-198115184D02*
X315098000Y-199636714D01*
X192797000Y-231932097D02*
X192797000Y-231930683D01*
X192797000Y-231930683D02*
X192725000Y-231858683D01*
X315098000Y-240385619D02*
X315098000Y-237651223D01*
X192803003Y-231938102D02*
X192797000Y-231932097D01*
X315529000Y-187750000D02*
X315529000Y-187904000D01*
X193088000Y-175762530D02*
X193088000Y-174006000D01*
X314366489Y-236919712D02*
X314366489Y-235696190D01*
X193226000Y-203653765D02*
X192619000Y-203046764D01*
X192803003Y-238237575D02*
X192803003Y-231938102D01*
X192725000Y-231858683D02*
X192725000Y-218187332D01*
X193088000Y-174006000D02*
X192690000Y-173608000D01*
X192348242Y-183480689D02*
X192348242Y-179918376D01*
X192507389Y-176343141D02*
X193088000Y-175762530D01*
X192804000Y-238238573D02*
X192803003Y-238237575D01*
X192272871Y-192986913D02*
X192272871Y-191235396D01*
X315098000Y-199636714D02*
X315166000Y-199704714D01*
X193569000Y-184701447D02*
X192348242Y-183480689D01*
X192725000Y-214970636D02*
X192725000Y-214681744D01*
X193219000Y-197019878D02*
X192532758Y-196333636D01*
X192272871Y-191235396D02*
X193789669Y-189718598D01*
X192348242Y-179918376D02*
X192507389Y-179759229D01*
X192507389Y-179759229D02*
X192507389Y-176343141D01*
X192532758Y-196333636D02*
X192532758Y-193246800D01*
X193789669Y-188145461D02*
X193569000Y-187924792D01*
X315098001Y-234964678D02*
X314662679Y-235400000D01*
X315627000Y-192184968D02*
X316252000Y-192809968D01*
X192804000Y-241177000D02*
X192804000Y-238238573D01*
X315627000Y-188002000D02*
X315627000Y-192184968D01*
X193700016Y-215945652D02*
X192725000Y-214970636D01*
X193219000Y-201180100D02*
X193219000Y-197019878D01*
X315098001Y-202913283D02*
X315098001Y-234964678D01*
X193700016Y-217212316D02*
X193700016Y-215945652D01*
X193789669Y-189718598D02*
X193789669Y-188145461D01*
X192619000Y-203046764D02*
X192619000Y-201780100D01*
X193226000Y-214180744D02*
X193226000Y-203653765D01*
X315529000Y-187904000D02*
X315627000Y-188002000D01*
X192725000Y-218187332D02*
X193700016Y-217212316D01*
X192532758Y-193246800D02*
X192272871Y-192986913D01*
X315854000Y-187600000D02*
X315679000Y-187600000D01*
X316252000Y-192809968D02*
X316252000Y-196961184D01*
X314366489Y-235696190D02*
X314662679Y-235400000D01*
X192619000Y-201780100D02*
X193219000Y-201180100D01*
X315166000Y-199704714D02*
X315166000Y-202845284D01*
X314783194Y-240700425D02*
X315098000Y-240385619D01*
X315679000Y-187600000D02*
X315529000Y-187750000D01*
X315098000Y-237651223D02*
X314366489Y-236919712D01*
X192725000Y-214681744D02*
X193226000Y-214180744D01*
X193569000Y-187924792D02*
X193569000Y-184701447D01*
X316252000Y-196961184D02*
X315098000Y-198115184D01*
X315166000Y-202845284D02*
X315098001Y-202913283D01*
X193202000Y-241575000D02*
X192804000Y-241177000D01*
%TO.N,D6*%
X189050000Y-154075000D02*
X189050000Y-175295661D01*
X153454039Y-192116195D02*
X153487799Y-192082435D01*
X254010000Y-121575000D02*
X252875000Y-122710000D01*
X252875000Y-122710000D02*
X252875000Y-179250000D01*
X188631200Y-191620561D02*
X188631200Y-185221529D01*
X189551142Y-181294276D02*
X189551142Y-180111526D01*
X189050000Y-177650910D02*
X189050000Y-179610384D01*
X188464124Y-175881538D02*
X188464124Y-177065034D01*
X154978000Y-199884568D02*
X153454039Y-198360607D01*
X188631200Y-185221529D02*
X189002000Y-184850730D01*
X166275000Y-144795000D02*
X166275000Y-153705960D01*
X301575000Y-179028000D02*
X301375000Y-179228000D01*
X166275000Y-153705960D02*
X166417040Y-153848000D01*
X301375000Y-212851984D02*
X301123000Y-213103984D01*
X189050000Y-179610384D02*
X189401822Y-179962206D01*
X301375000Y-179228000D02*
X301375000Y-212851984D01*
X188464124Y-177065034D02*
X189050000Y-177650910D01*
X188919811Y-191909172D02*
X188631200Y-191620561D01*
X189002000Y-181843418D02*
X189551142Y-181294276D01*
X301123000Y-213103984D02*
X301123000Y-221898000D01*
X189250000Y-153875000D02*
X189050000Y-154075000D01*
X301123000Y-221898000D02*
X301250000Y-222025000D01*
X189002000Y-184850730D02*
X189002000Y-181843418D01*
X189551142Y-180111526D02*
X189401822Y-179962206D01*
X153454039Y-198360607D02*
X153454039Y-192116195D01*
X189050000Y-175295661D02*
X188464124Y-175881538D01*
X154978000Y-250669000D02*
X154978000Y-199884568D01*
X301250000Y-222025000D02*
X301250000Y-222150000D01*
%TO.N,D5*%
X152573000Y-201693842D02*
X152623000Y-201643842D01*
X308650000Y-168975000D02*
X308650000Y-180675000D01*
X255120000Y-181170000D02*
X254722000Y-181568000D01*
X152238000Y-180237634D02*
X152000000Y-179999634D01*
X153708000Y-249918760D02*
X153273000Y-249483760D01*
X156735000Y-191825000D02*
X156735000Y-190709635D01*
X255120000Y-136222675D02*
X255120000Y-181170000D01*
X152573000Y-202081158D02*
X152573000Y-201693842D01*
X179650000Y-184950000D02*
X179650000Y-186515052D01*
X179650000Y-187991659D02*
X179650000Y-191406555D01*
X308775000Y-168850000D02*
X308650000Y-168975000D01*
X153708000Y-250669000D02*
X153708000Y-249918760D01*
X153273000Y-249483760D02*
X153273000Y-213106158D01*
X155771800Y-189183577D02*
X153007000Y-186418777D01*
X179546426Y-186618626D02*
X179546426Y-187888084D01*
X151625000Y-191873281D02*
X151625000Y-191685460D01*
X152623000Y-192871281D02*
X151625000Y-191873281D01*
X179546426Y-187888084D02*
X179650000Y-187991659D01*
X152000000Y-179999634D02*
X152000000Y-152361507D01*
X321775000Y-217325000D02*
X321775000Y-213775000D01*
X179650000Y-191406555D02*
X179164391Y-191892164D01*
X153007000Y-186418777D02*
X153007000Y-184760095D01*
X152898000Y-202406158D02*
X152573000Y-202081158D01*
X152623000Y-201643842D02*
X152623000Y-192871281D01*
X155771800Y-189746435D02*
X155771800Y-189183577D01*
X158655000Y-151182500D02*
X158012500Y-151825000D01*
X322580000Y-218130000D02*
X321775000Y-217325000D01*
X152238000Y-183991096D02*
X152238000Y-180237634D01*
X152898000Y-212731158D02*
X152898000Y-202406158D01*
X153273000Y-213106158D02*
X152898000Y-212731158D01*
X256550000Y-121575000D02*
X256550000Y-134792675D01*
X179650000Y-186515052D02*
X179546426Y-186618626D01*
X158655000Y-144795000D02*
X158655000Y-151182500D01*
X256550000Y-134792675D02*
X255120000Y-136222675D01*
X156735000Y-190709635D02*
X155771800Y-189746435D01*
X152000000Y-152361507D02*
X151313493Y-151675000D01*
X153007000Y-184760095D02*
X152238000Y-183991096D01*
X299225000Y-214750000D02*
X299225000Y-181568000D01*
%TO.N,D3*%
X303529000Y-223367627D02*
X303883547Y-223722174D01*
X308947202Y-183922404D02*
X309550000Y-184525202D01*
X153181684Y-146702314D02*
X153181684Y-147656662D01*
X151050000Y-155400000D02*
X150950000Y-155300000D01*
X155771800Y-190279594D02*
X155394800Y-189902593D01*
X152630000Y-186574935D02*
X152630000Y-184916253D01*
X153298814Y-147883506D02*
X153428844Y-148013537D01*
X152630000Y-184916253D02*
X151860000Y-184146254D01*
X162500000Y-187544846D02*
X162572046Y-187472800D01*
X151860000Y-184146254D02*
X151860000Y-180394204D01*
X150950000Y-155300000D02*
X150950000Y-152407523D01*
X309550000Y-184525202D02*
X309550000Y-185600000D01*
X150515489Y-194195909D02*
X150225467Y-194195909D01*
X156115000Y-141531016D02*
X155062000Y-142584016D01*
X150636478Y-152094001D02*
X150636478Y-150000000D01*
X151622000Y-180156206D02*
X151622000Y-180154792D01*
X150950000Y-152407523D02*
X150636478Y-152094001D01*
X155062000Y-142584016D02*
X155062000Y-145296103D01*
X150511000Y-218909700D02*
X151071000Y-218349700D01*
X162500000Y-193450000D02*
X162500000Y-187544846D01*
X309550000Y-175175000D02*
X309550000Y-180713436D01*
X151168000Y-250669000D02*
X151168000Y-239051016D01*
X151115000Y-200766515D02*
X151115000Y-194795420D01*
X162400000Y-193550000D02*
X162500000Y-193450000D01*
X153856510Y-146027488D02*
X153181684Y-146702314D01*
X151071000Y-203607552D02*
X150305814Y-202842365D01*
X151168000Y-239051016D02*
X150511000Y-238394016D01*
X151622000Y-180154792D02*
X151446000Y-179978793D01*
X153428844Y-149008651D02*
X152815401Y-149622094D01*
X260577000Y-185600000D02*
X261625000Y-186648000D01*
X261630000Y-121575000D02*
X260577000Y-122628000D01*
X155394800Y-189902593D02*
X155394800Y-189339735D01*
X153181684Y-147656662D02*
X153298814Y-147773793D01*
X308947202Y-181316234D02*
X308947202Y-183922404D01*
X151115000Y-194795420D02*
X150515489Y-194195909D01*
X151050000Y-155354341D02*
X151050000Y-155400000D01*
X150305814Y-201575701D02*
X151115000Y-200766515D01*
X155771800Y-193401800D02*
X155771800Y-190279594D01*
X156115000Y-137175000D02*
X156115000Y-141531016D01*
X303529000Y-186971000D02*
X303529000Y-223367627D01*
X155394800Y-189339735D02*
X152630000Y-186574935D01*
X151860000Y-180394204D02*
X151622000Y-180156206D01*
X150511000Y-238394016D02*
X150511000Y-218909700D01*
X151446000Y-179978793D02*
X151446000Y-157611445D01*
X260577000Y-122628000D02*
X260577000Y-185600000D01*
X156735000Y-194365000D02*
X155771800Y-193401800D01*
X155062000Y-145296103D02*
X154330615Y-146027488D01*
X154330615Y-146027488D02*
X153856510Y-146027488D01*
X304905000Y-185595000D02*
X303529000Y-186971000D01*
X153428844Y-148013537D02*
X153428844Y-149008651D01*
X151050000Y-155400000D02*
X151050000Y-157538956D01*
X151071000Y-218349700D02*
X151071000Y-203607552D01*
X150305814Y-202842365D02*
X150305814Y-201575701D01*
X153298814Y-147773793D02*
X153298814Y-147883506D01*
X309550000Y-180713436D02*
X308947202Y-181316234D01*
%TO.N,~{IPL0}*%
X176090800Y-205489200D02*
X176090800Y-215837000D01*
X177055000Y-204525000D02*
X176090800Y-205489200D01*
X176090800Y-215837000D02*
X176488800Y-216235000D01*
%TO.N,D1*%
X313281000Y-200485508D02*
X313281000Y-202064491D01*
X176100000Y-201396016D02*
X177275000Y-200221016D01*
X175712800Y-215993573D02*
X175712800Y-205332628D01*
X312308545Y-198567992D02*
X312563823Y-198823269D01*
X312772001Y-202573490D02*
X312772001Y-210637896D01*
X158000000Y-189275000D02*
X158310800Y-189585800D01*
X158252000Y-195882000D02*
X159275000Y-196905000D01*
X313085000Y-227679293D02*
X312815000Y-227949293D01*
X312308545Y-197301327D02*
X312308545Y-198567992D01*
X176900000Y-198125000D02*
X176900000Y-181775000D01*
X313281000Y-202064491D02*
X312772001Y-202573490D01*
X312563823Y-198823269D02*
X312563823Y-199768332D01*
X175835800Y-216505482D02*
X175835800Y-216116572D01*
X266710000Y-121575000D02*
X265375000Y-122910000D01*
X177173995Y-217650000D02*
X176475000Y-216951005D01*
X175835800Y-216116572D02*
X175712800Y-215993573D01*
X158237800Y-163512200D02*
X158237800Y-189037200D01*
X265375000Y-179162000D02*
X265075000Y-179462000D01*
X177275000Y-198500000D02*
X176900000Y-198125000D01*
X312563823Y-199768332D02*
X313281000Y-200485508D01*
X166275000Y-137175000D02*
X162625000Y-140825000D01*
X162625000Y-140825000D02*
X162625000Y-162450000D01*
X162625000Y-162450000D02*
X162400000Y-162675000D01*
X176090800Y-204924385D02*
X176090800Y-204125615D01*
X158252000Y-190872815D02*
X158252000Y-195882000D01*
X177173995Y-250063005D02*
X177173995Y-217650000D01*
X158310800Y-189684385D02*
X158875615Y-190249200D01*
X176100000Y-204933585D02*
X176090800Y-204924385D01*
X158310800Y-189585800D02*
X158310800Y-189684385D01*
X176090800Y-204125615D02*
X176100000Y-204116415D01*
X176475000Y-216888000D02*
X176218318Y-216888000D01*
X176100000Y-204116415D02*
X176100000Y-201396016D01*
X312775000Y-196834872D02*
X312308545Y-197301327D01*
X265375000Y-122910000D02*
X265375000Y-179162000D01*
X176100000Y-204945428D02*
X176100000Y-204933585D01*
X176475000Y-216951005D02*
X176475000Y-216888000D01*
X312775000Y-179600000D02*
X312775000Y-196834872D01*
X312772001Y-210637896D02*
X313085000Y-210950895D01*
X159400000Y-162350000D02*
X158237800Y-163512200D01*
X313085000Y-210950895D02*
X313085000Y-227679293D01*
X158237800Y-189037200D02*
X158000000Y-189275000D01*
X176218318Y-216888000D02*
X175835800Y-216505482D01*
X177275000Y-200221016D02*
X177275000Y-198500000D01*
X175712800Y-205332628D02*
X176100000Y-204945428D01*
X158875615Y-190249200D02*
X158252000Y-190872815D01*
X176568000Y-250669000D02*
X177173995Y-250063005D01*
%TO.N,A12*%
X217300000Y-168871399D02*
X217850000Y-169421399D01*
X307125000Y-226846620D02*
X306553380Y-226275000D01*
X306989233Y-232848302D02*
X307125000Y-232712535D01*
X189075000Y-219741842D02*
X189075000Y-215927000D01*
X217452000Y-170461431D02*
X217452000Y-194202175D01*
X189652000Y-220631158D02*
X189652000Y-220318842D01*
X306989233Y-239942456D02*
X306989233Y-232848302D01*
X189652000Y-220318842D02*
X189075000Y-219741842D01*
X307122117Y-240075340D02*
X306989233Y-239942456D01*
X217300000Y-214778984D02*
X217150000Y-214928984D01*
X307125000Y-232712535D02*
X307125000Y-226846620D01*
X189025000Y-226150000D02*
X189025000Y-221258158D01*
X217300000Y-215721016D02*
X217300000Y-225525000D01*
X217300000Y-165750000D02*
X217300000Y-168871399D01*
X217452000Y-194202175D02*
X217300000Y-194354174D01*
X217850000Y-170063431D02*
X217452000Y-170461431D01*
X217225000Y-165675000D02*
X217300000Y-165750000D01*
X217150000Y-214928984D02*
X217150000Y-215571016D01*
X217300000Y-194354174D02*
X217300000Y-214778984D01*
X217850000Y-169421399D02*
X217850000Y-170063431D01*
X217150000Y-215571016D02*
X217300000Y-215721016D01*
X189025000Y-221258158D02*
X189652000Y-220631158D01*
%TO.N,A5*%
X194750000Y-225425000D02*
X194775000Y-225450000D01*
X194443015Y-166125000D02*
X194925000Y-166606985D01*
X194596000Y-174091668D02*
X194596000Y-176387164D01*
X293650000Y-250653984D02*
X293650669Y-250654653D01*
X232203000Y-123062000D02*
X232203000Y-164119000D01*
X293650000Y-225425000D02*
X293650000Y-250653984D01*
X194024590Y-177840862D02*
X194317708Y-178133980D01*
X194719915Y-173191668D02*
X194719915Y-173967753D01*
X194925000Y-172986583D02*
X194719915Y-173191668D01*
X232203000Y-164119000D02*
X232100000Y-164222000D01*
X293750000Y-225325000D02*
X293750000Y-195948008D01*
X294300000Y-164800000D02*
X293975000Y-165125000D01*
X293975000Y-195526992D02*
X293651992Y-195850000D01*
X194024590Y-176958574D02*
X194024590Y-177840862D01*
X233690000Y-121575000D02*
X232203000Y-123062000D01*
X293750000Y-195948008D02*
X293651992Y-195850000D01*
X194719915Y-173967753D02*
X194596000Y-174091668D01*
X293975000Y-165125000D02*
X293975000Y-195526992D01*
X194925000Y-166606985D02*
X194925000Y-172986583D01*
X194596000Y-176387164D02*
X194024590Y-176958574D01*
X293750000Y-225325000D02*
X293650000Y-225425000D01*
X194775000Y-225450000D02*
X194775000Y-231613278D01*
%TO.N,~{DTACK}*%
X155770800Y-241570800D02*
X155770800Y-209875000D01*
X149850000Y-190450000D02*
X150025000Y-190625000D01*
X340360000Y-218130000D02*
X340360000Y-208560000D01*
X181160500Y-268460500D02*
X181200000Y-268500000D01*
X155770800Y-202949200D02*
X156735000Y-201985000D01*
X340360000Y-208560000D02*
X340025000Y-208225000D01*
X154085000Y-198268685D02*
X154651721Y-198835405D01*
X198025000Y-205600000D02*
X198025000Y-209775000D01*
X238210714Y-262425000D02*
X238210714Y-267214286D01*
X155770800Y-209875000D02*
X155770800Y-202949200D01*
X154262800Y-192601860D02*
X154085000Y-192779660D01*
X181200000Y-241550000D02*
X181160500Y-241589500D01*
X149919000Y-177800000D02*
X149629000Y-178090000D01*
X181160500Y-241589500D02*
X181160500Y-268460500D01*
X154651721Y-198835405D02*
X155024853Y-198835405D01*
X149850000Y-187341840D02*
X149850000Y-190450000D01*
X149629000Y-187120841D02*
X149850000Y-187341840D01*
X198025000Y-209775000D02*
X197450000Y-210350000D01*
X153604080Y-190245920D02*
X154262800Y-190904641D01*
X238210714Y-267214286D02*
X237625000Y-267800000D01*
X149629000Y-178090000D02*
X149629000Y-187120841D01*
X156400000Y-242200000D02*
X155770800Y-241570800D01*
X154262800Y-190904641D02*
X154262800Y-192601860D01*
X154085000Y-192779660D02*
X154085000Y-198268685D01*
%TO.N,R{slash}~{W}*%
X190215776Y-190063844D02*
X190275000Y-190123068D01*
X247232143Y-262425000D02*
X247232143Y-253092857D01*
X186150000Y-175772708D02*
X185649703Y-175272411D01*
X325825000Y-207759167D02*
X325825000Y-203630200D01*
X190275000Y-190123068D02*
X190275000Y-196358984D01*
X190275000Y-196358984D02*
X190500000Y-196583984D01*
X190500000Y-196583984D02*
X190500000Y-197226016D01*
X189812214Y-197913802D02*
X189812214Y-199279437D01*
X190500000Y-197226016D02*
X189812214Y-197913802D01*
X326344200Y-200384385D02*
X326344200Y-188244200D01*
X324725000Y-202530200D02*
X324725000Y-202003585D01*
X324725000Y-202003585D02*
X326344200Y-200384385D01*
X147100000Y-200778424D02*
X147347246Y-200531178D01*
X187215000Y-199445000D02*
X186150000Y-198380000D01*
X259090000Y-141265000D02*
X259100000Y-141275000D01*
X186200000Y-140500000D02*
X186052000Y-140648000D01*
X323617200Y-235042200D02*
X323617200Y-209966967D01*
X326344200Y-188244200D02*
X325525000Y-187425000D01*
X325825000Y-203630200D02*
X324725000Y-202530200D01*
X147100000Y-208741842D02*
X147100000Y-200778424D01*
X186052000Y-174870114D02*
X185649703Y-175272411D01*
X147277000Y-208918842D02*
X147100000Y-208741842D01*
X186150000Y-198380000D02*
X186150000Y-175772708D01*
X147100000Y-212658158D02*
X147277000Y-212481158D01*
X323617200Y-209966967D02*
X325825000Y-207759167D01*
X324175000Y-235600000D02*
X323617200Y-235042200D01*
X247232143Y-253092857D02*
X247400000Y-252925000D01*
X259090000Y-136815000D02*
X259090000Y-141265000D01*
X186052000Y-140648000D02*
X186052000Y-174870114D01*
X147277000Y-212481158D02*
X147277000Y-208918842D01*
X147100000Y-255200000D02*
X147100000Y-212658158D01*
%TO.N,A13*%
X143474509Y-213321872D02*
X144459910Y-214307273D01*
X144459910Y-214307273D02*
X144504176Y-214307273D01*
X143393826Y-211821440D02*
X143474509Y-211902123D01*
X298450000Y-248400000D02*
X298450000Y-216025000D01*
X203825000Y-155200000D02*
X203825000Y-215025000D01*
X298450000Y-216025000D02*
X297675000Y-215250000D01*
X203825000Y-215025000D02*
X203675000Y-215175000D01*
X143474509Y-211902123D02*
X143474509Y-213321872D01*
%TO.N,D10*%
X191869800Y-186972042D02*
X192626000Y-186215842D01*
X191225000Y-211941842D02*
X192300000Y-210866842D01*
X192626000Y-186215842D02*
X192626000Y-184291605D01*
X192300000Y-218079174D02*
X193323016Y-217056158D01*
X191141871Y-190766921D02*
X191869800Y-190038992D01*
X191915000Y-174121016D02*
X191915000Y-173286984D01*
X311073000Y-186185944D02*
X310848000Y-186410943D01*
X191399758Y-196802941D02*
X191399759Y-193713279D01*
X310848000Y-187365293D02*
X311433878Y-187951171D01*
X312150000Y-200953984D02*
X312150000Y-201596016D01*
X311177544Y-196832851D02*
X311177545Y-199981529D01*
X311602000Y-221831158D02*
X311265000Y-222168158D01*
X311433878Y-187951171D02*
X311433878Y-196576517D01*
X311601996Y-208225878D02*
X311602000Y-208382036D01*
X311286000Y-240539984D02*
X311716511Y-240970495D01*
X192426003Y-238393734D02*
X192426003Y-232094261D01*
X311073000Y-183456175D02*
X311073000Y-186185944D01*
X192300000Y-204529016D02*
X190600000Y-202829016D01*
X192426003Y-232094261D02*
X192425994Y-232094249D01*
X339675000Y-233428984D02*
X339048904Y-234055080D01*
X192073000Y-197476181D02*
X191399758Y-196802941D01*
X311716511Y-240970495D02*
X311716511Y-241837104D01*
X191971241Y-183636846D02*
X191971241Y-179762219D01*
X192626000Y-184291605D02*
X191971241Y-183636846D01*
X193323016Y-217056158D02*
X193323016Y-216101810D01*
X192300000Y-231966841D02*
X192300000Y-218079174D01*
X192420000Y-232088255D02*
X192420000Y-232086842D01*
X190600000Y-202829016D02*
X190600000Y-201215190D01*
X192825000Y-242875000D02*
X192427000Y-242477000D01*
X191225000Y-215096016D02*
X191225000Y-211941842D01*
X312150000Y-201596016D02*
X311641000Y-202105016D01*
X191915000Y-173286984D02*
X193129000Y-172072984D01*
X192711000Y-174917016D02*
X191915000Y-174121016D01*
X311602000Y-208225867D02*
X311602000Y-208225874D01*
X192648190Y-215426984D02*
X191555968Y-215426984D01*
X191141870Y-193455389D02*
X191141871Y-190766921D01*
X311602000Y-208382036D02*
X311602000Y-221831158D01*
X311299930Y-181658996D02*
X311299930Y-182279105D01*
X311641000Y-202105016D02*
X311641000Y-208186866D01*
X190600000Y-201215190D02*
X192073000Y-199742190D01*
X339048904Y-234055080D02*
X339048904Y-241369713D01*
X192073000Y-199742190D02*
X192073000Y-197476181D01*
X311286000Y-231660492D02*
X311286000Y-240539984D01*
X311602000Y-208225874D02*
X311601996Y-208225878D01*
X311265000Y-222168158D02*
X311265000Y-231639491D01*
X311433878Y-196576517D02*
X311177544Y-196832851D01*
X311299930Y-182279105D02*
X311775000Y-182754175D01*
X192425994Y-232094249D02*
X192420000Y-232088255D01*
X191971241Y-179762219D02*
X192130389Y-179603071D01*
X311641000Y-208186866D02*
X311602000Y-208225867D01*
X192300000Y-210866842D02*
X192300000Y-204529016D01*
X311775000Y-182754175D02*
X311073000Y-183456175D01*
X192427000Y-238394731D02*
X192426003Y-238393734D01*
X191555968Y-215426984D02*
X191225000Y-215096016D01*
X193129000Y-172072984D02*
X193129000Y-171403984D01*
X193129000Y-171403984D02*
X192139015Y-170413999D01*
X191399759Y-193713279D02*
X191141870Y-193455389D01*
X193323016Y-216101810D02*
X192648190Y-215426984D01*
X310848000Y-186410943D02*
X310848000Y-187365293D01*
X192711000Y-175606372D02*
X192711000Y-174917016D01*
X192420000Y-232086842D02*
X192300000Y-231966841D01*
X191869800Y-190038992D02*
X191869800Y-186972042D01*
X311177545Y-199981529D02*
X312150000Y-200953984D01*
X192427000Y-242477000D02*
X192427000Y-238394731D01*
X192130389Y-179603071D02*
X192130389Y-176186983D01*
X339600000Y-231225000D02*
X339675000Y-231300000D01*
X192139015Y-170413999D02*
X192139015Y-166050000D01*
X192130389Y-176186983D02*
X192711000Y-175606372D01*
X311265000Y-231639491D02*
X311286000Y-231660492D01*
X339675000Y-231300000D02*
X339675000Y-233428984D01*
%TO.N,D0*%
X179923426Y-187731926D02*
X180559200Y-188367700D01*
X176477000Y-249490000D02*
X176477000Y-231218842D01*
X314175000Y-176600000D02*
X314175000Y-179768862D01*
X168815000Y-137175000D02*
X169868000Y-138228000D01*
X268197000Y-176470500D02*
X266692500Y-177975000D01*
X194973000Y-175844902D02*
X195568082Y-176439984D01*
X195650000Y-164525000D02*
X195375000Y-164800000D01*
X179923426Y-186774784D02*
X179923426Y-187731926D01*
X195375000Y-173069741D02*
X195096915Y-173347826D01*
X268197000Y-122628000D02*
X268197000Y-176470500D01*
X180559200Y-196609200D02*
X180600000Y-196650000D01*
X194973000Y-174247826D02*
X194973000Y-175844902D01*
X195096915Y-173347826D02*
X195096915Y-174123911D01*
X318075000Y-228175000D02*
X318075000Y-223271016D01*
X317869102Y-197206134D02*
X317869102Y-196564102D01*
X173400000Y-200596016D02*
X175950000Y-198046016D01*
X318075000Y-223271016D02*
X317950000Y-223146016D01*
X180559200Y-186320800D02*
X180377410Y-186320800D01*
X318075000Y-180626200D02*
X317825000Y-180376200D01*
X195375000Y-164800000D02*
X195375000Y-173069741D01*
X314175000Y-179768862D02*
X314098941Y-179844921D01*
X195096915Y-174123911D02*
X194973000Y-174247826D01*
X317869102Y-196564102D02*
X318075000Y-196358204D01*
X318075000Y-196358204D02*
X318075000Y-180626200D01*
X317950000Y-223146016D02*
X317950000Y-222503984D01*
X175298000Y-250669000D02*
X176477000Y-249490000D01*
X180377410Y-186320800D02*
X179923426Y-186774784D01*
X180559200Y-167540800D02*
X180559200Y-186320800D01*
X175950000Y-198046016D02*
X175950000Y-196425000D01*
X318075000Y-222378984D02*
X318075000Y-197412032D01*
X182750000Y-165350000D02*
X180559200Y-167540800D01*
X180559200Y-188367700D02*
X180559200Y-196609200D01*
X175838000Y-230579842D02*
X175838000Y-220763000D01*
X176477000Y-231218842D02*
X175838000Y-230579842D01*
X169868000Y-164632000D02*
X169500000Y-165000000D01*
X317950000Y-222503984D02*
X318075000Y-222378984D01*
X173400000Y-218325000D02*
X173400000Y-200596016D01*
X169868000Y-138228000D02*
X169868000Y-164632000D01*
X175950000Y-196425000D02*
X175800000Y-196275000D01*
X175838000Y-220763000D02*
X173400000Y-218325000D01*
X318075000Y-197412032D02*
X317869102Y-197206134D01*
X269250000Y-121575000D02*
X268197000Y-122628000D01*
%TO.N,A17*%
X145188309Y-207519546D02*
X145188309Y-211091446D01*
X144675000Y-189635564D02*
X144675000Y-201268579D01*
X144675000Y-188344437D02*
X144652000Y-188367437D01*
X146525000Y-150725000D02*
X144675000Y-152575000D01*
X342725000Y-243900000D02*
X342725000Y-222208585D01*
X145591601Y-202185180D02*
X145591601Y-207116254D01*
X145188309Y-211091446D02*
X145309580Y-211212717D01*
X144652000Y-188367437D02*
X144652000Y-189612563D01*
X342725000Y-222208585D02*
X343864200Y-221069385D01*
X144675000Y-201268579D02*
X145591601Y-202185180D01*
X144675000Y-152575000D02*
X144675000Y-188344437D01*
X343864200Y-221069385D02*
X343864200Y-209839200D01*
X343864200Y-209839200D02*
X342600000Y-208575000D01*
X144652000Y-189612563D02*
X144675000Y-189635564D01*
X145591601Y-207116254D02*
X145188309Y-207519546D01*
%TO.N,A14*%
X209300000Y-157625000D02*
X209325000Y-157650000D01*
X209325000Y-157650000D02*
X209325000Y-216338566D01*
X209325000Y-216338566D02*
X207952615Y-217710951D01*
X143500000Y-209225000D02*
X143500000Y-210619250D01*
X142618826Y-211500424D02*
X142618826Y-212142456D01*
X143097509Y-214040888D02*
X143433071Y-214376450D01*
X142618826Y-212142456D02*
X143097509Y-212621139D01*
X143097509Y-212621139D02*
X143097509Y-214040888D01*
X207952615Y-217710951D02*
X207843567Y-217710951D01*
X143500000Y-210619250D02*
X142618826Y-211500424D01*
%TO.N,~{AS}*%
X119700000Y-167822000D02*
X119575000Y-167697000D01*
X314771587Y-183482347D02*
X314745995Y-183456755D01*
X315018523Y-183482347D02*
X314771587Y-183482347D01*
X189725000Y-190660707D02*
X189725000Y-196905000D01*
X189725000Y-171191841D02*
X189548000Y-171368841D01*
X314702000Y-183518841D02*
X314702000Y-197070204D01*
X189725000Y-168000000D02*
X189725000Y-171191841D01*
X189722838Y-179187206D02*
X190463241Y-179927609D01*
X189476919Y-190412626D02*
X189725000Y-190660707D01*
X314412000Y-200017032D02*
X314412000Y-202532968D01*
X314745995Y-183456755D02*
X314639913Y-183456755D01*
X189548000Y-171368841D02*
X189548000Y-175330820D01*
X314342000Y-229659000D02*
X313946000Y-230055000D01*
X314639913Y-183456755D02*
X314702000Y-183518841D01*
X314412000Y-202532968D02*
X314342000Y-202602968D01*
X189548000Y-175330820D02*
X188841124Y-176037696D01*
X314702000Y-197070204D02*
X313837545Y-197934659D01*
X119700000Y-267600000D02*
X119700000Y-167822000D01*
X189476919Y-189294097D02*
X189476919Y-190412626D01*
X190463241Y-179927609D02*
X190463241Y-183639557D01*
X190463241Y-183639557D02*
X190179200Y-183923598D01*
X190179200Y-188591816D02*
X189476919Y-189294097D01*
X314167000Y-198081258D02*
X314167000Y-199772033D01*
X189722838Y-177719981D02*
X189722838Y-179187206D01*
X188841124Y-176838267D02*
X189722838Y-177719981D01*
X190179200Y-183923598D02*
X190179200Y-188591816D01*
X314342000Y-202602968D02*
X314342000Y-229659000D01*
X315062872Y-183437998D02*
X315018523Y-183482347D01*
X314167000Y-199772033D02*
X314412000Y-200017032D01*
X188841124Y-176037696D02*
X188841124Y-176838267D01*
%TO.N,A21*%
X181975000Y-188976177D02*
X181975000Y-201125000D01*
X310727000Y-222175000D02*
X310727000Y-213464469D01*
X311224000Y-212967471D02*
X311224000Y-208069294D01*
X310975000Y-205725000D02*
X310975000Y-201563981D01*
X310727000Y-213464469D02*
X311008234Y-213183235D01*
X310975000Y-201563981D02*
X311263981Y-201275000D01*
X310725000Y-222175000D02*
X310727000Y-222175000D01*
X311224000Y-208069294D02*
X311262000Y-208031294D01*
X180698426Y-187699603D02*
X181975000Y-188976177D01*
X311008235Y-213183236D02*
X311224000Y-212967471D01*
X310800000Y-222250000D02*
X310725000Y-222175000D01*
X311262000Y-206012000D02*
X310975000Y-205725000D01*
X311262000Y-208031294D02*
X311262000Y-206012000D01*
X310800000Y-241150000D02*
X310800000Y-222250000D01*
X180698426Y-187095800D02*
X180698426Y-187699603D01*
%TO.N,A2*%
X182675902Y-200729886D02*
X182675902Y-202525902D01*
X171602992Y-228901508D02*
X171602992Y-227110000D01*
X184051861Y-225141019D02*
X184051861Y-226723139D01*
X296475000Y-233250000D02*
X296475000Y-249026950D01*
X182950000Y-185388442D02*
X182017642Y-186320800D01*
X226070000Y-121575000D02*
X224600000Y-123045000D01*
X182925000Y-173150000D02*
X183331800Y-173556800D01*
X182950000Y-184853984D02*
X182950000Y-185388442D01*
X183600000Y-233200000D02*
X183600000Y-227175000D01*
X172758000Y-250669000D02*
X172758000Y-230056516D01*
X182675902Y-202525902D02*
X184675000Y-204525000D01*
X295925000Y-200876854D02*
X295192459Y-201609395D01*
X224600000Y-123045000D02*
X224600000Y-171825000D01*
X183331800Y-173556800D02*
X183331800Y-184472184D01*
X295925000Y-173175000D02*
X295925000Y-200876854D01*
X182475000Y-188772002D02*
X182475000Y-200528984D01*
X181366069Y-187663071D02*
X182475000Y-188772002D01*
X296475000Y-249026950D02*
X296348129Y-249153821D01*
X296325000Y-233100000D02*
X296475000Y-233250000D01*
X181820053Y-186320800D02*
X181366069Y-186774784D01*
X184675000Y-204525000D02*
X183600000Y-205600000D01*
X184051861Y-226723139D02*
X183600000Y-227175000D01*
X182475000Y-200528984D02*
X182675902Y-200729886D01*
X182017642Y-186320800D02*
X181820053Y-186320800D01*
X172758000Y-230056516D02*
X171602992Y-228901508D01*
X183600000Y-205600000D02*
X183600000Y-224689158D01*
X296125000Y-172975000D02*
X295925000Y-173175000D01*
X183600000Y-224689158D02*
X184051861Y-225141019D01*
X183331800Y-184472184D02*
X182950000Y-184853984D01*
X183525000Y-233275000D02*
X183600000Y-233200000D01*
X181366069Y-186774784D02*
X181366069Y-187663071D01*
%TO.N,UART_TX*%
X202485000Y-111150000D02*
X202485000Y-132460000D01*
X243900000Y-132800000D02*
X243850000Y-132850000D01*
X202485000Y-132460000D02*
X202500000Y-132475000D01*
X243850000Y-132850000D02*
X243850000Y-136815000D01*
%TO.N,UART_RX*%
X203625000Y-112550000D02*
X203625000Y-131575000D01*
X246350000Y-131975000D02*
X246390000Y-132015000D01*
X246390000Y-132015000D02*
X246390000Y-136815000D01*
X205025000Y-111150000D02*
X203625000Y-112550000D01*
%TO.N,~{CPST_SYNC}*%
X326020921Y-171404079D02*
X325380000Y-172045000D01*
X326020921Y-170984321D02*
X326344200Y-170661042D01*
X324975000Y-125950000D02*
X326344200Y-127319200D01*
X326344200Y-127319200D02*
X326344200Y-170661042D01*
X326020921Y-171404079D02*
X326020921Y-170984321D01*
%TO.N,AUDIO7*%
X171355000Y-142145000D02*
X171500000Y-142000000D01*
X154628000Y-133492800D02*
X153335200Y-132200000D01*
X171355000Y-144795000D02*
X171355000Y-142145000D01*
X154628000Y-141922000D02*
X154628000Y-133492800D01*
X154500000Y-142050000D02*
X154628000Y-141922000D01*
%TO.N,AUDIO6*%
X157175000Y-141132692D02*
X157059615Y-141248077D01*
X163735000Y-141240000D02*
X163750000Y-141225000D01*
X163735000Y-144795000D02*
X163735000Y-141240000D01*
X157175000Y-133423600D02*
X157175000Y-141132692D01*
X155951400Y-132200000D02*
X157175000Y-133423600D01*
%TO.N,AUDIO5*%
X159708000Y-133340400D02*
X159708000Y-137611167D01*
X159708000Y-137611167D02*
X159477000Y-137842167D01*
X159477000Y-143031817D02*
X160047706Y-143602523D01*
X159477000Y-137842167D02*
X159477000Y-143031817D01*
X158567600Y-132200000D02*
X159708000Y-133340400D01*
%TO.N,AUDIO4*%
X161183800Y-132200000D02*
X160137419Y-133246381D01*
X160137419Y-133246381D02*
X160137419Y-142528059D01*
X160137419Y-142528059D02*
X160168898Y-142559538D01*
%TO.N,AUDIO3*%
X163800000Y-135350000D02*
X163800000Y-132200000D01*
X163825000Y-135375000D02*
X163800000Y-135350000D01*
%TO.N,AUDIO2*%
X166416200Y-132200000D02*
X166416200Y-135213200D01*
X166416200Y-135213200D02*
X166550000Y-135347000D01*
%TO.N,AUDIO1*%
X168750000Y-135050000D02*
X169032400Y-134767600D01*
X169032400Y-134767600D02*
X169032400Y-132200000D01*
X168750000Y-135600000D02*
X168750000Y-135050000D01*
%TO.N,Net-(U15A-+)*%
X150719000Y-132200000D02*
X149808600Y-132200000D01*
X149100000Y-131491400D02*
X149100000Y-125475000D01*
X149808600Y-132200000D02*
X149100000Y-131491400D01*
%TO.N,Net-(U15A--)*%
X151400000Y-121050000D02*
X150900000Y-120550000D01*
X151400000Y-127530000D02*
X151400000Y-121050000D01*
%TO.N,DEBUG_IN*%
X201003000Y-169334746D02*
X200195254Y-168527000D01*
X201050000Y-253350000D02*
X201050000Y-245144000D01*
X201003000Y-245097000D02*
X201003000Y-169334746D01*
X174515000Y-176585000D02*
X174515000Y-169090000D01*
X251700000Y-273762143D02*
X251700000Y-253700000D01*
X201050000Y-245144000D02*
X201003000Y-245097000D01*
X174515000Y-169090000D02*
X174425000Y-169000000D01*
%TO.N,~{ROM_SELECT}*%
X213015000Y-172895000D02*
X214184142Y-174064142D01*
X232163732Y-272538732D02*
X232163732Y-254550000D01*
X196720082Y-177006179D02*
X196720082Y-175000751D01*
X233700000Y-274075000D02*
X232163732Y-272538732D01*
X196152000Y-178750000D02*
X196152000Y-177574261D01*
X216525000Y-233175000D02*
X216525000Y-254082991D01*
X196720082Y-175000751D02*
X196900000Y-174820833D01*
X214184142Y-174064142D02*
X214184142Y-192684142D01*
X214184142Y-192684142D02*
X216000000Y-194500000D01*
X196900000Y-174820833D02*
X196900000Y-174316594D01*
X216000000Y-232650000D02*
X216525000Y-233175000D01*
X216525000Y-254082991D02*
X216402444Y-254205547D01*
X216000000Y-194500000D02*
X216000000Y-232650000D01*
X196152000Y-177574261D02*
X196720082Y-177006179D01*
X196900000Y-174316594D02*
X196268217Y-173684811D01*
%TO.N,~{RAM_SELECT_1}*%
X165700000Y-195425000D02*
X166550000Y-196275000D01*
X241050000Y-272403571D02*
X241050000Y-233550000D01*
X236850000Y-195175000D02*
X237575000Y-195900000D01*
X242721429Y-274075000D02*
X241050000Y-272403571D01*
X237575000Y-195900000D02*
X237575000Y-231317500D01*
X165930800Y-194648184D02*
X165700000Y-194878984D01*
X236850000Y-195175000D02*
X237040500Y-194984500D01*
X166895000Y-177761415D02*
X165930800Y-178725615D01*
X165700000Y-194878984D02*
X165700000Y-195425000D01*
X166895000Y-176585000D02*
X166895000Y-177761415D01*
X165930800Y-178725615D02*
X165930800Y-194648184D01*
X237575000Y-231317500D02*
X235927500Y-232965000D01*
X237040500Y-173948000D02*
X235987500Y-172895000D01*
X237040500Y-194984500D02*
X237040500Y-173948000D01*
%TO.N,~{WRITE_LO}*%
X260200000Y-153875000D02*
X260200000Y-144373000D01*
X191579000Y-172556668D02*
X191161000Y-172974668D01*
X191579000Y-168987683D02*
X191579000Y-172556668D01*
X191350000Y-144425000D02*
X191350000Y-168758683D01*
X258960000Y-155115000D02*
X260200000Y-153875000D01*
X260200000Y-144373000D02*
X259802000Y-143975000D01*
X306100000Y-143775000D02*
X306000000Y-143675000D01*
X191350000Y-168758683D02*
X191579000Y-168987683D01*
X235987500Y-155115000D02*
X237561187Y-153541313D01*
X237561187Y-153541313D02*
X237561187Y-143810698D01*
X283075000Y-153972500D02*
X283075000Y-143675000D01*
X192375000Y-143400000D02*
X191350000Y-144425000D01*
X191161000Y-172974668D02*
X191161000Y-174992110D01*
X304905000Y-155115000D02*
X306100000Y-153920000D01*
X306100000Y-153920000D02*
X306100000Y-143775000D01*
X281932500Y-155115000D02*
X283075000Y-153972500D01*
X192525000Y-143400000D02*
X192375000Y-143400000D01*
X191161000Y-174992110D02*
X191428544Y-175259654D01*
%TO.N,~{WRITE_HI}*%
X195803984Y-175500000D02*
X196343083Y-175500000D01*
X235927500Y-215185000D02*
X237053500Y-214059000D01*
X237053500Y-200600621D02*
X236802879Y-200350000D01*
X195565485Y-173412414D02*
X195565485Y-174188499D01*
X196150000Y-172120000D02*
X196150000Y-172827899D01*
X159275000Y-176585000D02*
X159275000Y-172625000D01*
X237053500Y-214059000D02*
X237053500Y-200600621D01*
X304845000Y-215185000D02*
X306200013Y-213829987D01*
X195469708Y-179830334D02*
X196295544Y-180656170D01*
X258900000Y-215185000D02*
X260026000Y-214059000D01*
X306200013Y-213829987D02*
X306200013Y-201608459D01*
X306200013Y-201608459D02*
X304316554Y-199725000D01*
X282998500Y-214059000D02*
X282998500Y-201823500D01*
X196343082Y-176850021D02*
X195469708Y-177723395D01*
X195350000Y-174403984D02*
X195350000Y-175046016D01*
X280921726Y-199746726D02*
X280882219Y-199746726D01*
X159275000Y-172625000D02*
X159400000Y-172500000D01*
X195469708Y-177723395D02*
X195469708Y-179830334D01*
X196295544Y-180656170D02*
X196295544Y-199820788D01*
X196150000Y-172827899D02*
X195565485Y-173412414D01*
X195350000Y-175046016D02*
X195803984Y-175500000D01*
X196295544Y-199820788D02*
X196674756Y-200200000D01*
X282998500Y-201823500D02*
X280921726Y-199746726D01*
X260026000Y-200481525D02*
X259319475Y-199775000D01*
X196343083Y-175500000D02*
X196343082Y-176850021D01*
X260026000Y-214059000D02*
X260026000Y-200481525D01*
X195565485Y-174188499D02*
X195350000Y-174403984D01*
X281872500Y-215185000D02*
X282998500Y-214059000D01*
%TO.N,~{RAM_SELECT_2}*%
X260200000Y-185756159D02*
X260950000Y-186506158D01*
X166895000Y-194780000D02*
X166475000Y-195200000D01*
X260950000Y-230915000D02*
X260950000Y-195250000D01*
X258900000Y-232965000D02*
X260950000Y-230915000D01*
X260200000Y-174135000D02*
X260200000Y-185756159D01*
X258960000Y-172895000D02*
X260200000Y-174135000D01*
X166895000Y-179125000D02*
X166895000Y-194780000D01*
X260950000Y-186506158D02*
X260950000Y-195250000D01*
%TO.N,~{RAM_SELECT_3}*%
X283050000Y-174012500D02*
X283050000Y-198275000D01*
X283375500Y-231462000D02*
X283375500Y-201667342D01*
X283225000Y-200953984D02*
X283050000Y-200778984D01*
X164355000Y-196463182D02*
X164268182Y-196550000D01*
X281932500Y-172895000D02*
X283050000Y-174012500D01*
X165066200Y-179836200D02*
X165066200Y-181279816D01*
X281872500Y-232965000D02*
X283375500Y-231462000D01*
X164355000Y-179125000D02*
X165066200Y-179836200D01*
X164355000Y-181991016D02*
X164355000Y-196463182D01*
X165066200Y-181279816D02*
X164355000Y-181991016D01*
X283225000Y-201516841D02*
X283225000Y-200953984D01*
X283050000Y-200778984D02*
X283050000Y-198275000D01*
X283375500Y-201667342D02*
X283225000Y-201516841D01*
%TO.N,~{RAM_SELECT_4}*%
X307725000Y-222262524D02*
X306542876Y-221080400D01*
X306542876Y-221080400D02*
X306542876Y-219128893D01*
X307725000Y-233130085D02*
X307725000Y-222262524D01*
X162975000Y-181821016D02*
X163250000Y-182096016D01*
X307462509Y-218209260D02*
X307462509Y-200591829D01*
X306542876Y-219128893D02*
X307462509Y-218209260D01*
X307462509Y-200591829D02*
X306771640Y-199900960D01*
X304905000Y-172895000D02*
X307290589Y-175280589D01*
X163250000Y-182096016D02*
X163250000Y-197650000D01*
X306771640Y-199900960D02*
X306771640Y-199348000D01*
X161815000Y-176585000D02*
X162975000Y-177745000D01*
X307764233Y-233169318D02*
X307725000Y-233130085D01*
X162975000Y-177745000D02*
X162975000Y-181821016D01*
X307290589Y-175280589D02*
X307290589Y-199302594D01*
X307290589Y-199302594D02*
X307002151Y-199591032D01*
%TO.N,~{CF_CS1}*%
X159789000Y-248398000D02*
X159789000Y-223203595D01*
X181097800Y-177622200D02*
X182135000Y-176585000D01*
X159789000Y-223203595D02*
X160850800Y-222141795D01*
X160850800Y-204125615D02*
X161650000Y-203326415D01*
X160850800Y-222141795D02*
X160850800Y-204125615D01*
X161650000Y-188625000D02*
X161650000Y-182450000D01*
X157518000Y-250669000D02*
X159789000Y-248398000D01*
X162123000Y-190274795D02*
X162123000Y-189098000D01*
X181225000Y-182775000D02*
X181097800Y-182647800D01*
X161650000Y-190747795D02*
X162123000Y-190274795D01*
X181097800Y-182647800D02*
X181097800Y-177622200D01*
X161650000Y-203326415D02*
X161650000Y-190747795D01*
X162123000Y-189098000D02*
X161650000Y-188625000D01*
%TO.N,~{IO_IRQ}*%
X237283000Y-137718414D02*
X237283000Y-122628000D01*
X154355389Y-184365389D02*
X154355389Y-150279982D01*
X236230000Y-121575000D02*
X236230000Y-117995000D01*
X236250000Y-138751414D02*
X237283000Y-137718414D01*
X236250000Y-144550000D02*
X236250000Y-138751414D01*
X154355389Y-150279982D02*
X154243762Y-150168355D01*
X156735000Y-186745000D02*
X154355389Y-184365389D01*
X236230000Y-117995000D02*
X236250000Y-117975000D01*
X237283000Y-122628000D02*
X236230000Y-121575000D01*
%TO.N,OBVID_TDI*%
X189400000Y-183606782D02*
X189688241Y-183318541D01*
X312050000Y-174275000D02*
X312050000Y-178839078D01*
X310696000Y-183627984D02*
X310696000Y-186029785D01*
X189404200Y-188400000D02*
X189400000Y-188395800D01*
X310696000Y-186029785D02*
X310459823Y-186265962D01*
X310366803Y-180522275D02*
X310366803Y-180962949D01*
X310459823Y-186265962D02*
X310459823Y-188073133D01*
X309863569Y-181466183D02*
X309863569Y-182795553D01*
X310366803Y-180962949D02*
X309863569Y-181466183D01*
X309863569Y-182795553D02*
X310696000Y-183627984D01*
X189400000Y-188395800D02*
X189400000Y-183606782D01*
X312050000Y-178839078D02*
X310366803Y-180522275D01*
%TO.N,~{OBVID_SELECT}*%
X190840241Y-183795715D02*
X190840241Y-179208593D01*
X190840241Y-179208593D02*
X190601388Y-178969740D01*
X338080000Y-187555000D02*
X338125000Y-187600000D01*
X190717800Y-183918157D02*
X190840241Y-183795715D01*
X190717800Y-189204712D02*
X190717800Y-183918157D01*
X338080000Y-172045000D02*
X338080000Y-187555000D01*
%TO.N,JTAG_TCK*%
X193850000Y-196005387D02*
X193850000Y-195409371D01*
X165700000Y-178423257D02*
X165553800Y-178569457D01*
X194350000Y-196505387D02*
X193850000Y-196005387D01*
X353875000Y-187175000D02*
X354050000Y-187350000D01*
X194148000Y-202413432D02*
X194350000Y-202211432D01*
X194061758Y-195197613D02*
X194061758Y-193883959D01*
X193850000Y-195409371D02*
X194061758Y-195197613D01*
X164025000Y-168689167D02*
X165700000Y-170364167D01*
X164025000Y-155850000D02*
X164025000Y-168689167D01*
X194061758Y-193883959D02*
X194163434Y-193782283D01*
X194350000Y-202211432D02*
X194350000Y-196505387D01*
X354050000Y-199575000D02*
X351675000Y-201950000D01*
X165553800Y-193957121D02*
X165042992Y-194467929D01*
X165700000Y-170364167D02*
X165700000Y-178423257D01*
X165553800Y-178569457D02*
X165553800Y-193957121D01*
X354050000Y-187350000D02*
X354050000Y-199575000D01*
%TO.N,JTAG_TMS*%
X160325000Y-160523016D02*
X160325000Y-188438257D01*
X159765000Y-157673158D02*
X159765000Y-159963016D01*
X160239200Y-188524057D02*
X160239200Y-190860800D01*
X156405000Y-155850000D02*
X157595000Y-157040000D01*
X192450000Y-200879955D02*
X191467000Y-201862955D01*
X192850000Y-187399997D02*
X192246800Y-188003197D01*
X160325000Y-188438257D02*
X160239200Y-188524057D01*
X326721200Y-188088041D02*
X326721200Y-202233559D01*
X159765000Y-159963016D02*
X160325000Y-160523016D01*
X326721200Y-202233559D02*
X326099559Y-202855200D01*
X326344200Y-187711042D02*
X326721200Y-188088041D01*
X191776760Y-193557121D02*
X191776758Y-196646782D01*
X325150000Y-184800000D02*
X326344200Y-185994200D01*
X191776758Y-196646782D02*
X192450000Y-197320023D01*
X159131842Y-157040000D02*
X159765000Y-157673158D01*
X160239200Y-190860800D02*
X159275000Y-191825000D01*
X157595000Y-157040000D02*
X159131842Y-157040000D01*
X192246800Y-190195151D02*
X191518871Y-190923080D01*
X191518871Y-193299231D02*
X191776760Y-193557121D01*
X192246800Y-188003197D02*
X192246800Y-190195151D01*
X326344200Y-185994200D02*
X326344200Y-187711042D01*
X191518871Y-190923080D02*
X191518871Y-193299231D01*
X192450000Y-197320023D02*
X192450000Y-200879955D01*
X191467000Y-201862955D02*
X191467000Y-202600000D01*
%TO.N,JTAG_TDO*%
X344735800Y-135164200D02*
X345075000Y-134825000D01*
X347275800Y-176160800D02*
X347275800Y-171645615D01*
X347275800Y-171645615D02*
X346099385Y-170469200D01*
X348240000Y-177125000D02*
X347275800Y-176160800D01*
X344735800Y-169904385D02*
X344735800Y-145300000D01*
X178925000Y-154425000D02*
X178375000Y-154975000D01*
X346099385Y-170469200D02*
X345300615Y-170469200D01*
X345300615Y-170469200D02*
X344735800Y-169904385D01*
X178925000Y-138350000D02*
X178925000Y-154425000D01*
%TO.N,JTAG_TDI*%
X157860800Y-163356041D02*
X158050000Y-163166842D01*
X158050000Y-158728522D02*
X158963522Y-157815000D01*
X157860800Y-180539200D02*
X157860800Y-163356041D01*
X158050000Y-163166842D02*
X158050000Y-158728522D01*
X156735000Y-181665000D02*
X157860800Y-180539200D01*
%TO.N,Net-(LS1-Pad1)*%
X111250000Y-127075000D02*
X111250000Y-133925000D01*
X111250000Y-133925000D02*
X109300000Y-135875000D01*
%TO.N,~{CF_CS0}*%
X148023326Y-200970846D02*
X148023326Y-196214643D01*
X147325000Y-195516317D02*
X147325000Y-181871108D01*
X147907418Y-253324175D02*
X147750000Y-253166757D01*
X147750000Y-253166757D02*
X147750000Y-252153984D01*
X147624814Y-201369358D02*
X148023326Y-200970846D01*
X148023326Y-196214643D02*
X147325000Y-195516317D01*
X147325000Y-181871108D02*
X148149247Y-181046861D01*
X148125000Y-251778984D02*
X148125000Y-203136210D01*
X148125000Y-203136210D02*
X147624814Y-202636023D01*
X147750000Y-252153984D02*
X148125000Y-251778984D01*
X147624814Y-202636023D02*
X147624814Y-201369358D01*
%TO.N,VGA_BLUE*%
X331071750Y-118821750D02*
X331300000Y-119050000D01*
X331071750Y-113977500D02*
X331071750Y-118821750D01*
%TO.N,CPST_PIXEL*%
X292950000Y-106945000D02*
X294495000Y-105400000D01*
X292950000Y-117000000D02*
X292950000Y-106945000D01*
X343160000Y-172045000D02*
X342195800Y-171080800D01*
X342195800Y-171080800D02*
X342195800Y-117979200D01*
X342195800Y-117979200D02*
X342800000Y-117375000D01*
%TO.N,Net-(C35-Pad2)*%
X294375000Y-118475000D02*
X294495000Y-118355000D01*
X294495000Y-118355000D02*
X294495000Y-109450000D01*
%TO.N,Net-(C35-Pad1)*%
X300215000Y-110910000D02*
X304655000Y-106470000D01*
X300215000Y-115355000D02*
X300215000Y-110910000D01*
X304655000Y-106470000D02*
X304655000Y-105400000D01*
X300215000Y-120510000D02*
X299275000Y-121450000D01*
X300215000Y-115355000D02*
X300215000Y-120510000D01*
%TO.N,Net-(J6-In)*%
X299675000Y-109325000D02*
X299600000Y-109400000D01*
X299675000Y-104400000D02*
X299675000Y-109325000D01*
%TO.N,VGA_RED*%
X326511750Y-113977500D02*
X326511750Y-119078250D01*
X326511750Y-119078250D02*
X324645000Y-120945000D01*
%TO.N,VGA_VSYNC*%
X337675000Y-110300000D02*
X338075000Y-110700000D01*
X339421200Y-172209785D02*
X340425000Y-173213585D01*
X340425000Y-173213585D02*
X340425000Y-192000000D01*
X337850000Y-120367675D02*
X339155000Y-121672674D01*
X339155000Y-121672674D02*
X339155000Y-162600000D01*
X339421200Y-162866200D02*
X339421200Y-172209785D01*
X339155000Y-162600000D02*
X339421200Y-162866200D01*
X337850000Y-112096016D02*
X337850000Y-120367675D01*
X338075000Y-111871016D02*
X337850000Y-112096016D01*
X338075000Y-110700000D02*
X338075000Y-111871016D01*
%TO.N,VGA_GREEN*%
X328791750Y-113977500D02*
X328791750Y-120788250D01*
%TO.N,VGA_HSYNC*%
X338778000Y-138147000D02*
X338778000Y-121828833D01*
X338725000Y-138200000D02*
X338778000Y-138147000D01*
X336883200Y-170508200D02*
X336850000Y-170475000D01*
X336883200Y-196248200D02*
X336883200Y-170508200D01*
X338778000Y-162475000D02*
X338778000Y-138253000D01*
X337300000Y-120350833D02*
X337300000Y-111550000D01*
X336850000Y-170475000D02*
X336850000Y-164403000D01*
X338778000Y-138253000D02*
X338725000Y-138200000D01*
X338778000Y-121828833D02*
X337300000Y-120350833D01*
X338080000Y-197445000D02*
X336883200Y-196248200D01*
X336850000Y-164403000D02*
X338778000Y-162475000D01*
%TO.N,VGA_B0*%
X352175000Y-131105000D02*
X352175000Y-170650000D01*
X352175000Y-170650000D02*
X350780000Y-172045000D01*
%TO.N,VGA_R1*%
X320715000Y-170065000D02*
X321450000Y-170800000D01*
X320715000Y-131105000D02*
X320715000Y-170065000D01*
%TO.N,VGA_B1*%
X348245000Y-131105000D02*
X348245000Y-169500000D01*
%TO.N,VGA_G0*%
X346950000Y-166850000D02*
X346950000Y-170755000D01*
X340380000Y-166480000D02*
X340425000Y-166525000D01*
X346950000Y-170755000D02*
X348240000Y-172045000D01*
X340380000Y-131150000D02*
X340380000Y-166480000D01*
%TO.N,VGA_G2*%
X332520000Y-166670000D02*
X333375000Y-167525000D01*
X332520000Y-131150000D02*
X332520000Y-166670000D01*
X340620000Y-169505000D02*
X340620000Y-167595000D01*
X340620000Y-167595000D02*
X340525000Y-167500000D01*
%TO.N,VGA_G1*%
X336450000Y-131150000D02*
X336450000Y-136157674D01*
X336295000Y-144171842D02*
X335729200Y-144737642D01*
X335729200Y-144737642D02*
X335729200Y-167975000D01*
X336295000Y-136312675D02*
X336295000Y-144171842D01*
X336450000Y-136157674D02*
X336295000Y-136312675D01*
%TO.N,VGA_R2*%
X316785000Y-169165000D02*
X316425000Y-169525000D01*
X316785000Y-131105000D02*
X316785000Y-169165000D01*
%TO.N,PIXEL_CLK*%
X334575800Y-171080800D02*
X334575800Y-153524200D01*
X330105000Y-139230000D02*
X328600000Y-140735000D01*
X328600000Y-140735000D02*
X328600000Y-147598000D01*
X328600000Y-147598000D02*
X330030000Y-149028000D01*
X335540000Y-172045000D02*
X334575800Y-171080800D01*
X330105000Y-136905000D02*
X330105000Y-139230000D01*
X334575800Y-153524200D02*
X334775000Y-153325000D01*
X330030000Y-149028000D02*
X330030000Y-152680000D01*
%TO.N,VGA_CLK_ENB*%
X333000000Y-199985000D02*
X334098000Y-198887000D01*
X334098000Y-198887000D02*
X334098000Y-145177000D01*
X334098000Y-145177000D02*
X334475000Y-144800000D01*
%TO.N,VGA_R0*%
X325056879Y-132648249D02*
X325056879Y-166900000D01*
X324645000Y-131105000D02*
X324645000Y-132236370D01*
X332275000Y-167475000D02*
X331962800Y-167787200D01*
X331962800Y-167787200D02*
X331962800Y-171007800D01*
X324645000Y-132236370D02*
X325056879Y-132648249D01*
X331962800Y-171007800D02*
X333000000Y-172045000D01*
%TO.N,CPST_CLK_ENB*%
X331625000Y-157675000D02*
X331625000Y-167028984D01*
X331500000Y-167153984D02*
X331500000Y-193628984D01*
X331625000Y-167028984D02*
X331500000Y-167153984D01*
X331500000Y-193628984D02*
X330460000Y-194668984D01*
X330460000Y-194668984D02*
X330460000Y-197445000D01*
%TO.N,OBVID_STALL*%
X343160000Y-169505000D02*
X344125000Y-170470000D01*
X174515000Y-189460000D02*
X173925000Y-190050000D01*
X174515000Y-179125000D02*
X174515000Y-189460000D01*
X344125000Y-170470000D02*
X344125000Y-192325000D01*
%TO.N,~{OBVID_IRQ}*%
X172475000Y-167650000D02*
X172776000Y-167951000D01*
X172776000Y-167951000D02*
X172776000Y-175784000D01*
X315175000Y-142775000D02*
X314450000Y-142050000D01*
X172475000Y-141550000D02*
X172475000Y-167650000D01*
X315175000Y-167675000D02*
X315175000Y-142775000D01*
X172776000Y-175784000D02*
X171975000Y-176585000D01*
%TO.N,AUDIO_LE*%
X188179200Y-180399784D02*
X188179200Y-177313269D01*
X188475000Y-175337504D02*
X188475000Y-146648000D01*
X187215000Y-185568585D02*
X188179200Y-184604385D01*
X188025000Y-180553984D02*
X188179200Y-180399784D01*
X188025000Y-181111415D02*
X188025000Y-180553984D01*
X188179200Y-181265615D02*
X188025000Y-181111415D01*
X187215000Y-186745000D02*
X187215000Y-185568585D01*
X188179200Y-177313269D02*
X188087124Y-177221193D01*
X188087124Y-177221193D02*
X188087124Y-175725379D01*
X188475000Y-146648000D02*
X188425000Y-146598000D01*
X151035000Y-144795000D02*
X151035000Y-148050000D01*
X188087124Y-175725379D02*
X188475000Y-175337504D01*
X188179200Y-184604385D02*
X188179200Y-181265615D01*
%TO.N,IO_RESET*%
X191376388Y-179290756D02*
X191217241Y-179449903D01*
X191217241Y-179449903D02*
X191217241Y-185292241D01*
X191376388Y-178648724D02*
X191376388Y-179290756D01*
X191050000Y-135075000D02*
X191050000Y-144191841D01*
X190653544Y-177925880D02*
X191376388Y-178648724D01*
X241550000Y-134075000D02*
X241310000Y-134315000D01*
X191177000Y-172425510D02*
X190653544Y-172948966D01*
X191475000Y-134650000D02*
X191050000Y-135075000D01*
X190877000Y-159180984D02*
X190877000Y-168818842D01*
X191177000Y-169118842D02*
X191177000Y-172425510D01*
X190877000Y-168818842D02*
X191177000Y-169118842D01*
X190653544Y-172948966D02*
X190653544Y-177925880D01*
X241310000Y-134315000D02*
X241310000Y-136815000D01*
X191217241Y-185292241D02*
X191475000Y-185550000D01*
X191050000Y-144191841D02*
X190575000Y-144666841D01*
X190575000Y-144666841D02*
X190575000Y-158878984D01*
X190575000Y-158878984D02*
X190877000Y-159180984D01*
%TO.N,Net-(U12-INPUT{slash}OE2{slash}GCLK2)*%
X173550800Y-177549200D02*
X173550800Y-163249200D01*
X174125000Y-162675000D02*
X176945000Y-162675000D01*
X173550800Y-163249200D02*
X174125000Y-162675000D01*
X171975000Y-179125000D02*
X173550800Y-177549200D01*
%TO.N,~{IO_IACK_SCK}*%
X152150000Y-150046016D02*
X152591783Y-150487799D01*
X152150000Y-145760192D02*
X152150000Y-150046016D01*
X152975000Y-184194937D02*
X155241498Y-186461435D01*
X155241498Y-186461435D02*
X155241498Y-187670686D01*
X238770000Y-141254381D02*
X237199381Y-142825000D01*
X152591783Y-153462799D02*
X152975000Y-153846016D01*
X152345897Y-145564295D02*
X152150000Y-145760192D01*
X238770000Y-136815000D02*
X238770000Y-141254381D01*
X152975000Y-153846016D02*
X152975000Y-184194937D01*
X152591783Y-150487799D02*
X152591783Y-153462799D01*
%TO.N,~{ENGINE_DTACK}*%
X188600000Y-193325000D02*
X188253200Y-192978200D01*
X331702800Y-194522200D02*
X332050000Y-194175000D01*
X188556200Y-184761956D02*
X188556200Y-181118800D01*
X168675000Y-184150000D02*
X168600000Y-184225000D01*
X168675000Y-180875000D02*
X168675000Y-184150000D01*
X331702800Y-219632800D02*
X331702800Y-194522200D01*
X188253200Y-185064956D02*
X188556200Y-184761956D01*
X188556200Y-181118800D02*
X188800000Y-180875000D01*
X188253200Y-192978200D02*
X188253200Y-185064956D01*
X332740000Y-220670000D02*
X331702800Y-219632800D01*
%TO.N,~{ENGINE_SELECT}*%
X201800000Y-174700000D02*
X201800000Y-202956000D01*
X163390800Y-181140800D02*
X163750000Y-181500000D01*
X163400000Y-174650000D02*
X163390800Y-174659200D01*
X338784200Y-204490800D02*
X339825000Y-203450000D01*
X163390800Y-174659200D02*
X163390800Y-181140800D01*
X337820000Y-220670000D02*
X338784200Y-219705800D01*
X338784200Y-219705800D02*
X338784200Y-204490800D01*
X201800000Y-202956000D02*
X201725000Y-203031000D01*
%TO.N,~{ENGINE_IRQ}*%
X330200000Y-218130000D02*
X330911200Y-217418800D01*
X188556200Y-212631200D02*
X189075000Y-213150000D01*
X152950000Y-201850000D02*
X153000000Y-201800000D01*
X188556200Y-201056200D02*
X188556200Y-212631200D01*
X153000000Y-192700318D02*
X152359038Y-192059356D01*
X153275000Y-202175000D02*
X152950000Y-201850000D01*
X152359038Y-192059356D02*
X152359038Y-189647464D01*
X330911200Y-217418800D02*
X330911200Y-203036200D01*
X153000000Y-201800000D02*
X153000000Y-192700318D01*
X188425000Y-200925000D02*
X188556200Y-201056200D01*
X330911200Y-203036200D02*
X329056459Y-201181459D01*
X154250000Y-213550000D02*
X153275000Y-212575000D01*
X153275000Y-212575000D02*
X153275000Y-202175000D01*
X329056459Y-201181459D02*
X328497800Y-201181459D01*
%TO.N,~{IO_DTACK_MISO}*%
X154580844Y-149127901D02*
X154580844Y-147536362D01*
X235873000Y-138595256D02*
X235873000Y-142734968D01*
X155399413Y-151263635D02*
X155399413Y-150621603D01*
X154580844Y-147536362D02*
X154333684Y-147289202D01*
X236230000Y-136815000D02*
X236230000Y-138238256D01*
X155250000Y-149797057D02*
X154580844Y-149127901D01*
X236230000Y-138238256D02*
X235873000Y-138595256D01*
X155399413Y-150621603D02*
X155250000Y-150472190D01*
X154925000Y-182395000D02*
X154925000Y-151738048D01*
X154333684Y-147289202D02*
X154333684Y-147179488D01*
X235873000Y-142734968D02*
X234944967Y-143663001D01*
X154925000Y-151738048D02*
X155399413Y-151263635D01*
X156735000Y-184205000D02*
X154925000Y-182395000D01*
X155250000Y-150472190D02*
X155250000Y-149797057D01*
%TO.N,ENGINE_TMS*%
X286981000Y-231169000D02*
X286981000Y-195456000D01*
X285975707Y-232174293D02*
X286981000Y-231169000D01*
X195570000Y-190876016D02*
X194213733Y-192232283D01*
X286981000Y-195456000D02*
X285700000Y-194175000D01*
X195570000Y-183450000D02*
X195570000Y-190876016D01*
%TO.N,ENGINE_TDO*%
X191025000Y-207475000D02*
X191025000Y-209650000D01*
X190425000Y-209650000D02*
X190225000Y-209850000D01*
X347980000Y-225750000D02*
X347000000Y-224770000D01*
X347000000Y-224770000D02*
X347000000Y-207325000D01*
X347000000Y-207325000D02*
X347450000Y-206875000D01*
X169575000Y-209500000D02*
X169575000Y-207205000D01*
X191025000Y-209650000D02*
X190425000Y-209650000D01*
%TO.N,ENGINE_TDI*%
X318725000Y-207600000D02*
X318925000Y-207400000D01*
X165319200Y-206100800D02*
X166895000Y-204525000D01*
X165319200Y-208555800D02*
X165319200Y-206100800D01*
X165100000Y-208775000D02*
X165319200Y-208555800D01*
X318725000Y-222825000D02*
X318725000Y-207600000D01*
%TO.N,~{IO_SELECT_MOSI}*%
X155802000Y-154893122D02*
X155802000Y-149309920D01*
X155802000Y-149309920D02*
X155424178Y-148932098D01*
X233690000Y-143510000D02*
X233275000Y-143925000D01*
X155424178Y-148932098D02*
X155424178Y-148405380D01*
X155302000Y-177692000D02*
X155302000Y-155393122D01*
X156735000Y-179125000D02*
X155302000Y-177692000D01*
X233690000Y-136815000D02*
X233690000Y-143510000D01*
X155424178Y-148405380D02*
X155362001Y-148343203D01*
X155302000Y-155393122D02*
X155802000Y-154893122D01*
%TO.N,~{ENGINE_IACK}*%
X194779889Y-177133712D02*
X194925000Y-177278823D01*
X194794998Y-181480002D02*
X194794998Y-187551314D01*
X195092708Y-181182292D02*
X194794998Y-181480002D01*
X193403871Y-192345903D02*
X193987500Y-192929532D01*
X328274000Y-204942030D02*
X327556970Y-204225000D01*
X194925000Y-177278823D02*
X194925000Y-177645256D01*
X194920669Y-190187073D02*
X193403871Y-191703871D01*
X194920669Y-187676986D02*
X194920669Y-190187073D01*
X193403871Y-191703871D02*
X193403871Y-192345903D01*
X195092708Y-177812964D02*
X195092708Y-181182292D01*
X328274000Y-208161405D02*
X328274000Y-204942030D01*
X330200000Y-220670000D02*
X328700000Y-219170000D01*
X328700000Y-219170000D02*
X328700000Y-208587405D01*
X195800000Y-194117032D02*
X195800000Y-203021000D01*
X328700000Y-208587405D02*
X328274000Y-208161405D01*
X193987500Y-192929532D02*
X194612500Y-192929532D01*
X194794998Y-187551314D02*
X194920669Y-187676986D01*
X194925000Y-177645256D02*
X195092708Y-177812964D01*
X194612500Y-192929532D02*
X195800000Y-194117032D01*
%TO.N,ENGINE_TCK*%
X353500000Y-237050000D02*
X354037500Y-236512500D01*
X166895000Y-207065000D02*
X168565502Y-208735502D01*
X353500000Y-252650000D02*
X353500000Y-237050000D01*
X168565502Y-208735502D02*
X168565502Y-248785930D01*
%TO.N,Net-(J7-Pad4)*%
X170550000Y-110525000D02*
X168700000Y-112375000D01*
X168700000Y-112375000D02*
X168700000Y-130000000D01*
%TO.N,Net-(J7-Pad2)*%
X173750000Y-104875000D02*
X173750000Y-110525000D01*
X173800000Y-104825000D02*
X173750000Y-104875000D01*
%TO.N,CPUCLK*%
X339044200Y-188844200D02*
X339025000Y-188825000D01*
X161272000Y-189856906D02*
X161369037Y-189759869D01*
X339044200Y-187326816D02*
X339044200Y-188805800D01*
X183300000Y-262125000D02*
X183300000Y-252496016D01*
X150641549Y-191648479D02*
X150641549Y-191104467D01*
X158076200Y-211193042D02*
X158474200Y-211591042D01*
X183300000Y-243422832D02*
X183464500Y-243258332D01*
X159275000Y-204525000D02*
X158076200Y-205723800D01*
X174785000Y-230060000D02*
X174785000Y-225000000D01*
X175838000Y-231113000D02*
X174785000Y-230060000D01*
X150832665Y-190913351D02*
X150832665Y-189954044D01*
X183475000Y-251678984D02*
X183300000Y-251503984D01*
X337820000Y-218130000D02*
X337820000Y-204921842D01*
X183300000Y-238275000D02*
X183475000Y-238100000D01*
X183300000Y-252496016D02*
X183475000Y-252321016D01*
X151834814Y-201898870D02*
X152246000Y-201487684D01*
X161272000Y-202528000D02*
X161272000Y-189856906D01*
X339425000Y-172746743D02*
X339425000Y-186946016D01*
X183300000Y-241827167D02*
X183300000Y-238275000D01*
X339425000Y-186946016D02*
X339044200Y-187326816D01*
X183464500Y-243258332D02*
X183464500Y-241991668D01*
X150641549Y-191104467D02*
X150832665Y-190913351D01*
X175838000Y-236987000D02*
X175838000Y-231113000D01*
X158076200Y-205723800D02*
X158076200Y-211193042D01*
X174775000Y-238050000D02*
X175838000Y-236987000D01*
X339044200Y-172365944D02*
X339425000Y-172746743D01*
X158474200Y-211591042D02*
X158474200Y-224700000D01*
X183464500Y-241991668D02*
X183300000Y-241827167D01*
X151834814Y-202209033D02*
X151834814Y-201898870D01*
X183300000Y-251503984D02*
X183300000Y-243422832D01*
X183475000Y-252321016D02*
X183475000Y-251678984D01*
X152246000Y-201487684D02*
X152246000Y-193252930D01*
X152246000Y-193252930D02*
X150641549Y-191648479D01*
X339044200Y-203697641D02*
X339044200Y-188844200D01*
X337820000Y-204921842D02*
X339044200Y-203697641D01*
X159275000Y-204525000D02*
X161272000Y-202528000D01*
X339044200Y-188805800D02*
X339025000Y-188825000D01*
X338080000Y-169505000D02*
X339044200Y-170469200D01*
X339044200Y-170469200D02*
X339044200Y-172365944D01*
%TO.N,FC0*%
X181881000Y-241474484D02*
X181881000Y-222981000D01*
X309387884Y-248737116D02*
X309500000Y-248625000D01*
X310058000Y-212531167D02*
X310058000Y-207634405D01*
X181915500Y-243741016D02*
X182710500Y-242946016D01*
X182710500Y-265303984D02*
X181915500Y-264508984D01*
X309844000Y-201207894D02*
X308361106Y-199725000D01*
X189150000Y-203793800D02*
X189331200Y-203975000D01*
X181375000Y-213404000D02*
X181375000Y-222475000D01*
X180977000Y-211028452D02*
X180283395Y-211722057D01*
X181850000Y-273400000D02*
X181881000Y-273369000D01*
X180283395Y-212312395D02*
X181375000Y-213404000D01*
X309844000Y-206341595D02*
X309844000Y-201207894D01*
X180283395Y-211722057D02*
X180283395Y-212312395D01*
X182135000Y-204525000D02*
X180977000Y-205683000D01*
X181881000Y-273369000D02*
X181881000Y-266775516D01*
X189150000Y-200502858D02*
X189150000Y-203793800D01*
X309500000Y-248625000D02*
X309500000Y-242012332D01*
X310131000Y-206628595D02*
X309844000Y-206341595D01*
X182710500Y-265946016D02*
X182710500Y-265303984D01*
X310058000Y-207634405D02*
X310131000Y-207561405D01*
X309668999Y-232250500D02*
X309418999Y-232000500D01*
X182710500Y-242946016D02*
X182710500Y-242303984D01*
X309418999Y-220698174D02*
X308469876Y-219749051D01*
X182710500Y-242303984D02*
X181881000Y-241474484D01*
X310131000Y-207561405D02*
X310131000Y-206628595D01*
X309500000Y-242012332D02*
X309271000Y-241783333D01*
X309668999Y-240118669D02*
X309668999Y-232250500D01*
X309418999Y-232000500D02*
X309418999Y-220698174D01*
X309271000Y-241783333D02*
X309271000Y-240516668D01*
X181881000Y-266775516D02*
X182710500Y-265946016D01*
X180977000Y-205683000D02*
X180977000Y-211028452D01*
X189303287Y-200349571D02*
X189150000Y-200502858D01*
X309271000Y-240516668D02*
X309668999Y-240118669D01*
X308469876Y-219749051D02*
X308469876Y-214119291D01*
X308469876Y-214119291D02*
X310058000Y-212531167D01*
X181915500Y-264508984D02*
X181915500Y-243741016D01*
X181881000Y-222981000D02*
X181375000Y-222475000D01*
%TO.N,FC1*%
X315475000Y-235683695D02*
X315475000Y-203069443D01*
X215657143Y-256982143D02*
X215225000Y-256550000D01*
X315543000Y-203001443D02*
X315543000Y-199548555D01*
X314983695Y-236175000D02*
X315475000Y-235683695D01*
X315475000Y-237416271D02*
X314983695Y-236924966D01*
X315475000Y-203069443D02*
X315543000Y-203001443D01*
X179595000Y-215600062D02*
X179595000Y-220495000D01*
X189846000Y-203393784D02*
X190106200Y-203653984D01*
X315543000Y-199548555D02*
X315475000Y-199480556D01*
X190106200Y-204296016D02*
X189846000Y-204556216D01*
X314983695Y-236924966D02*
X314983695Y-236175000D01*
X178883800Y-207776200D02*
X178883800Y-214888862D01*
X189846000Y-200902874D02*
X189846000Y-203393784D01*
X189846000Y-205315778D02*
X190957398Y-206427176D01*
X179595000Y-220495000D02*
X179825000Y-220725000D01*
X190106200Y-203653984D02*
X190106200Y-204296016D01*
X189846000Y-204556216D02*
X189846000Y-205315778D01*
X185800000Y-221650000D02*
X184925000Y-220775000D01*
X215657143Y-274075000D02*
X215657143Y-256982143D01*
X315475000Y-198698745D02*
X315764545Y-198409200D01*
X178883800Y-214888862D02*
X179595000Y-215600062D01*
X190996416Y-199752458D02*
X189846000Y-200902874D01*
X179595000Y-207065000D02*
X178883800Y-207776200D01*
X315475000Y-245400000D02*
X315475000Y-237416271D01*
X185800000Y-254225000D02*
X185800000Y-221650000D01*
X190996416Y-198079206D02*
X190996416Y-199752458D01*
X315475000Y-199480556D02*
X315475000Y-198698745D01*
%TO.N,FC2*%
X310423000Y-240443841D02*
X310423000Y-223906158D01*
X310348000Y-223831158D02*
X310348000Y-213307483D01*
X310812000Y-207946721D02*
X310885000Y-207873721D01*
X320265663Y-198875000D02*
X318644102Y-197253439D01*
X186875000Y-253475000D02*
X186450000Y-253050000D01*
X178300000Y-208850000D02*
X178075000Y-208625000D01*
X224678571Y-256303571D02*
X224250000Y-255875000D01*
X324270000Y-198875000D02*
X320265663Y-198875000D01*
X179595000Y-204525000D02*
X178396200Y-205723800D01*
X186450000Y-253050000D02*
X186450000Y-217850000D01*
X325380000Y-199985000D02*
X324270000Y-198875000D01*
X224678571Y-274075000D02*
X224678571Y-256303571D01*
X310885000Y-206316278D02*
X310598000Y-206029278D01*
X194923000Y-196028387D02*
X194625000Y-195730387D01*
X310025000Y-240841841D02*
X310423000Y-240443841D01*
X318644102Y-197253439D02*
X318644102Y-196885118D01*
X194756000Y-209482301D02*
X194756000Y-203298158D01*
X178300000Y-217716795D02*
X178300000Y-208850000D01*
X310598000Y-198990082D02*
X310550256Y-198942338D01*
X310025000Y-241471016D02*
X310025000Y-240841841D01*
X178396200Y-205723800D02*
X178396200Y-208303800D01*
X178396200Y-208303800D02*
X178075000Y-208625000D01*
X310550256Y-198942338D02*
X310550256Y-196377730D01*
X310885000Y-207873721D02*
X310885000Y-206316278D01*
X310348000Y-213307483D02*
X310812000Y-212843484D01*
X310652000Y-247809200D02*
X310652000Y-242098016D01*
X194923000Y-203131158D02*
X194923000Y-196028387D01*
X310598000Y-206029278D02*
X310598000Y-198990082D01*
X310812000Y-212843484D02*
X310812000Y-207946721D01*
X194756000Y-203298158D02*
X194923000Y-203131158D01*
X310652000Y-242098016D02*
X310025000Y-241471016D01*
X194688301Y-209550000D02*
X194756000Y-209482301D01*
X178613000Y-218029795D02*
X178300000Y-217716795D01*
X310423000Y-223906158D02*
X310348000Y-223831158D01*
%TD*%
M02*
