%TF.GenerationSoftware,KiCad,Pcbnew,9.0.7*%
%TF.CreationDate,2026-02-16T22:56:35-08:00*%
%TF.ProjectId,board,626f6172-642e-46b6-9963-61645f706362,rev?*%
%TF.SameCoordinates,Original*%
%TF.FileFunction,Paste,Top*%
%TF.FilePolarity,Positive*%
%FSLAX46Y46*%
G04 Gerber Fmt 4.6, Leading zero omitted, Abs format (unit mm)*
G04 Created by KiCad (PCBNEW 9.0.7) date 2026-02-16 22:56:35*
%MOMM*%
%LPD*%
G01*
G04 APERTURE LIST*
%ADD10C,0.010000*%
G04 APERTURE END LIST*
D10*
%TO.C,J8*%
X143807000Y-278101000D02*
X143872000Y-278105000D01*
X143936000Y-278112000D01*
X143999000Y-278121000D01*
X144062000Y-278133000D01*
X144125000Y-278148000D01*
X144187000Y-278165000D01*
X144248000Y-278185000D01*
X144308000Y-278208000D01*
X144367000Y-278233000D01*
X144426000Y-278260000D01*
X144483000Y-278290000D01*
X144538000Y-278322000D01*
X144593000Y-278356000D01*
X144645000Y-278393000D01*
X144697000Y-278432000D01*
X144746000Y-278473000D01*
X144794000Y-278516000D01*
X144840000Y-278561000D01*
X144884000Y-278608000D01*
X144926000Y-278656000D01*
X144966000Y-278707000D01*
X145004000Y-278759000D01*
X145039000Y-278812000D01*
X145072000Y-278867000D01*
X145103000Y-278924000D01*
X145132000Y-278981000D01*
X145158000Y-279040000D01*
X145182000Y-279100000D01*
X145206000Y-279170000D01*
X144962000Y-279236000D01*
X144945000Y-279184000D01*
X144926000Y-279134000D01*
X144905000Y-279084000D01*
X144882000Y-279036000D01*
X144856000Y-278989000D01*
X144829000Y-278943000D01*
X144800000Y-278898000D01*
X144769000Y-278854000D01*
X144736000Y-278812000D01*
X144701000Y-278771000D01*
X144665000Y-278732000D01*
X144626000Y-278694000D01*
X144587000Y-278658000D01*
X144546000Y-278624000D01*
X144503000Y-278592000D01*
X144459000Y-278561000D01*
X144414000Y-278532000D01*
X144367000Y-278506000D01*
X144320000Y-278481000D01*
X144271000Y-278459000D01*
X144221000Y-278438000D01*
X144171000Y-278420000D01*
X144120000Y-278404000D01*
X144068000Y-278390000D01*
X144016000Y-278378000D01*
X143963000Y-278369000D01*
X143910000Y-278362000D01*
X143857000Y-278357000D01*
X143803000Y-278354000D01*
X143751000Y-278354000D01*
X143701000Y-278354000D01*
X143647000Y-278357000D01*
X143594000Y-278362000D01*
X143541000Y-278369000D01*
X143488000Y-278378000D01*
X143435000Y-278390000D01*
X143383000Y-278404000D01*
X143332000Y-278420000D01*
X143282000Y-278438000D01*
X143232000Y-278459000D01*
X143183000Y-278481000D01*
X143135000Y-278506000D01*
X143089000Y-278533000D01*
X143043000Y-278562000D01*
X142999000Y-278592000D01*
X142956000Y-278625000D01*
X142915000Y-278659000D01*
X142875000Y-278695000D01*
X142837000Y-278733000D01*
X142800000Y-278772000D01*
X142766000Y-278813000D01*
X142733000Y-278856000D01*
X142701000Y-278899000D01*
X142672000Y-278944000D01*
X142645000Y-278991000D01*
X142619000Y-279038000D01*
X142596000Y-279086000D01*
X142575000Y-279136000D01*
X142556000Y-279186000D01*
X142539000Y-279238000D01*
X142296000Y-279173000D01*
X142313000Y-279123000D01*
X142336000Y-279062000D01*
X142361000Y-279002000D01*
X142389000Y-278943000D01*
X142420000Y-278886000D01*
X142453000Y-278829000D01*
X142488000Y-278775000D01*
X142526000Y-278722000D01*
X142565000Y-278670000D01*
X142607000Y-278620000D01*
X142651000Y-278572000D01*
X142697000Y-278526000D01*
X142745000Y-278482000D01*
X142795000Y-278440000D01*
X142846000Y-278401000D01*
X142900000Y-278363000D01*
X142954000Y-278328000D01*
X143010000Y-278295000D01*
X143068000Y-278264000D01*
X143126000Y-278236000D01*
X143186000Y-278211000D01*
X143247000Y-278188000D01*
X143309000Y-278167000D01*
X143372000Y-278149000D01*
X143435000Y-278134000D01*
X143499000Y-278122000D01*
X143563000Y-278112000D01*
X143628000Y-278106000D01*
X143693000Y-278101000D01*
X143751000Y-278100000D01*
X143756000Y-278100000D01*
X143807000Y-278101000D01*
G36*
X143807000Y-278101000D02*
G01*
X143872000Y-278105000D01*
X143936000Y-278112000D01*
X143999000Y-278121000D01*
X144062000Y-278133000D01*
X144125000Y-278148000D01*
X144187000Y-278165000D01*
X144248000Y-278185000D01*
X144308000Y-278208000D01*
X144367000Y-278233000D01*
X144426000Y-278260000D01*
X144483000Y-278290000D01*
X144538000Y-278322000D01*
X144593000Y-278356000D01*
X144645000Y-278393000D01*
X144697000Y-278432000D01*
X144746000Y-278473000D01*
X144794000Y-278516000D01*
X144840000Y-278561000D01*
X144884000Y-278608000D01*
X144926000Y-278656000D01*
X144966000Y-278707000D01*
X145004000Y-278759000D01*
X145039000Y-278812000D01*
X145072000Y-278867000D01*
X145103000Y-278924000D01*
X145132000Y-278981000D01*
X145158000Y-279040000D01*
X145182000Y-279100000D01*
X145206000Y-279170000D01*
X144962000Y-279236000D01*
X144945000Y-279184000D01*
X144926000Y-279134000D01*
X144905000Y-279084000D01*
X144882000Y-279036000D01*
X144856000Y-278989000D01*
X144829000Y-278943000D01*
X144800000Y-278898000D01*
X144769000Y-278854000D01*
X144736000Y-278812000D01*
X144701000Y-278771000D01*
X144665000Y-278732000D01*
X144626000Y-278694000D01*
X144587000Y-278658000D01*
X144546000Y-278624000D01*
X144503000Y-278592000D01*
X144459000Y-278561000D01*
X144414000Y-278532000D01*
X144367000Y-278506000D01*
X144320000Y-278481000D01*
X144271000Y-278459000D01*
X144221000Y-278438000D01*
X144171000Y-278420000D01*
X144120000Y-278404000D01*
X144068000Y-278390000D01*
X144016000Y-278378000D01*
X143963000Y-278369000D01*
X143910000Y-278362000D01*
X143857000Y-278357000D01*
X143803000Y-278354000D01*
X143751000Y-278354000D01*
X143701000Y-278354000D01*
X143647000Y-278357000D01*
X143594000Y-278362000D01*
X143541000Y-278369000D01*
X143488000Y-278378000D01*
X143435000Y-278390000D01*
X143383000Y-278404000D01*
X143332000Y-278420000D01*
X143282000Y-278438000D01*
X143232000Y-278459000D01*
X143183000Y-278481000D01*
X143135000Y-278506000D01*
X143089000Y-278533000D01*
X143043000Y-278562000D01*
X142999000Y-278592000D01*
X142956000Y-278625000D01*
X142915000Y-278659000D01*
X142875000Y-278695000D01*
X142837000Y-278733000D01*
X142800000Y-278772000D01*
X142766000Y-278813000D01*
X142733000Y-278856000D01*
X142701000Y-278899000D01*
X142672000Y-278944000D01*
X142645000Y-278991000D01*
X142619000Y-279038000D01*
X142596000Y-279086000D01*
X142575000Y-279136000D01*
X142556000Y-279186000D01*
X142539000Y-279238000D01*
X142296000Y-279173000D01*
X142313000Y-279123000D01*
X142336000Y-279062000D01*
X142361000Y-279002000D01*
X142389000Y-278943000D01*
X142420000Y-278886000D01*
X142453000Y-278829000D01*
X142488000Y-278775000D01*
X142526000Y-278722000D01*
X142565000Y-278670000D01*
X142607000Y-278620000D01*
X142651000Y-278572000D01*
X142697000Y-278526000D01*
X142745000Y-278482000D01*
X142795000Y-278440000D01*
X142846000Y-278401000D01*
X142900000Y-278363000D01*
X142954000Y-278328000D01*
X143010000Y-278295000D01*
X143068000Y-278264000D01*
X143126000Y-278236000D01*
X143186000Y-278211000D01*
X143247000Y-278188000D01*
X143309000Y-278167000D01*
X143372000Y-278149000D01*
X143435000Y-278134000D01*
X143499000Y-278122000D01*
X143563000Y-278112000D01*
X143628000Y-278106000D01*
X143693000Y-278101000D01*
X143751000Y-278100000D01*
X143756000Y-278100000D01*
X143807000Y-278101000D01*
G37*
X144253000Y-257105000D02*
X144314000Y-257128000D01*
X144374000Y-257153000D01*
X144433000Y-257181000D01*
X144490000Y-257212000D01*
X144547000Y-257245000D01*
X144601000Y-257280000D01*
X144654000Y-257318000D01*
X144706000Y-257357000D01*
X144756000Y-257399000D01*
X144804000Y-257443000D01*
X144850000Y-257489000D01*
X144894000Y-257537000D01*
X144936000Y-257587000D01*
X144975000Y-257638000D01*
X145013000Y-257692000D01*
X145048000Y-257746000D01*
X145081000Y-257802000D01*
X145112000Y-257860000D01*
X145140000Y-257918000D01*
X145165000Y-257978000D01*
X145188000Y-258039000D01*
X145209000Y-258101000D01*
X145227000Y-258164000D01*
X145242000Y-258227000D01*
X145254000Y-258291000D01*
X145264000Y-258355000D01*
X145270000Y-258420000D01*
X145275000Y-258485000D01*
X145276000Y-258543000D01*
X145276000Y-258548000D01*
X145275000Y-258599000D01*
X145271000Y-258664000D01*
X145264000Y-258728000D01*
X145255000Y-258791000D01*
X145243000Y-258854000D01*
X145228000Y-258917000D01*
X145211000Y-258979000D01*
X145191000Y-259040000D01*
X145168000Y-259100000D01*
X145143000Y-259159000D01*
X145116000Y-259218000D01*
X145086000Y-259275000D01*
X145054000Y-259330000D01*
X145020000Y-259385000D01*
X144983000Y-259437000D01*
X144944000Y-259489000D01*
X144903000Y-259538000D01*
X144860000Y-259586000D01*
X144815000Y-259632000D01*
X144768000Y-259676000D01*
X144720000Y-259718000D01*
X144669000Y-259758000D01*
X144617000Y-259796000D01*
X144564000Y-259831000D01*
X144509000Y-259864000D01*
X144452000Y-259895000D01*
X144395000Y-259924000D01*
X144336000Y-259950000D01*
X144276000Y-259974000D01*
X144206000Y-259998000D01*
X144140000Y-259754000D01*
X144192000Y-259737000D01*
X144242000Y-259718000D01*
X144292000Y-259697000D01*
X144340000Y-259674000D01*
X144387000Y-259648000D01*
X144433000Y-259621000D01*
X144478000Y-259592000D01*
X144522000Y-259561000D01*
X144564000Y-259528000D01*
X144605000Y-259493000D01*
X144644000Y-259457000D01*
X144682000Y-259418000D01*
X144718000Y-259379000D01*
X144752000Y-259338000D01*
X144784000Y-259295000D01*
X144815000Y-259251000D01*
X144844000Y-259206000D01*
X144870000Y-259159000D01*
X144895000Y-259112000D01*
X144917000Y-259063000D01*
X144938000Y-259013000D01*
X144956000Y-258963000D01*
X144972000Y-258912000D01*
X144986000Y-258860000D01*
X144998000Y-258808000D01*
X145007000Y-258755000D01*
X145014000Y-258702000D01*
X145019000Y-258649000D01*
X145022000Y-258595000D01*
X145022000Y-258543000D01*
X145022000Y-258493000D01*
X145019000Y-258439000D01*
X145014000Y-258386000D01*
X145007000Y-258333000D01*
X144998000Y-258280000D01*
X144986000Y-258227000D01*
X144972000Y-258175000D01*
X144956000Y-258124000D01*
X144938000Y-258074000D01*
X144917000Y-258024000D01*
X144895000Y-257975000D01*
X144870000Y-257927000D01*
X144843000Y-257881000D01*
X144814000Y-257835000D01*
X144784000Y-257791000D01*
X144751000Y-257748000D01*
X144717000Y-257707000D01*
X144681000Y-257667000D01*
X144643000Y-257629000D01*
X144604000Y-257592000D01*
X144563000Y-257558000D01*
X144520000Y-257525000D01*
X144477000Y-257493000D01*
X144432000Y-257464000D01*
X144385000Y-257437000D01*
X144338000Y-257411000D01*
X144290000Y-257388000D01*
X144240000Y-257367000D01*
X144190000Y-257348000D01*
X144138000Y-257331000D01*
X144203000Y-257088000D01*
X144253000Y-257105000D01*
G36*
X144253000Y-257105000D02*
G01*
X144314000Y-257128000D01*
X144374000Y-257153000D01*
X144433000Y-257181000D01*
X144490000Y-257212000D01*
X144547000Y-257245000D01*
X144601000Y-257280000D01*
X144654000Y-257318000D01*
X144706000Y-257357000D01*
X144756000Y-257399000D01*
X144804000Y-257443000D01*
X144850000Y-257489000D01*
X144894000Y-257537000D01*
X144936000Y-257587000D01*
X144975000Y-257638000D01*
X145013000Y-257692000D01*
X145048000Y-257746000D01*
X145081000Y-257802000D01*
X145112000Y-257860000D01*
X145140000Y-257918000D01*
X145165000Y-257978000D01*
X145188000Y-258039000D01*
X145209000Y-258101000D01*
X145227000Y-258164000D01*
X145242000Y-258227000D01*
X145254000Y-258291000D01*
X145264000Y-258355000D01*
X145270000Y-258420000D01*
X145275000Y-258485000D01*
X145276000Y-258543000D01*
X145276000Y-258548000D01*
X145275000Y-258599000D01*
X145271000Y-258664000D01*
X145264000Y-258728000D01*
X145255000Y-258791000D01*
X145243000Y-258854000D01*
X145228000Y-258917000D01*
X145211000Y-258979000D01*
X145191000Y-259040000D01*
X145168000Y-259100000D01*
X145143000Y-259159000D01*
X145116000Y-259218000D01*
X145086000Y-259275000D01*
X145054000Y-259330000D01*
X145020000Y-259385000D01*
X144983000Y-259437000D01*
X144944000Y-259489000D01*
X144903000Y-259538000D01*
X144860000Y-259586000D01*
X144815000Y-259632000D01*
X144768000Y-259676000D01*
X144720000Y-259718000D01*
X144669000Y-259758000D01*
X144617000Y-259796000D01*
X144564000Y-259831000D01*
X144509000Y-259864000D01*
X144452000Y-259895000D01*
X144395000Y-259924000D01*
X144336000Y-259950000D01*
X144276000Y-259974000D01*
X144206000Y-259998000D01*
X144140000Y-259754000D01*
X144192000Y-259737000D01*
X144242000Y-259718000D01*
X144292000Y-259697000D01*
X144340000Y-259674000D01*
X144387000Y-259648000D01*
X144433000Y-259621000D01*
X144478000Y-259592000D01*
X144522000Y-259561000D01*
X144564000Y-259528000D01*
X144605000Y-259493000D01*
X144644000Y-259457000D01*
X144682000Y-259418000D01*
X144718000Y-259379000D01*
X144752000Y-259338000D01*
X144784000Y-259295000D01*
X144815000Y-259251000D01*
X144844000Y-259206000D01*
X144870000Y-259159000D01*
X144895000Y-259112000D01*
X144917000Y-259063000D01*
X144938000Y-259013000D01*
X144956000Y-258963000D01*
X144972000Y-258912000D01*
X144986000Y-258860000D01*
X144998000Y-258808000D01*
X145007000Y-258755000D01*
X145014000Y-258702000D01*
X145019000Y-258649000D01*
X145022000Y-258595000D01*
X145022000Y-258543000D01*
X145022000Y-258493000D01*
X145019000Y-258439000D01*
X145014000Y-258386000D01*
X145007000Y-258333000D01*
X144998000Y-258280000D01*
X144986000Y-258227000D01*
X144972000Y-258175000D01*
X144956000Y-258124000D01*
X144938000Y-258074000D01*
X144917000Y-258024000D01*
X144895000Y-257975000D01*
X144870000Y-257927000D01*
X144843000Y-257881000D01*
X144814000Y-257835000D01*
X144784000Y-257791000D01*
X144751000Y-257748000D01*
X144717000Y-257707000D01*
X144681000Y-257667000D01*
X144643000Y-257629000D01*
X144604000Y-257592000D01*
X144563000Y-257558000D01*
X144520000Y-257525000D01*
X144477000Y-257493000D01*
X144432000Y-257464000D01*
X144385000Y-257437000D01*
X144338000Y-257411000D01*
X144290000Y-257388000D01*
X144240000Y-257367000D01*
X144190000Y-257348000D01*
X144138000Y-257331000D01*
X144203000Y-257088000D01*
X144253000Y-257105000D01*
G37*
X186581000Y-278101000D02*
X186646000Y-278105000D01*
X186710000Y-278112000D01*
X186773000Y-278121000D01*
X186836000Y-278133000D01*
X186899000Y-278148000D01*
X186961000Y-278165000D01*
X187022000Y-278185000D01*
X187082000Y-278208000D01*
X187141000Y-278233000D01*
X187200000Y-278260000D01*
X187257000Y-278290000D01*
X187312000Y-278322000D01*
X187367000Y-278356000D01*
X187419000Y-278393000D01*
X187471000Y-278432000D01*
X187520000Y-278473000D01*
X187568000Y-278516000D01*
X187614000Y-278561000D01*
X187658000Y-278608000D01*
X187700000Y-278656000D01*
X187740000Y-278707000D01*
X187778000Y-278759000D01*
X187813000Y-278812000D01*
X187846000Y-278867000D01*
X187877000Y-278924000D01*
X187906000Y-278981000D01*
X187932000Y-279040000D01*
X187956000Y-279100000D01*
X187980000Y-279170000D01*
X187736000Y-279236000D01*
X187719000Y-279184000D01*
X187700000Y-279134000D01*
X187679000Y-279084000D01*
X187656000Y-279036000D01*
X187630000Y-278989000D01*
X187603000Y-278943000D01*
X187574000Y-278898000D01*
X187543000Y-278854000D01*
X187510000Y-278812000D01*
X187475000Y-278771000D01*
X187439000Y-278732000D01*
X187400000Y-278694000D01*
X187361000Y-278658000D01*
X187320000Y-278624000D01*
X187277000Y-278592000D01*
X187233000Y-278561000D01*
X187188000Y-278532000D01*
X187141000Y-278506000D01*
X187094000Y-278481000D01*
X187045000Y-278459000D01*
X186995000Y-278438000D01*
X186945000Y-278420000D01*
X186894000Y-278404000D01*
X186842000Y-278390000D01*
X186790000Y-278378000D01*
X186737000Y-278369000D01*
X186684000Y-278362000D01*
X186631000Y-278357000D01*
X186577000Y-278354000D01*
X186525000Y-278354000D01*
X186475000Y-278354000D01*
X186421000Y-278357000D01*
X186368000Y-278362000D01*
X186315000Y-278369000D01*
X186262000Y-278378000D01*
X186209000Y-278390000D01*
X186157000Y-278404000D01*
X186106000Y-278420000D01*
X186056000Y-278438000D01*
X186006000Y-278459000D01*
X185957000Y-278481000D01*
X185909000Y-278506000D01*
X185863000Y-278533000D01*
X185817000Y-278562000D01*
X185773000Y-278592000D01*
X185730000Y-278625000D01*
X185689000Y-278659000D01*
X185649000Y-278695000D01*
X185611000Y-278733000D01*
X185574000Y-278772000D01*
X185540000Y-278813000D01*
X185507000Y-278856000D01*
X185475000Y-278899000D01*
X185446000Y-278944000D01*
X185419000Y-278991000D01*
X185393000Y-279038000D01*
X185370000Y-279086000D01*
X185349000Y-279136000D01*
X185330000Y-279186000D01*
X185313000Y-279238000D01*
X185070000Y-279173000D01*
X185087000Y-279123000D01*
X185110000Y-279062000D01*
X185135000Y-279002000D01*
X185163000Y-278943000D01*
X185194000Y-278886000D01*
X185227000Y-278829000D01*
X185262000Y-278775000D01*
X185300000Y-278722000D01*
X185339000Y-278670000D01*
X185381000Y-278620000D01*
X185425000Y-278572000D01*
X185471000Y-278526000D01*
X185519000Y-278482000D01*
X185569000Y-278440000D01*
X185620000Y-278401000D01*
X185674000Y-278363000D01*
X185728000Y-278328000D01*
X185784000Y-278295000D01*
X185842000Y-278264000D01*
X185900000Y-278236000D01*
X185960000Y-278211000D01*
X186021000Y-278188000D01*
X186083000Y-278167000D01*
X186146000Y-278149000D01*
X186209000Y-278134000D01*
X186273000Y-278122000D01*
X186337000Y-278112000D01*
X186402000Y-278106000D01*
X186467000Y-278101000D01*
X186525000Y-278100000D01*
X186530000Y-278100000D01*
X186581000Y-278101000D01*
G36*
X186581000Y-278101000D02*
G01*
X186646000Y-278105000D01*
X186710000Y-278112000D01*
X186773000Y-278121000D01*
X186836000Y-278133000D01*
X186899000Y-278148000D01*
X186961000Y-278165000D01*
X187022000Y-278185000D01*
X187082000Y-278208000D01*
X187141000Y-278233000D01*
X187200000Y-278260000D01*
X187257000Y-278290000D01*
X187312000Y-278322000D01*
X187367000Y-278356000D01*
X187419000Y-278393000D01*
X187471000Y-278432000D01*
X187520000Y-278473000D01*
X187568000Y-278516000D01*
X187614000Y-278561000D01*
X187658000Y-278608000D01*
X187700000Y-278656000D01*
X187740000Y-278707000D01*
X187778000Y-278759000D01*
X187813000Y-278812000D01*
X187846000Y-278867000D01*
X187877000Y-278924000D01*
X187906000Y-278981000D01*
X187932000Y-279040000D01*
X187956000Y-279100000D01*
X187980000Y-279170000D01*
X187736000Y-279236000D01*
X187719000Y-279184000D01*
X187700000Y-279134000D01*
X187679000Y-279084000D01*
X187656000Y-279036000D01*
X187630000Y-278989000D01*
X187603000Y-278943000D01*
X187574000Y-278898000D01*
X187543000Y-278854000D01*
X187510000Y-278812000D01*
X187475000Y-278771000D01*
X187439000Y-278732000D01*
X187400000Y-278694000D01*
X187361000Y-278658000D01*
X187320000Y-278624000D01*
X187277000Y-278592000D01*
X187233000Y-278561000D01*
X187188000Y-278532000D01*
X187141000Y-278506000D01*
X187094000Y-278481000D01*
X187045000Y-278459000D01*
X186995000Y-278438000D01*
X186945000Y-278420000D01*
X186894000Y-278404000D01*
X186842000Y-278390000D01*
X186790000Y-278378000D01*
X186737000Y-278369000D01*
X186684000Y-278362000D01*
X186631000Y-278357000D01*
X186577000Y-278354000D01*
X186525000Y-278354000D01*
X186475000Y-278354000D01*
X186421000Y-278357000D01*
X186368000Y-278362000D01*
X186315000Y-278369000D01*
X186262000Y-278378000D01*
X186209000Y-278390000D01*
X186157000Y-278404000D01*
X186106000Y-278420000D01*
X186056000Y-278438000D01*
X186006000Y-278459000D01*
X185957000Y-278481000D01*
X185909000Y-278506000D01*
X185863000Y-278533000D01*
X185817000Y-278562000D01*
X185773000Y-278592000D01*
X185730000Y-278625000D01*
X185689000Y-278659000D01*
X185649000Y-278695000D01*
X185611000Y-278733000D01*
X185574000Y-278772000D01*
X185540000Y-278813000D01*
X185507000Y-278856000D01*
X185475000Y-278899000D01*
X185446000Y-278944000D01*
X185419000Y-278991000D01*
X185393000Y-279038000D01*
X185370000Y-279086000D01*
X185349000Y-279136000D01*
X185330000Y-279186000D01*
X185313000Y-279238000D01*
X185070000Y-279173000D01*
X185087000Y-279123000D01*
X185110000Y-279062000D01*
X185135000Y-279002000D01*
X185163000Y-278943000D01*
X185194000Y-278886000D01*
X185227000Y-278829000D01*
X185262000Y-278775000D01*
X185300000Y-278722000D01*
X185339000Y-278670000D01*
X185381000Y-278620000D01*
X185425000Y-278572000D01*
X185471000Y-278526000D01*
X185519000Y-278482000D01*
X185569000Y-278440000D01*
X185620000Y-278401000D01*
X185674000Y-278363000D01*
X185728000Y-278328000D01*
X185784000Y-278295000D01*
X185842000Y-278264000D01*
X185900000Y-278236000D01*
X185960000Y-278211000D01*
X186021000Y-278188000D01*
X186083000Y-278167000D01*
X186146000Y-278149000D01*
X186209000Y-278134000D01*
X186273000Y-278122000D01*
X186337000Y-278112000D01*
X186402000Y-278106000D01*
X186467000Y-278101000D01*
X186525000Y-278100000D01*
X186530000Y-278100000D01*
X186581000Y-278101000D01*
G37*
X186136000Y-257332000D02*
X186084000Y-257349000D01*
X186034000Y-257368000D01*
X185984000Y-257389000D01*
X185936000Y-257412000D01*
X185889000Y-257438000D01*
X185843000Y-257465000D01*
X185798000Y-257494000D01*
X185754000Y-257525000D01*
X185712000Y-257558000D01*
X185671000Y-257593000D01*
X185632000Y-257629000D01*
X185594000Y-257668000D01*
X185558000Y-257707000D01*
X185524000Y-257748000D01*
X185492000Y-257791000D01*
X185461000Y-257835000D01*
X185432000Y-257880000D01*
X185406000Y-257927000D01*
X185381000Y-257974000D01*
X185359000Y-258023000D01*
X185338000Y-258073000D01*
X185320000Y-258123000D01*
X185304000Y-258174000D01*
X185290000Y-258226000D01*
X185278000Y-258278000D01*
X185269000Y-258331000D01*
X185262000Y-258384000D01*
X185257000Y-258437000D01*
X185254000Y-258491000D01*
X185254000Y-258543000D01*
X185254000Y-258593000D01*
X185257000Y-258647000D01*
X185262000Y-258700000D01*
X185269000Y-258753000D01*
X185278000Y-258806000D01*
X185290000Y-258859000D01*
X185304000Y-258911000D01*
X185320000Y-258962000D01*
X185338000Y-259012000D01*
X185359000Y-259062000D01*
X185381000Y-259111000D01*
X185406000Y-259159000D01*
X185433000Y-259205000D01*
X185462000Y-259251000D01*
X185492000Y-259295000D01*
X185525000Y-259338000D01*
X185559000Y-259379000D01*
X185595000Y-259419000D01*
X185633000Y-259457000D01*
X185672000Y-259494000D01*
X185713000Y-259528000D01*
X185756000Y-259561000D01*
X185799000Y-259593000D01*
X185844000Y-259622000D01*
X185891000Y-259649000D01*
X185938000Y-259675000D01*
X185986000Y-259698000D01*
X186036000Y-259719000D01*
X186086000Y-259738000D01*
X186138000Y-259755000D01*
X186073000Y-259998000D01*
X186023000Y-259981000D01*
X185962000Y-259958000D01*
X185902000Y-259933000D01*
X185843000Y-259905000D01*
X185786000Y-259874000D01*
X185729000Y-259841000D01*
X185675000Y-259806000D01*
X185622000Y-259768000D01*
X185570000Y-259729000D01*
X185520000Y-259687000D01*
X185472000Y-259643000D01*
X185426000Y-259597000D01*
X185382000Y-259549000D01*
X185340000Y-259499000D01*
X185301000Y-259448000D01*
X185263000Y-259394000D01*
X185228000Y-259340000D01*
X185195000Y-259284000D01*
X185164000Y-259226000D01*
X185136000Y-259168000D01*
X185111000Y-259108000D01*
X185088000Y-259047000D01*
X185067000Y-258985000D01*
X185049000Y-258922000D01*
X185034000Y-258859000D01*
X185022000Y-258795000D01*
X185012000Y-258731000D01*
X185006000Y-258666000D01*
X185001000Y-258601000D01*
X185000000Y-258543000D01*
X185000000Y-258538000D01*
X185001000Y-258487000D01*
X185005000Y-258422000D01*
X185012000Y-258358000D01*
X185021000Y-258295000D01*
X185033000Y-258232000D01*
X185048000Y-258169000D01*
X185065000Y-258107000D01*
X185085000Y-258046000D01*
X185108000Y-257986000D01*
X185133000Y-257927000D01*
X185160000Y-257868000D01*
X185190000Y-257811000D01*
X185222000Y-257756000D01*
X185256000Y-257701000D01*
X185293000Y-257649000D01*
X185332000Y-257597000D01*
X185373000Y-257548000D01*
X185416000Y-257500000D01*
X185461000Y-257454000D01*
X185508000Y-257410000D01*
X185556000Y-257368000D01*
X185607000Y-257328000D01*
X185659000Y-257290000D01*
X185712000Y-257255000D01*
X185767000Y-257222000D01*
X185824000Y-257191000D01*
X185881000Y-257162000D01*
X185940000Y-257136000D01*
X186000000Y-257112000D01*
X186070000Y-257088000D01*
X186136000Y-257332000D01*
G36*
X186136000Y-257332000D02*
G01*
X186084000Y-257349000D01*
X186034000Y-257368000D01*
X185984000Y-257389000D01*
X185936000Y-257412000D01*
X185889000Y-257438000D01*
X185843000Y-257465000D01*
X185798000Y-257494000D01*
X185754000Y-257525000D01*
X185712000Y-257558000D01*
X185671000Y-257593000D01*
X185632000Y-257629000D01*
X185594000Y-257668000D01*
X185558000Y-257707000D01*
X185524000Y-257748000D01*
X185492000Y-257791000D01*
X185461000Y-257835000D01*
X185432000Y-257880000D01*
X185406000Y-257927000D01*
X185381000Y-257974000D01*
X185359000Y-258023000D01*
X185338000Y-258073000D01*
X185320000Y-258123000D01*
X185304000Y-258174000D01*
X185290000Y-258226000D01*
X185278000Y-258278000D01*
X185269000Y-258331000D01*
X185262000Y-258384000D01*
X185257000Y-258437000D01*
X185254000Y-258491000D01*
X185254000Y-258543000D01*
X185254000Y-258593000D01*
X185257000Y-258647000D01*
X185262000Y-258700000D01*
X185269000Y-258753000D01*
X185278000Y-258806000D01*
X185290000Y-258859000D01*
X185304000Y-258911000D01*
X185320000Y-258962000D01*
X185338000Y-259012000D01*
X185359000Y-259062000D01*
X185381000Y-259111000D01*
X185406000Y-259159000D01*
X185433000Y-259205000D01*
X185462000Y-259251000D01*
X185492000Y-259295000D01*
X185525000Y-259338000D01*
X185559000Y-259379000D01*
X185595000Y-259419000D01*
X185633000Y-259457000D01*
X185672000Y-259494000D01*
X185713000Y-259528000D01*
X185756000Y-259561000D01*
X185799000Y-259593000D01*
X185844000Y-259622000D01*
X185891000Y-259649000D01*
X185938000Y-259675000D01*
X185986000Y-259698000D01*
X186036000Y-259719000D01*
X186086000Y-259738000D01*
X186138000Y-259755000D01*
X186073000Y-259998000D01*
X186023000Y-259981000D01*
X185962000Y-259958000D01*
X185902000Y-259933000D01*
X185843000Y-259905000D01*
X185786000Y-259874000D01*
X185729000Y-259841000D01*
X185675000Y-259806000D01*
X185622000Y-259768000D01*
X185570000Y-259729000D01*
X185520000Y-259687000D01*
X185472000Y-259643000D01*
X185426000Y-259597000D01*
X185382000Y-259549000D01*
X185340000Y-259499000D01*
X185301000Y-259448000D01*
X185263000Y-259394000D01*
X185228000Y-259340000D01*
X185195000Y-259284000D01*
X185164000Y-259226000D01*
X185136000Y-259168000D01*
X185111000Y-259108000D01*
X185088000Y-259047000D01*
X185067000Y-258985000D01*
X185049000Y-258922000D01*
X185034000Y-258859000D01*
X185022000Y-258795000D01*
X185012000Y-258731000D01*
X185006000Y-258666000D01*
X185001000Y-258601000D01*
X185000000Y-258543000D01*
X185000000Y-258538000D01*
X185001000Y-258487000D01*
X185005000Y-258422000D01*
X185012000Y-258358000D01*
X185021000Y-258295000D01*
X185033000Y-258232000D01*
X185048000Y-258169000D01*
X185065000Y-258107000D01*
X185085000Y-258046000D01*
X185108000Y-257986000D01*
X185133000Y-257927000D01*
X185160000Y-257868000D01*
X185190000Y-257811000D01*
X185222000Y-257756000D01*
X185256000Y-257701000D01*
X185293000Y-257649000D01*
X185332000Y-257597000D01*
X185373000Y-257548000D01*
X185416000Y-257500000D01*
X185461000Y-257454000D01*
X185508000Y-257410000D01*
X185556000Y-257368000D01*
X185607000Y-257328000D01*
X185659000Y-257290000D01*
X185712000Y-257255000D01*
X185767000Y-257222000D01*
X185824000Y-257191000D01*
X185881000Y-257162000D01*
X185940000Y-257136000D01*
X186000000Y-257112000D01*
X186070000Y-257088000D01*
X186136000Y-257332000D01*
G37*
%TD*%
M02*
