M48
; DRILL file {KiCad 9.0.7} date 2026-02-16T22:56:28-0800
; FORMAT={-:-/ absolute / metric / decimal}
; #@! TF.CreationDate,2026-02-16T22:56:28-08:00
; #@! TF.GenerationSoftware,Kicad,Pcbnew,9.0.7
; #@! TF.FileFunction,Plated,1,4,PTH
FMAT,2
METRIC
; #@! TA.AperFunction,Plated,PTH,ViaDrill
T1C0.400
; #@! TA.AperFunction,Plated,PTH,ComponentDrill
T2C0.500
; #@! TA.AperFunction,Plated,PTH,ComponentDrill
T3C0.508
; #@! TA.AperFunction,Plated,PTH,ComponentDrill
T4C0.701
; #@! TA.AperFunction,Plated,PTH,ComponentDrill
T5C0.711
; #@! TA.AperFunction,Plated,PTH,ComponentDrill
T6C0.800
; #@! TA.AperFunction,Plated,PTH,ComponentDrill
T7C0.813
; #@! TA.AperFunction,Plated,PTH,ComponentDrill
T8C0.900
; #@! TA.AperFunction,Plated,PTH,ComponentDrill
T9C1.000
; #@! TA.AperFunction,Plated,PTH,ComponentDrill
T10C1.300
; #@! TA.AperFunction,Plated,PTH,ComponentDrill
T11C2.500
; #@! TA.AperFunction,Plated,PTH,ComponentDrill
T12C2.692
; #@! TA.AperFunction,Plated,PTH,ComponentDrill
T13C3.200
%
G90
G05
T1
X112.275Y-175.371
X113.05Y-161.4
X119.575Y-167.697
X119.7Y-267.6
X121.025Y-184.3
X121.025Y-248.621
X121.614Y-247.878
X121.8Y-182.1
X122.119Y-180.206
X122.15Y-246.975
X135.63Y-246.252
X142.175Y-236.7
X142.375Y-178.9
X143.394Y-211.821
X143.433Y-214.376
X143.5Y-209.225
X143.8Y-207.225
X144.504Y-214.307
X144.627Y-212.845
X144.8Y-204.675
X145.31Y-211.213
X145.565Y-212.374
X145.592Y-202.185
X145.627Y-214.301
X146.34Y-207.997
X146.525Y-150.725
X146.575Y-199.1
X147.1Y-255.2
X147.275Y-197.975
X147.347Y-200.531
X147.475Y-152.425
X147.907Y-253.324
X148.1Y-182.093
X148.149Y-181.047
X148.525Y-252.475
X148.875Y-148.125
X149.1Y-125.475
X149.154Y-202.003
X149.281Y-196.858
X149.35Y-194.775
X149.401Y-208.895
X149.65Y-176.2
X149.677Y-207.35
X149.919Y-177.8
X149.963Y-195.746
X150.025Y-190.625
X150.225Y-194.196
X150.371Y-172.875
X150.636Y-150.0
X150.702Y-192.662
X150.748Y-170.075
X150.833Y-189.954
X150.9Y-120.55
X151.035Y-148.05
X151.05Y-157.539
X151.1Y-185.55
X151.313Y-151.675
X151.625Y-191.685
X151.663Y-219.387
X151.663Y-227.175
X151.663Y-238.45
X151.835Y-202.209
X152.346Y-145.564
X152.359Y-189.647
X152.815Y-149.622
X153.488Y-192.082
X153.6Y-153.375
X153.604Y-190.246
X154.244Y-150.168
X154.25Y-213.55
X154.334Y-147.179
X154.5Y-142.05
X155.025Y-198.835
X155.241Y-187.671
X155.362Y-148.343
X155.4Y-197.361
X155.71Y-200.88
X155.771Y-209.875
X156.4Y-242.2
X156.8Y-117.45
X157.06Y-141.248
X158.012Y-151.825
X158.474Y-224.7
X158.925Y-246.725
X158.964Y-157.815
X159.4Y-162.35
X159.4Y-172.5
X160.048Y-143.603
X160.169Y-142.56
X160.381Y-188.729
X160.975Y-160.077
X161.369Y-189.76
X161.65Y-182.45
X161.825Y-159.25
X161.9Y-209.5
X162.4Y-162.675
X162.4Y-193.55
X162.572Y-187.473
X163.25Y-197.65
X163.4Y-174.65
X163.575Y-243.25
X163.75Y-141.225
X163.75Y-181.5
X163.825Y-135.375
X164.268Y-196.55
X165.043Y-194.468
X165.1Y-208.775
X165.525Y-113.175
X166.417Y-153.848
X166.475Y-195.2
X166.55Y-135.347
X166.55Y-196.275
X168.566Y-248.786
X168.6Y-184.225
X168.675Y-180.875
X168.7Y-130.0
X168.75Y-135.6
X168.75Y-159.0
X168.875Y-263.15
X169.5Y-165.0
X169.575Y-209.5
X170.3Y-233.95
X170.375Y-114.0
X170.452Y-184.828
X170.575Y-228.9
X171.4Y-230.804
X171.5Y-142.0
X171.603Y-227.11
X172.475Y-141.55
X172.725Y-212.075
X173.012Y-223.25
X173.059Y-229.262
X173.15Y-183.131
X173.696Y-199.367
X173.8Y-104.825
X173.925Y-190.05
X174.087Y-226.848
X174.425Y-169.0
X174.575Y-212.775
X174.775Y-238.05
X175.15Y-194.15
X175.8Y-196.275
X175.85Y-183.4
X176.489Y-216.235
X176.9Y-181.775
X177.275Y-198.5
X177.725Y-194.365
X177.848Y-164.346
X177.95Y-160.25
X178.075Y-208.625
X178.3Y-166.75
X178.325Y-185.006
X178.375Y-154.975
X178.613Y-218.03
X178.794Y-199.075
X178.925Y-138.35
X179.164Y-191.892
X179.65Y-184.95
X179.825Y-220.725
X179.9Y-214.825
X180.6Y-196.65
X180.6Y-199.775
X180.698Y-187.096
X181.058Y-212.043
X181.2Y-241.55
X181.2Y-268.5
X181.217Y-224.865
X181.225Y-182.775
X181.375Y-222.475
X181.85Y-273.4
X181.935Y-242.625
X181.935Y-265.625
X181.975Y-201.125
X182.141Y-187.096
X182.7Y-252.0
X182.75Y-165.35
X182.925Y-173.15
X183.075Y-235.3
X183.277Y-225.462
X183.3Y-262.125
X183.475Y-238.1
X183.525Y-233.275
X183.6Y-227.175
X183.711Y-153.225
X183.75Y-185.325
X184.925Y-220.775
X185.65Y-175.272
X185.8Y-254.225
X186.2Y-140.5
X186.45Y-217.85
X186.875Y-253.475
X187.225Y-229.412
X188.425Y-146.598
X188.425Y-200.925
X188.6Y-193.325
X188.8Y-180.875
X188.92Y-191.909
X189.025Y-226.15
X189.075Y-213.15
X189.075Y-215.927
X189.25Y-153.875
X189.303Y-200.35
X189.331Y-203.975
X189.402Y-179.962
X189.404Y-188.4
X189.616Y-176.359
X189.648Y-228.66
X189.688Y-183.319
X189.725Y-168.0
X189.725Y-196.905
X189.812Y-199.279
X189.825Y-159.225
X190.175Y-217.0
X190.216Y-190.064
X190.225Y-209.85
X190.448Y-219.49
X190.601Y-178.97
X190.604Y-224.025
X190.718Y-189.205
X190.825Y-225.15
X190.957Y-206.427
X190.996Y-198.079
X191.025Y-207.475
X191.275Y-242.875
X191.429Y-175.26
X191.467Y-202.6
X191.475Y-134.65
X191.475Y-185.55
X192.0Y-214.775
X192.05Y-277.275
X192.139Y-166.05
X192.171Y-216.579
X192.354Y-171.725
X192.525Y-143.4
X192.69Y-173.608
X192.825Y-242.875
X192.85Y-187.4
X193.015Y-188.327
X193.042Y-164.333
X193.202Y-241.575
X193.776Y-182.746
X193.875Y-161.375
X194.148Y-202.413
X194.163Y-193.782
X194.214Y-192.232
X194.318Y-178.134
X194.443Y-166.125
X194.625Y-195.73
X194.65Y-160.2
X194.688Y-209.55
X194.75Y-225.425
X194.775Y-231.613
X194.78Y-177.134
X195.568Y-176.44
X195.57Y-183.45
X195.65Y-164.525
X195.725Y-240.625
X195.8Y-203.021
X196.15Y-172.12
X196.152Y-178.75
X196.268Y-173.685
X196.55Y-206.625
X196.675Y-200.2
X197.45Y-210.35
X198.025Y-205.6
X199.145Y-228.6
X200.195Y-168.527
X200.35Y-227.175
X201.05Y-253.35
X201.725Y-203.031
X201.8Y-174.7
X202.5Y-132.475
X202.525Y-160.85
X203.05Y-157.825
X203.25Y-220.3
X203.625Y-131.575
X203.65Y-217.7
X203.675Y-215.175
X203.825Y-155.2
X204.5Y-152.925
X204.625Y-211.225
X204.625Y-212.8
X207.844Y-217.711
X208.15Y-213.971
X208.475Y-155.325
X209.3Y-157.625
X209.825Y-220.977
X210.175Y-160.275
X210.325Y-224.025
X210.975Y-162.975
X211.183Y-269.464
X214.873Y-190.344
X215.225Y-256.55
X215.4Y-255.025
X215.825Y-167.725
X216.0Y-232.65
X216.402Y-254.206
X216.675Y-230.4
X216.789Y-170.077
X217.225Y-165.675
X217.3Y-225.525
X217.925Y-215.25
X218.0Y-212.7
X218.675Y-151.925
X218.925Y-154.5
X220.347Y-143.988
X223.125Y-174.382
X224.25Y-255.875
X224.6Y-171.825
X226.8Y-169.025
X229.425Y-166.762
X232.1Y-164.222
X232.164Y-254.55
X233.275Y-143.925
X234.945Y-143.663
X235.45Y-130.725
X236.25Y-117.975
X236.25Y-144.55
X236.803Y-200.35
X236.85Y-195.175
X237.199Y-142.825
X237.561Y-143.811
X237.625Y-267.8
X241.05Y-233.55
X241.55Y-134.075
X241.925Y-129.75
X243.9Y-132.8
X246.35Y-131.975
X247.4Y-252.925
X249.225Y-131.375
X250.4Y-176.488
X251.525Y-129.95
X251.7Y-253.7
X252.875Y-179.25
X254.722Y-181.568
X256.1Y-252.375
X256.35Y-184.108
X259.1Y-141.275
X259.319Y-199.775
X259.802Y-143.975
X260.95Y-195.25
X261.625Y-186.648
X264.05Y-132.725
X264.15Y-182.002
X265.075Y-179.462
X265.475Y-254.85
X266.825Y-125.225
X280.882Y-199.747
X283.05Y-198.275
X283.075Y-143.675
X285.7Y-194.175
X285.976Y-232.174
X290.725Y-248.575
X291.197Y-198.719
X291.525Y-249.625
X292.325Y-174.85
X292.35Y-243.85
X292.604Y-195.851
X292.95Y-117.0
X293.651Y-250.655
X293.652Y-195.85
X293.75Y-225.325
X294.3Y-164.8
X294.375Y-118.475
X294.525Y-202.298
X295.075Y-249.55
X295.192Y-201.609
X295.375Y-170.1
X295.375Y-222.9
X296.125Y-172.975
X296.325Y-233.1
X296.348Y-249.154
X296.4Y-220.275
X297.275Y-248.35
X297.675Y-215.25
X298.45Y-248.4
X299.125Y-217.325
X299.225Y-181.568
X299.225Y-214.75
X299.275Y-121.45
X299.275Y-249.475
X299.6Y-109.4
X299.675Y-104.4
X300.25Y-183.055
X300.575Y-225.05
X301.25Y-222.15
X301.25Y-223.517
X301.575Y-179.028
X301.75Y-249.0
X301.925Y-213.398
X302.35Y-188.725
X302.525Y-244.8
X303.278Y-233.491
X303.884Y-223.722
X304.317Y-199.725
X305.84Y-231.375
X306.0Y-143.675
X306.485Y-224.4
X306.553Y-226.275
X306.625Y-176.25
X306.725Y-247.809
X306.772Y-199.348
X306.861Y-253.678
X307.122Y-240.075
X307.534Y-249.489
X307.65Y-238.15
X307.695Y-219.606
X307.719Y-254.101
X307.764Y-233.169
X307.81Y-235.109
X308.108Y-221.016
X308.361Y-199.725
X308.6Y-190.521
X308.65Y-180.675
X308.775Y-168.85
X309.199Y-217.916
X309.388Y-248.737
X309.55Y-175.175
X309.55Y-185.6
X309.622Y-219.398
X309.722Y-183.75
X310.3Y-172.1
X310.46Y-188.073
X310.55Y-196.378
X310.639Y-182.475
X310.652Y-247.809
X310.8Y-241.15
X311.264Y-201.275
X311.3Y-181.659
X311.717Y-241.837
X311.978Y-180.54
X311.987Y-239.624
X312.0Y-186.888
X312.05Y-174.275
X312.775Y-179.6
X312.794Y-235.109
X312.815Y-227.949
X312.875Y-178.555
X313.171Y-230.85
X313.225Y-242.675
X313.4Y-268.325
X313.533Y-239.225
X313.55Y-181.769
X313.55Y-189.816
X313.75Y-246.25
X313.838Y-197.935
X313.946Y-230.055
X314.099Y-179.845
X314.175Y-176.6
X314.323Y-231.631
X314.45Y-142.05
X314.663Y-235.4
X314.783Y-240.7
X315.063Y-183.438
X315.175Y-167.675
X315.475Y-245.4
X315.477Y-184.503
X315.482Y-193.136
X315.575Y-178.15
X315.749Y-236.506
X315.765Y-198.409
X315.854Y-187.6
X316.425Y-169.525
X316.652Y-225.825
X317.825Y-180.376
X317.925Y-147.975
X317.925Y-174.585
X318.075Y-228.175
X318.644Y-196.885
X318.725Y-222.825
X318.925Y-207.4
X321.45Y-170.8
X321.775Y-213.775
X324.175Y-235.6
X324.975Y-125.95
X325.057Y-166.9
X325.15Y-184.8
X325.525Y-187.425
X326.1Y-202.855
X326.35Y-244.825
X326.575Y-255.075
X327.557Y-204.225
X328.498Y-201.181
X331.3Y-119.05
X331.625Y-157.675
X332.05Y-194.175
X332.275Y-167.475
X332.5Y-262.975
X333.375Y-167.525
X334.475Y-144.8
X334.775Y-153.325
X335.729Y-167.975
X336.1Y-170.922
X337.3Y-111.55
X337.675Y-110.3
X338.05Y-228.825
X338.125Y-187.6
X338.2Y-239.85
X339.025Y-188.825
X339.049Y-241.37
X339.6Y-231.225
X339.825Y-203.45
X340.025Y-208.225
X340.15Y-234.05
X340.425Y-166.525
X340.425Y-192.0
X340.525Y-167.5
X340.861Y-233.277
X341.135Y-241.675
X341.135Y-243.25
X342.6Y-208.575
X342.725Y-243.9
X342.8Y-117.375
X343.944Y-208.823
X344.0Y-242.525
X344.125Y-192.325
X344.736Y-145.3
X345.075Y-134.825
X346.325Y-205.875
X346.95Y-166.85
X347.45Y-206.875
X349.325Y-173.325
X351.475Y-211.9
X351.675Y-201.95
X351.675Y-251.275
X352.425Y-238.525
X352.55Y-204.7
X353.5Y-252.65
X353.875Y-187.175
X354.037Y-236.512
T2
X103.625Y-105.5
X103.625Y-280.075
X104.174Y-104.174
X104.174Y-106.826
X104.174Y-278.749
X104.174Y-281.401
X105.5Y-103.625
X105.5Y-107.375
X105.5Y-278.2
X105.5Y-281.95
X106.826Y-104.174
X106.826Y-106.826
X106.826Y-278.749
X106.826Y-281.401
X107.375Y-105.5
X107.375Y-280.075
X243.015Y-196.47
X243.564Y-195.144
X243.564Y-197.796
X244.89Y-194.595
X244.89Y-198.345
X246.216Y-195.144
X246.216Y-197.796
X246.765Y-196.47
X353.225Y-105.5
X353.225Y-280.075
X353.774Y-104.174
X353.774Y-106.826
X353.774Y-278.749
X353.774Y-281.401
X355.1Y-103.625
X355.1Y-107.375
X355.1Y-278.2
X355.1Y-281.95
X356.426Y-104.174
X356.426Y-106.826
X356.426Y-278.749
X356.426Y-281.401
X356.975Y-105.5
X356.975Y-280.075
T3
X229.4Y-104.0
X233.21Y-106.54
X233.21Y-109.08
X235.242Y-106.54
X236.385Y-103.492
X237.401Y-106.54
X239.56Y-106.54
X239.56Y-109.08
X252.232Y-104.052
X256.042Y-106.592
X256.042Y-109.132
X258.074Y-106.592
X259.217Y-103.544
X260.233Y-106.592
X262.392Y-106.592
X262.392Y-109.132
T4
X243.37Y-104.0
X266.202Y-104.052
T5
X149.898Y-250.669
X149.898Y-253.844
X151.168Y-250.669
X151.168Y-253.844
X152.438Y-250.669
X152.438Y-253.844
X153.708Y-250.669
X153.708Y-253.844
X154.978Y-250.669
X154.978Y-253.844
X156.248Y-250.669
X156.248Y-253.844
X157.518Y-250.669
X157.518Y-253.844
X158.788Y-250.669
X158.788Y-253.844
X160.058Y-250.669
X160.058Y-253.844
X161.328Y-250.669
X161.328Y-253.844
X162.598Y-250.669
X162.598Y-253.844
X163.868Y-250.669
X163.868Y-253.844
X165.138Y-250.669
X165.138Y-253.844
X166.408Y-250.669
X166.408Y-253.844
X167.678Y-250.669
X167.678Y-253.844
X168.948Y-250.669
X168.948Y-253.844
X170.218Y-250.669
X170.218Y-253.844
X171.488Y-250.669
X171.488Y-253.844
X172.758Y-250.669
X172.758Y-253.844
X174.028Y-250.669
X174.028Y-253.844
X175.298Y-250.669
X175.298Y-253.844
X176.568Y-250.669
X176.568Y-253.844
X177.838Y-250.669
X177.838Y-253.844
X179.108Y-250.669
X179.108Y-253.844
X180.378Y-250.669
X180.378Y-253.844
T6
X105.3Y-151.15
X105.3Y-161.31
X105.3Y-164.65
X105.3Y-174.81
X105.3Y-199.75
X105.3Y-209.91
X109.3Y-135.875
X111.45Y-186.375
X111.45Y-191.375
X115.165Y-153.51
X115.165Y-156.05
X115.165Y-158.59
X115.165Y-161.13
X115.165Y-163.67
X115.165Y-166.21
X115.165Y-168.75
X115.165Y-171.29
X115.165Y-173.83
X115.165Y-176.37
X115.165Y-178.91
X115.165Y-181.45
X115.165Y-183.99
X115.165Y-186.53
X115.165Y-189.07
X115.165Y-191.61
X115.165Y-194.15
X115.165Y-196.69
X115.165Y-199.23
X115.165Y-201.77
X115.165Y-204.31
X115.165Y-206.85
X115.165Y-209.39
X115.165Y-211.93
X115.165Y-214.47
X115.165Y-217.01
X115.165Y-219.55
X115.165Y-222.09
X115.165Y-224.63
X115.165Y-227.17
X115.165Y-229.71
X115.165Y-232.25
X119.46Y-135.875
X122.95Y-116.6
X125.45Y-116.6
X131.075Y-121.8
X131.075Y-126.8
X137.32Y-118.665
X137.32Y-121.205
X137.32Y-123.745
X137.32Y-126.285
X138.025Y-153.51
X138.025Y-156.05
X138.025Y-158.59
X138.025Y-161.13
X138.025Y-163.67
X138.025Y-166.21
X138.025Y-168.75
X138.025Y-171.29
X138.025Y-173.83
X138.025Y-176.37
X138.025Y-178.91
X138.025Y-181.45
X138.025Y-183.99
X138.025Y-186.53
X138.025Y-189.07
X138.025Y-191.61
X138.025Y-194.15
X138.025Y-196.69
X138.025Y-199.23
X138.025Y-201.77
X138.025Y-204.31
X138.025Y-206.85
X138.025Y-209.39
X138.025Y-211.93
X138.025Y-214.47
X138.025Y-217.01
X138.025Y-219.55
X138.025Y-222.09
X138.025Y-224.63
X138.025Y-227.17
X138.025Y-229.71
X138.025Y-232.25
X144.94Y-118.665
X144.94Y-121.205
X144.94Y-123.745
X144.94Y-126.285
X146.155Y-183.99
X146.155Y-188.99
X151.035Y-137.175
X151.035Y-144.795
X151.4Y-117.37
X151.4Y-127.53
X153.575Y-137.175
X153.575Y-144.795
X156.115Y-137.175
X156.115Y-144.795
X156.735Y-179.125
X156.735Y-181.665
X156.735Y-184.205
X156.735Y-186.745
X156.735Y-189.285
X156.735Y-191.825
X156.735Y-194.365
X156.735Y-196.905
X156.735Y-199.445
X156.735Y-201.985
X156.735Y-204.525
X156.9Y-121.025
X156.9Y-123.525
X158.655Y-137.175
X158.655Y-144.795
X159.275Y-176.585
X159.275Y-179.125
X159.275Y-181.665
X159.275Y-184.205
X159.275Y-186.745
X159.275Y-189.285
X159.275Y-191.825
X159.275Y-194.365
X159.275Y-196.905
X159.275Y-199.445
X159.275Y-201.985
X159.275Y-204.525
X159.275Y-207.065
X160.125Y-103.345
X160.125Y-113.505
X160.915Y-223.67
X160.915Y-233.83
X161.195Y-137.175
X161.195Y-144.795
X161.815Y-176.585
X161.815Y-179.125
X161.815Y-204.525
X161.815Y-207.065
X162.895Y-121.95
X163.735Y-137.175
X163.735Y-144.795
X164.355Y-176.585
X164.355Y-179.125
X164.355Y-204.525
X164.355Y-207.065
X165.395Y-121.95
X166.275Y-137.175
X166.275Y-144.795
X166.65Y-169.825
X166.895Y-176.585
X166.895Y-179.125
X166.895Y-204.525
X166.895Y-207.065
X167.165Y-225.0
X167.165Y-232.62
X168.815Y-137.175
X168.815Y-144.795
X169.435Y-176.585
X169.435Y-179.125
X169.435Y-204.525
X169.435Y-207.065
X170.5Y-118.625
X171.355Y-137.175
X171.355Y-144.795
X171.65Y-169.825
X171.975Y-176.585
X171.975Y-179.125
X171.975Y-204.525
X171.975Y-207.065
X173.225Y-125.4
X173.895Y-137.175
X173.895Y-144.795
X174.515Y-176.585
X174.515Y-179.125
X174.515Y-204.525
X174.515Y-207.065
X174.785Y-225.0
X174.785Y-232.62
X176.945Y-162.675
X177.055Y-176.585
X177.055Y-179.125
X177.055Y-204.525
X177.055Y-207.065
X177.07Y-168.85
X178.225Y-125.4
X179.595Y-176.585
X179.595Y-179.125
X179.595Y-204.525
X179.595Y-207.065
X180.66Y-118.625
X180.755Y-226.24
X180.755Y-231.24
X182.135Y-176.585
X182.135Y-179.125
X182.135Y-204.525
X182.135Y-207.065
X182.55Y-102.97
X182.55Y-113.13
X184.675Y-176.585
X184.675Y-179.125
X184.675Y-181.665
X184.675Y-184.205
X184.675Y-186.745
X184.675Y-189.285
X184.675Y-191.825
X184.675Y-194.365
X184.675Y-196.905
X184.675Y-199.445
X184.675Y-201.985
X184.675Y-204.525
X184.675Y-207.065
X187.105Y-162.675
X187.215Y-179.125
X187.215Y-181.665
X187.215Y-184.205
X187.215Y-186.745
X187.215Y-189.285
X187.215Y-191.825
X187.215Y-194.365
X187.215Y-196.905
X187.215Y-199.445
X187.215Y-201.985
X187.215Y-204.525
X187.23Y-168.85
X197.715Y-212.645
X197.715Y-215.185
X197.715Y-217.725
X197.715Y-220.265
X197.715Y-222.805
X197.715Y-225.345
X197.715Y-227.885
X197.715Y-230.425
X197.715Y-232.965
X197.715Y-235.505
X197.715Y-238.045
X197.715Y-240.585
X197.715Y-243.125
X197.715Y-245.665
X197.775Y-152.575
X197.775Y-155.115
X197.775Y-157.655
X197.775Y-160.195
X197.775Y-162.735
X197.775Y-165.275
X197.775Y-167.815
X197.775Y-170.355
X197.775Y-172.895
X197.775Y-175.435
X197.775Y-177.975
X197.775Y-180.515
X197.775Y-183.055
X197.775Y-185.595
X207.815Y-147.395
X207.855Y-207.885
X212.3Y-124.12
X212.3Y-134.28
X212.815Y-147.395
X212.855Y-207.885
X212.955Y-212.645
X212.955Y-215.185
X212.955Y-217.725
X212.955Y-220.265
X212.955Y-222.805
X212.955Y-225.345
X212.955Y-227.885
X212.955Y-230.425
X212.955Y-232.965
X212.955Y-235.505
X212.955Y-238.045
X212.955Y-240.585
X212.955Y-243.125
X212.955Y-245.665
X213.015Y-152.575
X213.015Y-155.115
X213.015Y-157.655
X213.015Y-160.195
X213.015Y-162.735
X213.015Y-165.275
X213.015Y-167.815
X213.015Y-170.355
X213.015Y-172.895
X213.015Y-175.435
X213.015Y-177.975
X213.015Y-180.515
X213.015Y-183.055
X213.015Y-185.595
X220.688Y-207.565
X220.688Y-210.105
X220.688Y-212.645
X220.688Y-215.185
X220.688Y-217.725
X220.688Y-220.265
X220.688Y-222.805
X220.688Y-225.345
X220.688Y-227.885
X220.688Y-230.425
X220.688Y-232.965
X220.688Y-235.505
X220.688Y-238.045
X220.688Y-240.585
X220.688Y-243.125
X220.688Y-245.665
X220.748Y-147.495
X220.748Y-150.035
X220.748Y-152.575
X220.748Y-155.115
X220.748Y-157.655
X220.748Y-160.195
X220.748Y-162.735
X220.748Y-165.275
X220.748Y-167.815
X220.748Y-170.355
X220.748Y-172.895
X220.748Y-175.435
X220.748Y-177.975
X220.748Y-180.515
X220.748Y-183.055
X220.748Y-185.595
X220.99Y-121.575
X220.99Y-136.815
X222.745Y-117.75
X223.53Y-121.575
X223.53Y-136.815
X226.07Y-121.575
X226.07Y-136.815
X228.61Y-121.575
X228.61Y-136.815
X231.15Y-121.575
X231.15Y-136.815
X232.905Y-117.75
X233.69Y-121.575
X233.69Y-136.815
X235.927Y-207.565
X235.927Y-210.105
X235.927Y-212.645
X235.927Y-215.185
X235.927Y-217.725
X235.927Y-220.265
X235.927Y-222.805
X235.927Y-225.345
X235.927Y-227.885
X235.927Y-230.425
X235.927Y-232.965
X235.927Y-235.505
X235.927Y-238.045
X235.927Y-240.585
X235.927Y-243.125
X235.927Y-245.665
X235.987Y-147.495
X235.987Y-150.035
X235.987Y-152.575
X235.987Y-155.115
X235.987Y-157.655
X235.987Y-160.195
X235.987Y-162.735
X235.987Y-165.275
X235.987Y-167.815
X235.987Y-170.355
X235.987Y-172.895
X235.987Y-175.435
X235.987Y-177.975
X235.987Y-180.515
X235.987Y-183.055
X235.987Y-185.595
X236.23Y-121.575
X236.23Y-136.815
X238.77Y-121.575
X238.77Y-136.815
X239.865Y-147.145
X239.865Y-152.145
X240.005Y-207.445
X240.005Y-212.445
X241.31Y-121.575
X241.31Y-136.815
X243.66Y-207.565
X243.66Y-210.105
X243.66Y-212.645
X243.66Y-215.185
X243.66Y-217.725
X243.66Y-220.265
X243.66Y-222.805
X243.66Y-225.345
X243.66Y-227.885
X243.66Y-230.425
X243.66Y-232.965
X243.66Y-235.505
X243.66Y-238.045
X243.66Y-240.585
X243.66Y-243.125
X243.66Y-245.665
X243.72Y-147.495
X243.72Y-150.035
X243.72Y-152.575
X243.72Y-155.115
X243.72Y-157.655
X243.72Y-160.195
X243.72Y-162.735
X243.72Y-165.275
X243.72Y-167.815
X243.72Y-170.355
X243.72Y-172.895
X243.72Y-175.435
X243.72Y-177.975
X243.72Y-180.515
X243.72Y-183.055
X243.72Y-185.595
X243.85Y-121.575
X243.85Y-136.815
X244.88Y-118.025
X246.39Y-121.575
X246.39Y-136.815
X248.93Y-121.575
X248.93Y-136.815
X249.88Y-118.025
X251.47Y-121.575
X251.47Y-136.815
X254.01Y-121.575
X254.01Y-136.815
X256.55Y-121.575
X256.55Y-136.815
X258.9Y-207.565
X258.9Y-210.105
X258.9Y-212.645
X258.9Y-215.185
X258.9Y-217.725
X258.9Y-220.265
X258.9Y-222.805
X258.9Y-225.345
X258.9Y-227.885
X258.9Y-230.425
X258.9Y-232.965
X258.9Y-235.505
X258.9Y-238.045
X258.9Y-240.585
X258.9Y-243.125
X258.9Y-245.665
X258.96Y-147.495
X258.96Y-150.035
X258.96Y-152.575
X258.96Y-155.115
X258.96Y-157.655
X258.96Y-160.195
X258.96Y-162.735
X258.96Y-165.275
X258.96Y-167.815
X258.96Y-170.355
X258.96Y-172.895
X258.96Y-175.435
X258.96Y-177.975
X258.96Y-180.515
X258.96Y-183.055
X258.96Y-185.595
X259.09Y-121.575
X259.09Y-136.815
X261.63Y-121.575
X261.63Y-136.815
X262.755Y-207.095
X262.755Y-212.095
X262.815Y-147.145
X262.815Y-152.145
X264.17Y-121.575
X264.17Y-136.815
X266.632Y-207.565
X266.632Y-210.105
X266.632Y-212.645
X266.632Y-215.185
X266.632Y-217.725
X266.632Y-220.265
X266.632Y-222.805
X266.632Y-225.345
X266.632Y-227.885
X266.632Y-230.425
X266.632Y-232.965
X266.632Y-235.505
X266.632Y-238.045
X266.632Y-240.585
X266.632Y-243.125
X266.632Y-245.665
X266.692Y-147.495
X266.692Y-150.035
X266.692Y-152.575
X266.692Y-155.115
X266.692Y-157.655
X266.692Y-160.195
X266.692Y-162.735
X266.692Y-165.275
X266.692Y-167.815
X266.692Y-170.355
X266.692Y-172.895
X266.692Y-175.435
X266.692Y-177.975
X266.692Y-180.515
X266.692Y-183.055
X266.692Y-185.595
X266.71Y-121.575
X266.71Y-136.815
X269.25Y-121.575
X269.25Y-136.815
X277.4Y-258.1
X277.4Y-268.26
X277.78Y-135.335
X277.88Y-118.475
X278.83Y-124.575
X278.83Y-129.575
X280.28Y-135.335
X280.38Y-118.475
X281.873Y-207.565
X281.873Y-210.105
X281.873Y-212.645
X281.873Y-215.185
X281.873Y-217.725
X281.873Y-220.265
X281.873Y-222.805
X281.873Y-225.345
X281.873Y-227.885
X281.873Y-230.425
X281.873Y-232.965
X281.873Y-235.505
X281.873Y-238.045
X281.873Y-240.585
X281.873Y-243.125
X281.873Y-245.665
X281.933Y-147.495
X281.933Y-150.035
X281.933Y-152.575
X281.933Y-155.115
X281.933Y-157.655
X281.933Y-160.195
X281.933Y-162.735
X281.933Y-165.275
X281.933Y-167.815
X281.933Y-170.355
X281.933Y-172.895
X281.933Y-175.435
X281.933Y-177.975
X281.933Y-180.515
X281.933Y-183.055
X281.933Y-185.595
X285.765Y-147.145
X285.765Y-152.145
X285.855Y-207.245
X285.855Y-212.245
X289.605Y-207.565
X289.605Y-210.105
X289.605Y-212.645
X289.605Y-215.185
X289.605Y-217.725
X289.605Y-220.265
X289.605Y-222.805
X289.605Y-225.345
X289.605Y-227.885
X289.605Y-230.425
X289.605Y-232.965
X289.605Y-235.505
X289.605Y-238.045
X289.605Y-240.585
X289.605Y-243.125
X289.605Y-245.665
X289.665Y-147.495
X289.665Y-150.035
X289.665Y-152.575
X289.665Y-155.115
X289.665Y-157.655
X289.665Y-160.195
X289.665Y-162.735
X289.665Y-165.275
X289.665Y-167.815
X289.665Y-170.355
X289.665Y-172.895
X289.665Y-175.435
X289.665Y-177.975
X289.665Y-180.515
X289.665Y-183.055
X289.665Y-185.595
X289.825Y-118.55
X289.825Y-121.05
X293.275Y-258.1
X293.275Y-268.26
X294.495Y-105.4
X294.495Y-109.45
X300.215Y-115.355
X300.215Y-125.515
X304.655Y-105.4
X304.655Y-109.45
X304.845Y-207.565
X304.845Y-210.105
X304.845Y-212.645
X304.845Y-215.185
X304.845Y-217.725
X304.845Y-220.265
X304.845Y-222.805
X304.845Y-225.345
X304.845Y-227.885
X304.845Y-230.425
X304.845Y-232.965
X304.845Y-235.505
X304.845Y-238.045
X304.845Y-240.585
X304.845Y-243.125
X304.845Y-245.665
X304.905Y-147.495
X304.905Y-150.035
X304.905Y-152.575
X304.905Y-155.115
X304.905Y-157.655
X304.905Y-160.195
X304.905Y-162.735
X304.905Y-165.275
X304.905Y-167.815
X304.905Y-170.355
X304.905Y-172.895
X304.905Y-175.435
X304.905Y-177.975
X304.905Y-180.515
X304.905Y-183.055
X304.905Y-185.595
X306.7Y-258.195
X306.7Y-268.355
X308.865Y-147.145
X308.865Y-152.145
X309.005Y-207.095
X309.005Y-212.095
X312.855Y-120.945
X312.855Y-131.105
X315.575Y-262.645
X315.575Y-265.145
X316.785Y-120.945
X316.785Y-131.105
X317.83Y-254.42
X320.04Y-220.67
X320.04Y-223.21
X320.04Y-225.75
X320.04Y-228.29
X320.04Y-230.83
X320.04Y-233.37
X320.04Y-235.91
X320.04Y-238.45
X320.04Y-240.99
X320.04Y-243.53
X320.04Y-246.07
X320.3Y-172.045
X320.3Y-174.585
X320.3Y-177.125
X320.3Y-179.665
X320.3Y-182.205
X320.3Y-184.745
X320.3Y-187.285
X320.3Y-189.825
X320.3Y-192.365
X320.3Y-194.905
X320.3Y-197.445
X320.715Y-120.945
X320.715Y-131.105
X322.58Y-218.13
X322.58Y-220.67
X322.58Y-223.21
X322.58Y-225.75
X322.58Y-228.29
X322.58Y-230.83
X322.58Y-233.37
X322.58Y-235.91
X322.58Y-238.45
X322.58Y-240.99
X322.58Y-243.53
X322.58Y-246.07
X322.58Y-248.61
X322.83Y-254.42
X322.84Y-169.505
X322.84Y-172.045
X322.84Y-174.585
X322.84Y-177.125
X322.84Y-179.665
X322.84Y-182.205
X322.84Y-184.745
X322.84Y-187.285
X322.84Y-189.825
X322.84Y-192.365
X322.84Y-194.905
X322.84Y-197.445
X322.84Y-199.985
X323.55Y-138.4
X323.55Y-143.4
X323.825Y-154.025
X323.825Y-159.025
X324.4Y-207.695
X324.645Y-120.945
X324.645Y-131.105
X325.12Y-218.13
X325.12Y-220.67
X325.12Y-246.07
X325.12Y-248.61
X325.38Y-169.505
X325.38Y-172.045
X325.38Y-197.445
X325.38Y-199.985
X327.66Y-218.13
X327.66Y-220.67
X327.66Y-246.07
X327.66Y-248.61
X327.92Y-169.505
X327.92Y-172.045
X327.92Y-197.445
X327.92Y-199.985
X328.59Y-120.99
X328.59Y-131.15
X329.4Y-207.695
X330.03Y-152.68
X330.03Y-160.3
X330.105Y-136.905
X330.105Y-144.525
X330.2Y-218.13
X330.2Y-220.67
X330.2Y-246.07
X330.2Y-248.61
X330.46Y-169.505
X330.46Y-172.045
X330.46Y-197.445
X330.46Y-199.985
X332.52Y-120.99
X332.52Y-131.15
X332.74Y-218.13
X332.74Y-220.67
X332.74Y-246.07
X332.74Y-248.61
X333.0Y-169.505
X333.0Y-172.045
X333.0Y-197.445
X333.0Y-199.985
X335.28Y-218.13
X335.28Y-220.67
X335.28Y-246.07
X335.28Y-248.61
X335.54Y-169.505
X335.54Y-172.045
X335.54Y-197.445
X335.54Y-199.985
X336.45Y-120.99
X336.45Y-131.15
X337.65Y-152.68
X337.65Y-160.3
X337.725Y-136.905
X337.725Y-144.525
X337.82Y-218.13
X337.82Y-220.67
X337.82Y-246.07
X337.82Y-248.61
X338.08Y-169.505
X338.08Y-172.045
X338.08Y-197.445
X338.08Y-199.985
X340.36Y-218.13
X340.36Y-220.67
X340.36Y-246.07
X340.36Y-248.61
X340.38Y-120.99
X340.38Y-131.15
X340.62Y-169.505
X340.62Y-172.045
X340.62Y-197.445
X340.62Y-199.985
X342.9Y-218.13
X342.9Y-220.67
X342.9Y-246.07
X342.9Y-248.61
X343.16Y-169.505
X343.16Y-172.045
X343.16Y-197.445
X343.16Y-199.985
X344.315Y-120.945
X344.315Y-131.105
X345.44Y-218.13
X345.44Y-220.67
X345.44Y-246.07
X345.44Y-248.61
X345.7Y-169.505
X345.7Y-172.045
X345.7Y-197.445
X345.7Y-199.985
X347.98Y-218.13
X347.98Y-220.67
X347.98Y-223.21
X347.98Y-225.75
X347.98Y-228.29
X347.98Y-230.83
X347.98Y-233.37
X347.98Y-235.91
X347.98Y-238.45
X347.98Y-240.99
X347.98Y-243.53
X347.98Y-246.07
X347.98Y-248.61
X348.24Y-169.505
X348.24Y-172.045
X348.24Y-174.585
X348.24Y-177.125
X348.24Y-179.665
X348.24Y-182.205
X348.24Y-184.745
X348.24Y-187.285
X348.24Y-189.825
X348.24Y-192.365
X348.24Y-194.905
X348.24Y-197.445
X348.24Y-199.985
X348.245Y-120.945
X348.245Y-131.105
X350.52Y-220.67
X350.52Y-223.21
X350.52Y-225.75
X350.52Y-228.29
X350.52Y-230.83
X350.52Y-233.37
X350.52Y-235.91
X350.52Y-238.45
X350.52Y-240.99
X350.52Y-243.53
X350.52Y-246.07
X350.78Y-172.045
X350.78Y-174.585
X350.78Y-177.125
X350.78Y-179.665
X350.78Y-182.205
X350.78Y-184.745
X350.78Y-187.285
X350.78Y-189.825
X350.78Y-192.365
X350.78Y-194.905
X350.78Y-197.445
X352.175Y-120.945
X352.175Y-131.105
T7
X150.719Y-132.2
X153.335Y-132.2
X155.951Y-132.2
X158.568Y-132.2
X161.184Y-132.2
X163.8Y-132.2
X166.416Y-132.2
X169.032Y-132.2
X171.649Y-132.2
X174.265Y-132.2
T8
X276.025Y-275.875
X278.565Y-275.875
X291.975Y-275.875
X294.515Y-275.875
T9
X111.25Y-127.075
X117.75Y-127.075
X119.725Y-105.65
X122.265Y-105.65
X124.805Y-105.65
X127.345Y-105.65
X129.885Y-105.65
X132.425Y-105.65
X134.965Y-105.65
X137.505Y-105.65
X156.405Y-155.85
X158.945Y-155.85
X161.485Y-155.85
X164.025Y-155.85
X166.565Y-155.85
X199.945Y-111.15
X202.125Y-262.425
X202.485Y-111.15
X205.025Y-111.15
X206.636Y-274.075
X207.565Y-111.15
X210.105Y-111.15
X211.146Y-262.4
X212.645Y-111.15
X215.657Y-274.075
X220.168Y-262.425
X224.679Y-274.075
X229.189Y-262.425
X233.7Y-274.075
X238.211Y-262.425
X242.721Y-274.075
X247.232Y-262.425
X251.743Y-273.805
X256.254Y-262.425
X260.764Y-273.805
X265.275Y-262.425
X307.92Y-273.625
X307.92Y-278.125
X314.42Y-273.625
X314.42Y-278.125
X325.372Y-111.438
X326.512Y-108.897
X326.512Y-113.977
X327.652Y-111.438
X328.792Y-108.897
X328.792Y-113.977
X329.932Y-111.438
X331.072Y-108.897
X331.072Y-113.977
X332.212Y-111.438
X333.352Y-108.897
X333.352Y-113.977
X334.492Y-111.438
X335.632Y-108.897
X335.632Y-113.977
X350.025Y-145.325
X350.025Y-147.865
T11
X105.5Y-105.5
X105.5Y-280.075
X244.89Y-196.47
X355.1Y-105.5
X355.1Y-280.075
T12
X143.751Y-258.543
X143.751Y-279.625
X186.525Y-258.543
X186.525Y-279.625
T13
X318.322Y-111.438
X343.312Y-111.438
T6
G00X168.55Y-107.625
M15
G01X168.55Y-107.225
M16
G05
G00X170.55Y-110.725
M15
G01X170.55Y-110.325
M16
G05
G00X172.35Y-102.425
M15
G01X171.95Y-102.425
M16
G05
G00X173.75Y-110.725
M15
G01X173.75Y-110.325
M16
G05
T9
G00X281.931Y-109.5
M15
G01X281.931Y-108.0
M16
G05
T10
G00X281.331Y-104.25
M15
G01X282.531Y-104.25
M16
G05
M30
